<?xml version="1.0" encoding="UTF-8" standalone="no"?>
<!-- Created with Inkscape (http://www.inkscape.org/) -->

<svg
   xmlns:osb="http://www.openswatchbook.org/uri/2009/osb"
   xmlns:dc="http://purl.org/dc/elements/1.1/"
   xmlns:cc="http://creativecommons.org/ns#"
   xmlns:rdf="http://www.w3.org/1999/02/22-rdf-syntax-ns#"
   xmlns:svg="http://www.w3.org/2000/svg"
   xmlns="http://www.w3.org/2000/svg"
   xmlns:xlink="http://www.w3.org/1999/xlink"
   xmlns:sodipodi="http://sodipodi.sourceforge.net/DTD/sodipodi-0.dtd"
   xmlns:inkscape="http://www.inkscape.org/namespaces/inkscape"
   width="44.04174mm"
   height="17.265245mm"
   viewBox="0 0 44.04174 17.265245"
   version="1.1"
   id="svg3912"
   inkscape:version="0.92.3 (2405546, 2018-03-11)"
   sodipodi:docname="logo_nav.svg">
  <defs
     id="defs3906">
    <linearGradient
       inkscape:collect="always"
       id="linearGradient2354">
      <stop
         style="stop-color:#808080;stop-opacity:1;"
         offset="0"
         id="stop2350" />
      <stop
         style="stop-color:#808080;stop-opacity:0;"
         offset="1"
         id="stop2352" />
    </linearGradient>
    <linearGradient
       id="linearGradient2332"
       osb:paint="solid">
      <stop
         style="stop-color:#004455;stop-opacity:1;"
         offset="0"
         id="stop2330" />
    </linearGradient>
    <linearGradient
       id="linearGradient2324"
       osb:paint="solid">
      <stop
         style="stop-color:#004455;stop-opacity:1;"
         offset="0"
         id="stop2322" />
    </linearGradient>
    <linearGradient
       id="linearGradient860"
       osb:paint="solid">
      <stop
         style="stop-color:#000000;stop-opacity:1;"
         offset="0"
         id="stop858" />
    </linearGradient>
    <linearGradient
       id="linearGradient4612"
       osb:paint="solid">
      <stop
         style="stop-color:#004455;stop-opacity:1;"
         offset="0"
         id="stop4610" />
    </linearGradient>
    <linearGradient
       inkscape:collect="always"
       xlink:href="#linearGradient2332"
       id="linearGradient2334"
       x1="41.27888"
       y1="124.38712"
       x2="87.276373"
       y2="124.38712"
       gradientUnits="userSpaceOnUse" />
    <linearGradient
       inkscape:collect="always"
       xlink:href="#linearGradient2354"
       id="linearGradient2358"
       x1="41.213974"
       y1="124.38712"
       x2="87.341278"
       y2="124.38712"
       gradientUnits="userSpaceOnUse" />
  </defs>
  <sodipodi:namedview
     id="base"
     pagecolor="#ffffff"
     bordercolor="#666666"
     borderopacity="1.0"
     inkscape:pageopacity="0.0"
     inkscape:pageshadow="2"
     inkscape:zoom="5.6"
     inkscape:cx="44.055549"
     inkscape:cy="20.669747"
     inkscape:document-units="mm"
     inkscape:current-layer="g4726"
     showgrid="false"
     inkscape:window-width="1920"
     inkscape:window-height="1057"
     inkscape:window-x="-8"
     inkscape:window-y="-8"
     inkscape:window-maximized="1"
     fit-margin-top="0"
     fit-margin-left="0"
     fit-margin-right="0"
     fit-margin-bottom="0" />
  <metadata
     id="metadata3909">
    <rdf:RDF>
      <cc:Work
         rdf:about="">
        <dc:format>image/svg+xml</dc:format>
        <dc:type
           rdf:resource="http://purl.org/dc/dcmitype/StillImage" />
        <dc:title />
      </cc:Work>
    </rdf:RDF>
  </metadata>
  <g
     inkscape:label="Capa 1"
     inkscape:groupmode="layer"
     id="layer1"
     transform="translate(-39.523757,-115.00152)">
    <g
       id="g4726">
      <g
         transform="matrix(0.27470538,0,0,0.25099997,38.694778,87.51138)"
         id="g4536">
        <g
           transform="matrix(0.15814465,0,0,0.17192547,113.09348,104.06743)"
           id="g1635">
          <path
             inkscape:connector-curvature="0"
             style="fill:#004455;fill-opacity:1;stroke-width:0.35277566"
             id="path889-5"
             d="m -88.910575,282.39805 -59.266305,-90.31058 c -0.5209,-0.79512 -1.40835,-1.2733 -2.35919,-1.2733 h -45.15529 c -0.94947,0 -1.83692,0.47818 -2.35919,1.2733 l -59.26631,90.31058 c -0.56913,0.86678 -0.61736,1.97747 -0.12403,2.88973 0.49196,0.91363 1.44693,1.48138 2.48321,1.48138 h 163.687915 c 1.03766,0 1.99126,-0.56775 2.48459,-1.48138 0.49334,-0.91226 0.44511,-2.02295 -0.1254,-2.88973 z M -194.16726,196.45858 h 2.72988 l -44.32847,84.66617 h -13.9622 z m 23.87575,84.66617 v -11.28882 h -5.64441 v 11.28882 h -53.4469 l 44.30918,-84.66617 h 9.13772 v 2.82221 h 5.64441 v -2.82221 h 9.13082 l 44.30781,84.66617 z m 59.83131,0 -44.30918,-84.66617 h 2.72988 l 55.540115,84.66617 z m 0,0" />
          <path
             inkscape:connector-curvature="0"
             style="fill:#004455;fill-opacity:1;stroke-width:0.35277566"
             id="path891"
             d="m -175.93592,202.103 h 5.64441 v 5.64441 h -5.64441 z m 0,0" />
          <path
             inkscape:connector-curvature="0"
             style="fill:#004455;fill-opacity:1;stroke-width:0.35277566"
             id="path893"
             d="m -175.93592,213.39182 h 5.64441 v 8.46662 h -5.64441 z m 0,0" />
          <path
             inkscape:connector-curvature="0"
             style="fill:#004455;fill-opacity:1;stroke-width:0.35277566"
             id="path895"
             d="m -175.93592,227.50284 h 5.64441 v 11.28883 h -5.64441 z m 0,0" />
          <path
             inkscape:connector-curvature="0"
             style="fill:#004455;fill-opacity:1;stroke-width:0.35277566"
             id="path897"
             d="m -175.93592,247.25828 h 5.64441 v 14.11103 h -5.64441 z m 0,0" />
        </g>
        <g
           transform="matrix(1.0941008,0,0,1.0136566,67.571252,109.5225)"
           id="g3772">
          <path
             style="fill:#004455;fill-opacity:1"
             inkscape:connector-curvature="0"
             id="path3766"
             d="m 16.603,17.908 c -3.131,0 -5.679,-2.548 -5.679,-5.68 0,-3.132 2.547,-5.68 5.679,-5.68 3.132,0 5.679,2.548 5.679,5.68 0,3.132 -2.548,5.68 -5.679,5.68 z m 0,-10.359 c -2.58,0 -4.679,2.099 -4.679,4.68 0,2.581 2.099,4.68 4.679,4.68 2.58,0 4.679,-2.099 4.679,-4.68 0,-2.581 -2.099,-4.68 -4.679,-4.68 z" />
          <path
             d="m 16.603,33.205 c -0.148,0 -0.288,-0.065 -0.383,-0.179 C 15.736,32.449 4.376,18.811 4.376,12.229 4.376,5.486 9.861,0 16.603,0 23.345,0 28.83,5.486 28.83,12.229 c 0,6.583 -11.36,20.22 -11.843,20.798 -0.096,0.113 -0.237,0.178 -0.384,0.178 z M 16.603,1 C 10.412,1 5.376,6.037 5.376,12.229 5.376,17.8 14.592,29.444 16.603,31.917 18.613,29.443 27.83,17.799 27.83,12.229 27.829,6.037 22.793,1 16.603,1 Z"
             id="path3768"
             inkscape:connector-curvature="0"
             style="fill:#006680;fill-opacity:1" />
        </g>
      </g>
      <g
         transform="matrix(1.1127675,0,0,1.1016414,-40.069324,-9.5081766)"
         id="g3863">
        <path
           style="fill:none;stroke:#010000;stroke-width:0.32797688;stroke-linejoin:round;stroke-miterlimit:10"
           inkscape:connector-curvature="0"
           class="st2"
           d="m 101.74607,115.58855 h -2.696151 c -0.189203,0 -0.378407,0.18762 -0.378407,0.39229 v 6.58363 c 0,0.20467 0.189204,0.35818 0.378407,0.35818 h 4.091531 c 0.1892,0 0.33899,-0.15351 0.33899,-0.35818 v -4.92919"
           id="path2919" />
        <g
           id="g2923"
           transform="matrix(0.07883488,0,0,0.08528017,97.252484,115.07687)">
          <path
             style="fill:none;stroke:#010000;stroke-width:4;stroke-linecap:round;stroke-linejoin:round;stroke-miterlimit:10"
             inkscape:connector-curvature="0"
             class="st1"
             d="m 81.2,27 c 2.3,0 2.9,-1.2 1.2,-2.9 L 63.1,4.9 C 61.5,3.3 60,3.9 60,6.2 V 23 c 0,2.3 2.1,4 4.5,4 z"
             id="path2921" />
        </g>
        <line
           style="fill:none;stroke:#010000;stroke-width:0.32797688;stroke-linecap:round;stroke-linejoin:round;stroke-miterlimit:10"
           class="st1"
           x1="99.381027"
           x2="101.27306"
           y1="116.61192"
           y2="116.61192"
           id="line2925" />
        <line
           style="fill:none;stroke:#010000;stroke-width:0.32797688;stroke-linecap:round;stroke-linejoin:round;stroke-miterlimit:10"
           class="st1"
           x1="99.302193"
           x2="100.87889"
           y1="118.06168"
           y2="118.06168"
           id="line2927" />
        <line
           style="fill:none;stroke:#010000;stroke-width:0.32797688;stroke-linecap:round;stroke-linejoin:round;stroke-miterlimit:10"
           class="st1"
           x1="101.3519"
           x2="102.84976"
           y1="118.06168"
           y2="118.06168"
           id="line2929" />
        <line
           style="fill:none;stroke:#010000;stroke-width:0.32797688;stroke-linecap:round;stroke-linejoin:round;stroke-miterlimit:10"
           class="st1"
           x1="99.302193"
           x2="101.66724"
           y1="118.57336"
           y2="118.57336"
           id="line2931" />
        <line
           style="fill:none;stroke:#010000;stroke-width:0.32797688;stroke-linecap:round;stroke-linejoin:round;stroke-miterlimit:10"
           class="st1"
           x1="102.14025"
           x2="102.84976"
           y1="118.57336"
           y2="118.57336"
           id="line2933" />
        <line
           style="fill:none;stroke:#010000;stroke-width:0.32797688;stroke-linecap:round;stroke-linejoin:round;stroke-miterlimit:10"
           class="st1"
           x1="99.302193"
           x2="100.87889"
           y1="119.08504"
           y2="119.08504"
           id="line2935" />
        <line
           style="fill:none;stroke:#010000;stroke-width:0.32797688;stroke-linecap:round;stroke-linejoin:round;stroke-miterlimit:10"
           class="st1"
           x1="101.3519"
           x2="102.84976"
           y1="119.08504"
           y2="119.08504"
           id="line2937" />
        <line
           style="fill:none;stroke:#010000;stroke-width:0.32797688;stroke-linecap:round;stroke-linejoin:round;stroke-miterlimit:10"
           class="st1"
           x1="99.302193"
           x2="101.66724"
           y1="119.59672"
           y2="119.59672"
           id="line2939" />
        <line
           style="fill:none;stroke:#010000;stroke-width:0.32797688;stroke-linecap:round;stroke-linejoin:round;stroke-miterlimit:10"
           class="st1"
           x1="102.14025"
           x2="102.84976"
           y1="119.59672"
           y2="119.59672"
           id="line2941" />
        <g
           id="g2951"
           transform="matrix(0.07883488,0,0,0.08528017,97.252484,115.07687)">
          <path
             style="fill:#010000"
             inkscape:connector-curvature="0"
             class="st4"
             d="m 26,78.8 c 0,-0.7 0.2,-1.2 0.5,-1.5 0.4,-0.3 0.9,-0.5 1.5,-0.5 0.7,0 1.2,0.2 1.5,0.5 0.4,0.3 0.5,0.8 0.5,1.5 0,0.6 -0.2,1.1 -0.5,1.5 -0.4,0.4 -0.9,0.5 -1.5,0.5 -0.7,0 -1.2,-0.2 -1.5,-0.5 C 26.2,79.9 26,79.4 26,78.8 Z"
             id="path2943" />
          <path
             style="fill:#010000"
             inkscape:connector-curvature="0"
             class="st4"
             d="m 37.6,80.8 c -1.5,0 -2.8,-0.7 -3.7,-1.9 -0.9,-1.2 -1.3,-2.9 -1.3,-5 0,-2.2 0.4,-3.9 1.4,-5.1 0.9,-1.2 2.1,-1.8 3.7,-1.8 1.7,0 2.9,0.9 3.8,1.9 h 0.1 C 41.4,67.9 41,67 41,66.3 V 62 h 4 v 18 h -2.8 l -0.7,-1 h -0.2 c -0.8,1 -2.1,1.8 -3.7,1.8 z m 1.2,-2.9 c 0.9,0 1.8,-0.3 2.2,-0.8 0.4,-0.5 0.9,-1.4 0.9,-2.7 V 74 c 0,-1.4 -0.4,-2.4 -0.9,-3 -0.4,-0.6 -1.3,-0.9 -2.2,-0.9 -0.8,0 -1.5,0.3 -1.9,1 -0.4,0.7 -0.7,1.7 -0.7,3 0,1.3 0.2,2.3 0.7,2.9 0.5,0.5 1.1,0.9 1.9,0.9 z"
             id="path2945" />
          <path
             style="fill:#010000"
             inkscape:connector-curvature="0"
             class="st4"
             d="M 51.4,73.4 47.1,67 h 4.1 l 2.6,4.2 2.6,-4.2 h 4.1 l -4.3,6.4 4.5,6.6 H 56.6 L 53.8,75.5 51,80 h -4.1 z"
             id="path2947" />
          <path
             style="fill:#010000"
             inkscape:connector-curvature="0"
             class="st4"
             d="M 70,70 H 67 V 80 H 63 V 70 h -2 v -1.7 l 2,-1 v -1 c 0,-1.5 0.5,-2.6 1.2,-3.3 0.7,-0.7 2,-1 3.6,-1 1.2,0 2.4,0.2 3.3,0.6 l -0.9,2.6 c -0.7,-0.2 -1.4,-0.3 -2,-0.3 -0.5,0 -0.8,0.2 -1,0.5 C 67,65.6 67,66 67,66.5 V 67 h 3 z"
             id="path2949" />
        </g>
      </g>
      <g
         inkscape:transform-center-y="8.155353"
         inkscape:transform-center-x="0.68000688"
         id="surface1"
         transform="matrix(0.01430039,0,0,0.01319132,48.426855,117.61335)">
        <path
           id="path3516"
           style="fill:#000000;fill-opacity:1;fill-rule:nonzero;stroke:none"
           d="m 255.96094,117.32813 c -23.5625,0 -42.66407,19.10546 -42.66407,42.66796 0,23.5625 19.10157,42.66407 42.66407,42.66407 23.5664,0 42.66797,-19.10157 42.66797,-42.66407 0,-23.5625 -19.10157,-42.66796 -42.66797,-42.66796 z m 0,63.99999 c -11.78125,0 -21.33203,-9.55078 -21.33203,-21.33203 0,-11.78515 9.55078,-21.33593 21.33203,-21.33593 11.78515,0 21.33593,9.55078 21.33593,21.33593 0,11.78125 -9.55078,21.33203 -21.33593,21.33203 z m 0,0"
           inkscape:connector-curvature="0" />
        <path
           id="path3518"
           style="fill:#000000;fill-opacity:1;fill-rule:nonzero;stroke:none"
           d="m 508.51953,578.86719 c -0.0898,-1.64453 -0.57031,-3.2461 -1.39453,-4.67969 L 360.70703,319.99609 h 23.25391 c 5.88672,0 10.66797,-4.77734 10.66797,-10.67187 v -63.9961 c 0,-5.89062 -4.78125,-10.66406 -10.66797,-10.66406 H 330.625 V 74.664062 C 330.625,68.773438 325.85156,64 319.96094,64 H 298.62891 V 10.667969 C 298.62891,4.773438 293.85156,0 287.96094,0 h -64 c -5.89063,0 -10.66407,4.773438 -10.66407,10.667969 V 64 h -21.33203 c -5.89453,0 -10.67187,4.773438 -10.67187,10.667969 V 234.66406 h -53.32813 c -5.89062,0 -10.66406,4.77344 -10.66406,10.66406 v 63.9961 c 0,5.89453 4.77344,10.67187 10.66406,10.67187 h 23.25 L 4.800781,574.18359 c -0.824219,1.4375 -1.304687,3.03907 -1.398437,4.6836 l -2.878906,47.67187 c -0.390626,5.8711 4.058593,10.95703 9.9375,11.34766 2.328124,0.15625 4.648437,-0.46094 6.59375,-1.75 l 39.796874,-26.34766 c 1.375,-0.91797 2.523438,-2.13672 3.347657,-3.57422 L 223.96094,321.81641 v 264.83984 c 0,1.65234 0.38672,3.28516 1.12109,4.76953 l 21.33594,42.66406 c 2.625,5.26953 9.03125,7.41407 14.30078,4.78516 2.07422,-1.03516 3.75391,-2.71484 4.78906,-4.78516 l 21.33203,-42.66406 c 0.73828,-1.48437 1.125,-3.11719 1.1211,-4.76953 V 321.81641 l 163.76172,284.34375 c 0.82812,1.4375 1.97265,2.65625 3.35156,3.57421 l 39.79297,26.34766 c 1.75,1.15234 3.79687,1.77344 5.89062,1.76953 5.88672,0.0156 10.67188,-4.75 10.6836,-10.64453 0,-0.22656 -0.004,-0.44531 -0.0195,-0.66797 z M 234.62891,21.332031 h 42.66796 V 64 h -42.66796 z m -32,64 H 309.29297 V 234.66406 H 202.62891 Z m -63.9961,170.664059 h 234.66016 v 42.66407 H 138.63281 Z M 42.964844,593.34375 23.101562,606.48437 24.542969,582.65625 175.83594,319.99609 h 24.53125 z m 223.667966,-9.20313 -10.67187,21.32813 -10.66797,-21.32813 V 319.99609 H 266.625 v 264.14453 z m 202.32813,9.20313 -157.42578,-273.34766 h 24.53125 l 151.35546,262.66016 1.44141,23.82812 z m 0,0"
           inkscape:connector-curvature="0" />
      </g>
      <g
         id="g4912"
         transform="matrix(0.00492522,0,0,0.00554466,66.487084,121.56634)">
        <path
           id="path4910"
           d="m 483.058,215.613 -215.5,-177.6 c -4,-3.3 -9.6,-4 -14.3,-1.8 -4.7,2.2 -7.7,7 -7.7,12.2 v 93.6 c -104.6,3.8 -176.5,40.7 -213.9,109.8 -32.2,59.6 -31.9,130.2 -31.6,176.9 0,3.8 0,7.4 0,10.8 0,6.1 4.1,11.5 10.1,13.1 1.1,0.3 2.3,0.4 3.4,0.4 4.8,0 9.3,-2.5 11.7,-6.8 73,-128.7 133.1,-134.9 220.2,-135.2 v 93.3 c 0,5.2 3,10 7.8,12.2 4.8,2.2 10.3,1.5 14.4,-1.8 l 215.4,-178.2 c 3.1,-2.6 4.9,-6.4 4.9,-10.4 0,-4 -1.8,-7.9 -4.9,-10.5 z m -210.5,160 v -78.1 c 0,-3.6 -1.4,-7 -4,-9.5 -2.5,-2.5 -6,-4 -9.5,-4 -54.4,0 -96.1,1.5 -136.6,20.4 -35,16.3 -65.3,44 -95.2,87.5 1.2,-39.7 6.4,-87.1 28.1,-127.2 34.4,-63.6 101,-95.1 203.7,-96 7.4,-0.1 13.4,-6.1 13.4,-13.5 v -78.2 l 180.7,149.1 z"
           inkscape:connector-curvature="0" />
      </g>
      <path
         inkscape:connector-curvature="0"
         id="path5512"
         d="m 55.419041,119.19224 c -0.01969,-0.008 -0.02754,-0.0798 -0.02699,-0.24751 0.0029,-0.88167 0.345424,-1.34126 1.070749,-1.43666 l 0.127695,-0.0168 3.37e-4,-0.26024 c 3.63e-4,-0.27388 0.01603,-0.3385 0.07596,-0.31316 0.0638,0.027 1.100714,1.00113 1.100714,1.0341 0,0.0318 -0.14685,0.17538 -0.771684,0.75435 -0.411551,0.38135 -0.405327,0.38171 -0.405327,-0.0233 v -0.27608 l -0.08328,0.009 c -0.0458,0.005 -0.140772,0.0142 -0.21104,0.0204 -0.26723,0.0236 -0.485084,0.19404 -0.697144,0.54521 -0.13315,0.22049 -0.138667,0.22695 -0.179997,0.21062 z m 0.127695,-0.34593 c 0,-0.0115 0.06066,-0.0939 0.134811,-0.18305 0.195375,-0.23493 0.378826,-0.33041 0.702592,-0.36565 0.133359,-0.0145 0.25933,-0.0193 0.279935,-0.0106 0.0317,0.0134 0.03747,0.0536 0.03747,0.26131 0,0.135 0.0056,0.24546 0.0124,0.24546 0.01741,0 0.885528,-0.80825 0.893661,-0.83203 0.0075,-0.022 -0.853566,-0.83192 -0.884481,-0.83192 -0.01099,0 -0.02284,0.1073 -0.02634,0.23844 l -0.0064,0.23843 -0.199869,0.0276 c -0.109929,0.0152 -0.244841,0.041 -0.299805,0.0574 -0.24452,0.0731 -0.465847,0.27839 -0.569839,0.52867 -0.08265,0.19892 -0.149398,0.6468 -0.09639,0.6468 0.01221,0 0.02221,-0.009 0.02221,-0.0209 z"
         style="fill:#004455;fill-opacity:1;stroke:#808080;stroke-width:0.02334813;stroke-miterlimit:4;stroke-dasharray:none;stroke-opacity:1" />
      <text
         xml:space="preserve"
         style="font-style:normal;font-variant:normal;font-weight:normal;font-stretch:normal;font-size:5.19257689px;line-height:1.25;font-family:'Bauhaus 93';-inkscape-font-specification:'Bauhaus 93, ';letter-spacing:0px;word-spacing:0px;fill:url(#linearGradient2334);fill-opacity:1;stroke:url(#linearGradient2358);stroke-width:0.12981442"
         x="41.216793"
         y="125.66336"
         id="text5043"
         transform="scale(0.95748133,1.0444068)"><tspan
           sodipodi:role="line"
           id="tspan5041"
           x="41.216793"
           y="125.66336"
           style="font-style:normal;font-variant:normal;font-weight:normal;font-stretch:normal;font-size:4.70943689px;font-family:'Century Gothic';-inkscape-font-specification:'Century Gothic';fill:url(#linearGradient2334);fill-opacity:1;stroke-width:0.12981442;paint-order:fill markers stroke;stroke:#808080;stroke-opacity:1">SurveyingPointCode</tspan></text>
    </g>
    <flowRoot
       xml:space="preserve"
       id="flowRoot4576"
       style="font-style:normal;font-weight:normal;font-size:40px;line-height:1.25;font-family:sans-serif;letter-spacing:0px;word-spacing:0px;writing-mode:vertical-lr;fill:#000000;fill-opacity:1;stroke:none"
       transform="matrix(0.26458333,0,0,0.26458333,48.433999,115.00153)"><flowRegion
         id="flowRegion4578"><rect
           id="rect4580"
           width="119.198"
           height="41.416256"
           x="136.37059"
           y="-66.495956" /></flowRegion><flowPara
         id="flowPara4582" /></flowRoot>  </g>
</svg>
