<?xml version="1.0" encoding="UTF-8" standalone="no"?>
<!-- Created with Inkscape (http://www.inkscape.org/) -->

<svg
   xmlns:dc="http://purl.org/dc/elements/1.1/"
   xmlns:cc="http://creativecommons.org/ns#"
   xmlns:rdf="http://www.w3.org/1999/02/22-rdf-syntax-ns#"
   xmlns:svg="http://www.w3.org/2000/svg"
   xmlns="http://www.w3.org/2000/svg"
   xmlns:sodipodi="http://sodipodi.sourceforge.net/DTD/sodipodi-0.dtd"
   xmlns:inkscape="http://www.inkscape.org/namespaces/inkscape"
   width="2.6615942in"
   height="0.48779213in"
   viewBox="0 0 67.604491 12.38992"
   version="1.1"
   id="svg4566"
   inkscape:version="0.92.3 (2405546, 2018-03-11)"
   sodipodi:docname="logo_header.svg">
  <defs
     id="defs4560" />
  <sodipodi:namedview
     id="base"
     pagecolor="#ffffff"
     bordercolor="#666666"
     borderopacity="1.0"
     inkscape:pageopacity="0.0"
     inkscape:pageshadow="2"
     inkscape:zoom="2"
     inkscape:cx="300.95071"
     inkscape:cy="-24.043485"
     inkscape:document-units="mm"
     inkscape:current-layer="g908"
     showgrid="false"
     inkscape:window-width="1920"
     inkscape:window-height="1012"
     inkscape:window-x="0"
     inkscape:window-y="0"
     inkscape:window-maximized="1"
     units="in"
     width="5in"
     fit-margin-top="0"
     fit-margin-left="0"
     fit-margin-right="0"
     fit-margin-bottom="0" />
  <metadata
     id="metadata4563">
    <rdf:RDF>
      <cc:Work
         rdf:about="">
        <dc:format>image/svg+xml</dc:format>
        <dc:type
           rdf:resource="http://purl.org/dc/dcmitype/StillImage" />
        <dc:title></dc:title>
      </cc:Work>
    </rdf:RDF>
  </metadata>
  <g
     inkscape:label="Capa 1"
     inkscape:groupmode="layer"
     id="layer1"
     transform="translate(54.008015,-204.62443)">
    <g
       id="g846">
      <g
         id="g894">
        <g
           id="g873">
          <g
             id="g853" />
          <g
             id="g908">
            <g
               id="g876"
               transform="translate(0,1.0583333)">
              <g
                 id="g1635"
                 transform="matrix(0.04776468,0,0,0.04858019,-41.69524,202.02472)">
                <path
                   d="m -88.910575,282.39805 -59.266305,-90.31058 c -0.5209,-0.79512 -1.40835,-1.2733 -2.35919,-1.2733 h -45.15529 c -0.94947,0 -1.83692,0.47818 -2.35919,1.2733 l -59.26631,90.31058 c -0.56913,0.86678 -0.61736,1.97747 -0.12403,2.88973 0.49196,0.91363 1.44693,1.48138 2.48321,1.48138 h 163.687915 c 1.03766,0 1.99126,-0.56775 2.48459,-1.48138 0.49334,-0.91226 0.44511,-2.02295 -0.1254,-2.88973 z M -194.16726,196.45858 h 2.72988 l -44.32847,84.66617 h -13.9622 z m 23.87575,84.66617 v -11.28882 h -5.64441 v 11.28882 h -53.4469 l 44.30918,-84.66617 h 9.13772 v 2.82221 h 5.64441 v -2.82221 h 9.13082 l 44.30781,84.66617 z m 59.83131,0 -44.30918,-84.66617 h 2.72988 l 55.540115,84.66617 z m 0,0"
                   id="path889-5"
                   style="fill:#004455;fill-opacity:1;stroke-width:0.35277566"
                   inkscape:connector-curvature="0" />
                <path
                   d="m -175.93592,202.103 h 5.64441 v 5.64441 h -5.64441 z m 0,0"
                   id="path891"
                   style="fill:#004455;fill-opacity:1;stroke-width:0.35277566"
                   inkscape:connector-curvature="0" />
                <path
                   d="m -175.93592,213.39182 h 5.64441 v 8.46662 h -5.64441 z m 0,0"
                   id="path893"
                   style="fill:#004455;fill-opacity:1;stroke-width:0.35277566"
                   inkscape:connector-curvature="0" />
                <path
                   d="m -175.93592,227.50284 h 5.64441 v 11.28883 h -5.64441 z m 0,0"
                   id="path895"
                   style="fill:#004455;fill-opacity:1;stroke-width:0.35277566"
                   inkscape:connector-curvature="0" />
                <path
                   d="m -175.93592,247.25828 h 5.64441 v 14.11103 h -5.64441 z m 0,0"
                   id="path897"
                   style="fill:#004455;fill-opacity:1;stroke-width:0.35277566"
                   inkscape:connector-curvature="0" />
              </g>
              <g
                 id="g3772"
                 transform="matrix(0.33045297,0,0,0.28642429,-55.44439,203.56614)">
                <path
                   d="m 16.603,17.908 c -3.131,0 -5.679,-2.548 -5.679,-5.68 0,-3.132 2.547,-5.68 5.679,-5.68 3.132,0 5.679,2.548 5.679,5.68 0,3.132 -2.548,5.68 -5.679,5.68 z m 0,-10.359 c -2.58,0 -4.679,2.099 -4.679,4.68 0,2.581 2.099,4.68 4.679,4.68 2.58,0 4.679,-2.099 4.679,-4.68 0,-2.581 -2.099,-4.68 -4.679,-4.68 z"
                   id="path3766"
                   inkscape:connector-curvature="0"
                   style="fill:#004455;fill-opacity:1" />
              </g>
              <path
                 d="m -49.957881,213.07685 c -0.04891,0 -0.09517,-0.0186 -0.126563,-0.0513 -0.159939,-0.16527 -3.913885,-4.07153 -3.913885,-5.95677 0,-1.93136 1.812534,-3.50268 4.040448,-3.50268 2.227914,0 4.040449,1.57132 4.040449,3.50268 0,1.88553 -3.753946,5.7915 -3.913555,5.95705 -0.03172,0.0324 -0.07832,0.051 -0.126894,0.051 z m 0,-9.22429 c -2.045834,0 -3.709995,1.44272 -3.709995,3.21626 0,1.59567 3.045454,4.93079 3.709995,5.63912 0.664211,-0.70861 3.709996,-4.04374 3.709996,-5.63912 -3.19e-4,-1.77354 -1.664492,-3.21626 -3.709996,-3.21626 z"
                 id="path3768"
                 inkscape:connector-curvature="0"
                 style="fill:#006680;fill-opacity:1;stroke-width:0.30765203" />
            </g>
            <g
               aria-label="point"
               transform="scale(1.0373878,0.96395967)"
               style="font-style:normal;font-variant:normal;font-weight:normal;font-stretch:normal;font-size:10.77014446px;line-height:1.25;font-family:'Century Gothic', arial;-inkscape-font-specification:'Century Gothic, arial, Normal';font-variant-ligatures:normal;font-variant-caps:normal;font-variant-numeric:normal;font-feature-settings:normal;text-align:start;letter-spacing:0px;word-spacing:0px;writing-mode:lr-tb;text-anchor:start;fill:#006680;fill-opacity:1;stroke:none;stroke-width:0.05609514"
               id="text3976">
              <path
                 d="m -16.389211,219.08649 q 0,2.97651 -2.093026,2.97651 -1.314715,0 -1.766977,-0.98866 h -0.02629 q 0.02103,0.0421 0.02103,0.894 v 2.2245 h -0.946595 v -6.76289 q 0,-0.87823 -0.03155,-1.16221 h 0.915042 q 0.0053,0.021 0.01578,0.15251 0.01052,0.12621 0.02104,0.39441 0.01578,0.2682 0.01578,0.36812 h 0.02104 q 0.252425,-0.52589 0.667875,-0.76779 0.41545,-0.24717 1.093843,-0.24717 1.051772,0 1.572399,0.70469 0.520627,0.70468 0.520627,2.21398 z m -0.993925,0.021 q 0,-1.1885 -0.32079,-1.69861 -0.32079,-0.51011 -1.020219,-0.51011 -0.562698,0 -0.883488,0.23665 -0.315532,0.23665 -0.483815,0.7415 -0.163025,0.49959 -0.163025,1.3042 0,1.12013 0.357603,1.65128 0.357602,0.53114 1.162208,0.53114 0.704687,0 1.025477,-0.51536 0.326049,-0.52063 0.326049,-1.74069 z"
                 style="fill:#006680;fill-opacity:1;stroke-width:0.05609514"
                 id="path913"
                 inkscape:connector-curvature="0" />
              <path
                 d="m -10.394111,219.10752 q 0,1.49352 -0.657358,2.2245 -0.657357,0.73098 -1.908966,0.73098 -1.246349,0 -1.882671,-0.75727 -0.636322,-0.76254 -0.636322,-2.19821 0,-2.94496 2.550547,-2.94496 1.304197,0 1.919483,0.72047 0.615287,0.7152 0.615287,2.22449 z m -0.993925,0 q 0,-1.17798 -0.352343,-1.70913 -0.347085,-0.5364 -1.172726,-0.5364 -0.8309,0 -1.204279,0.54692 -0.36812,0.54166 -0.36812,1.69861 0,1.1254 0.362861,1.69336 0.368121,0.56269 1.151691,0.56269 0.851935,0 1.214796,-0.54692 0.36812,-0.54692 0.36812,-1.70913 z"
                 style="fill:#006680;fill-opacity:1;stroke-width:0.05609514"
                 id="path915"
                 inkscape:connector-curvature="0" />
              <path
                 d="m -9.2161264,215.0582 v -0.90452 h 0.9465947 v 0.90452 z m 0,6.89962 v -5.69008 h 0.9465947 v 5.69008 z"
                 style="fill:#006680;fill-opacity:1;stroke-width:0.05609514"
                 id="path917"
                 inkscape:connector-curvature="0" />
              <path
                 d="m -3.1999912,221.95782 v -3.60757 q 0,-0.5627 -0.1104361,-0.87297 -0.110436,-0.31028 -0.3523436,-0.44701 -0.2419075,-0.13673 -0.709946,-0.13673 -0.6836517,0 -1.0780662,0.46804 -0.3944145,0.46804 -0.3944145,1.29894 v 3.2973 h -0.9465947 v -4.47528 q 0,-0.99393 -0.031553,-1.2148 h 0.8940062 q 0.00526,0.0263 0.010518,0.14199 0.00526,0.11569 0.010518,0.2682 0.010518,0.14725 0.021035,0.5627 h 0.015777 q 0.3260493,-0.58899 0.7520169,-0.8309 0.4312265,-0.24717 1.0675485,-0.24717 0.936077,0 1.3673035,0.46804 0.4364854,0.46278 0.4364854,1.53559 v 3.79163 z"
                 style="fill:#006680;fill-opacity:1;stroke-width:0.05609514"
                 id="path919"
                 inkscape:connector-curvature="0" />
              <path
                 d="m 1.3699588,221.91575 q -0.46803849,0.12622 -0.95711243,0.12622 -1.13591367,0 -1.13591367,-1.28842 v -3.7969 h -0.6573575 v -0.68891 h 0.69416951 l 0.27871956,-1.27265 h 0.63106315 v 1.27265 H 1.2752993 v 0.68891 H 0.22352742 v 3.5918 q 0,0.41019 0.13147149,0.57847 0.13673035,0.16303 0.46803851,0.16303 0.18931898,0 0.54692138,-0.0736 z"
                 style="fill:#006680;fill-opacity:1;stroke-width:0.05609514"
                 id="path921"
                 inkscape:connector-curvature="0" />
            </g>
            <g
               aria-label="Surveying"
               transform="scale(0.89155055,1.1216414)"
               style="font-style:normal;font-variant:normal;font-weight:normal;font-stretch:normal;font-size:6.40916824px;line-height:1.25;font-family:'Bauhaus 93';-inkscape-font-specification:'Bauhaus 93, ';letter-spacing:0px;word-spacing:0px;fill:#000000;fill-opacity:1;stroke:none;stroke-width:0.16022922"
               id="text5043">
              <path
                 d="m -47.60838,188.59201 q 0,0.55347 -0.434259,0.85716 -0.431421,0.3037 -1.217629,0.3037 -1.461723,0 -1.694463,-1.01611 l 0.525085,-0.10502 q 0.09082,0.36047 0.386008,0.53077 0.295183,0.16746 0.803238,0.16746 0.525085,0 0.808914,-0.17882 0.286668,-0.18165 0.286668,-0.53076 0,-0.19584 -0.09083,-0.31789 -0.08799,-0.12204 -0.24977,-0.20152 -0.161783,-0.0795 -0.386009,-0.1334 -0.224225,-0.0539 -0.496701,-0.11637 -0.473996,-0.10501 -0.720928,-0.21003 -0.244093,-0.10502 -0.386008,-0.23274 -0.141915,-0.13056 -0.218549,-0.3037 -0.0738,-0.17313 -0.0738,-0.39736 0,-0.51373 0.391685,-0.79189 0.394524,-0.27815 1.126804,-0.27815 0.681191,0 1.041655,0.21004 0.360464,0.20719 0.505217,0.70957 l -0.5336,0.0937 q -0.08799,-0.31789 -0.334919,-0.4598 -0.246932,-0.14475 -0.68403,-0.14475 -0.479672,0 -0.73228,0.15894 -0.252608,0.15895 -0.252608,0.474 0,0.18449 0.0965,0.30653 0.09934,0.11921 0.283829,0.20436 0.18449,0.0823 0.735119,0.20436 0.184489,0.0426 0.36614,0.088 0.18449,0.0426 0.351949,0.10502 0.16746,0.0596 0.312213,0.14192 0.147591,0.0823 0.255446,0.20152 0.107856,0.1192 0.16746,0.28099 0.06244,0.16178 0.06244,0.38033 z"
                 style="font-style:normal;font-variant:normal;font-weight:normal;font-stretch:normal;font-size:5.8128314px;font-family:'Century Gothic', arial;fill:#004455;fill-opacity:1;stroke-width:0.16022922"
                 id="path894"
                 inkscape:connector-curvature="0" />
              <path
                 d="m -46.444678,186.62507 v 1.94707 q 0,0.3037 0.0596,0.47116 0.0596,0.16746 0.190166,0.24125 0.130562,0.0738 0.38317,0.0738 0.368979,0 0.581851,-0.25261 0.212872,-0.25261 0.212872,-0.70106 v -1.77961 h 0.510894 v 2.41539 q 0,0.53644 0.01703,0.65565 h -0.48251 q -0.0028,-0.0142 -0.0057,-0.0766 -0.0028,-0.0624 -0.0085,-0.14191 -0.0028,-0.0823 -0.0085,-0.30654 h -0.0085 q -0.175975,0.31789 -0.408715,0.45129 -0.229902,0.13056 -0.573336,0.13056 -0.505217,0 -0.740795,-0.24977 -0.232741,-0.25261 -0.232741,-0.83162 v -2.04641 z"
                 style="font-style:normal;font-variant:normal;font-weight:normal;font-stretch:normal;font-size:5.8128314px;font-family:'Century Gothic', arial;fill:#004455;fill-opacity:1;stroke-width:0.16022922"
                 id="path896"
                 inkscape:connector-curvature="0" />
              <path
                 d="m -43.697207,189.69611 v -2.35579 q 0,-0.32357 -0.01703,-0.71525 h 0.482511 q 0.02271,0.52225 0.02271,0.62726 h 0.01135 q 0.122047,-0.39452 0.280992,-0.53927 0.158944,-0.14476 0.448451,-0.14476 0.102178,0 0.207195,0.0284 v 0.46832 q -0.102178,-0.0284 -0.272476,-0.0284 -0.31789,0 -0.485349,0.27532 -0.167459,0.27247 -0.167459,0.78337 v 1.6008 z"
                 style="font-style:normal;font-variant:normal;font-weight:normal;font-stretch:normal;font-size:5.8128314px;font-family:'Century Gothic', arial;fill:#004455;fill-opacity:1;stroke-width:0.16022922"
                 id="path898"
                 inkscape:connector-curvature="0" />
              <path
                 d="m -40.418974,189.69611 h -0.604557 l -1.115451,-3.07104 h 0.544953 l 0.675515,1.99816 q 0.0369,0.11353 0.195842,0.67268 l 0.09934,-0.33208 0.110693,-0.33492 0.698221,-2.00384 h 0.542115 z"
                 style="font-style:normal;font-variant:normal;font-weight:normal;font-stretch:normal;font-size:5.8128314px;font-family:'Century Gothic', arial;fill:#004455;fill-opacity:1;stroke-width:0.16022922"
                 id="path900"
                 inkscape:connector-curvature="0" />
              <path
                 d="m -38.469065,188.26844 q 0,0.52793 0.218549,0.81459 0.218549,0.28667 0.638617,0.28667 0.33208,0 0.530761,-0.1334 0.201519,-0.1334 0.272477,-0.33776 l 0.44845,0.12773 q -0.275314,0.7266 -1.251688,0.7266 -0.681191,0 -1.038817,-0.40587 -0.354787,-0.40588 -0.354787,-1.20628 0,-0.76066 0.354787,-1.16654 0.357626,-0.40588 1.018949,-0.40588 1.353867,0 1.353867,1.63202 v 0.0681 z m 1.663242,-0.39168 q -0.04258,-0.48535 -0.246932,-0.70674 -0.204357,-0.22422 -0.587527,-0.22422 -0.371817,0 -0.590366,0.24977 -0.215711,0.24693 -0.23274,0.68119 z"
                 style="font-style:normal;font-variant:normal;font-weight:normal;font-stretch:normal;font-size:5.8128314px;font-family:'Century Gothic', arial;fill:#004455;fill-opacity:1;stroke-width:0.16022922"
                 id="path902"
                 inkscape:connector-curvature="0" />
              <path
                 d="m -35.474661,190.90238 q -0.210034,0 -0.351949,-0.0312 v -0.38317 q 0.107855,0.017 0.238417,0.017 0.476834,0 0.754987,-0.70106 l 0.04825,-0.12205 -1.21763,-3.05684 h 0.544953 l 0.647132,1.6973 q 0.01419,0.0397 0.03406,0.0965 0.01987,0.0539 0.127723,0.36898 0.107855,0.31505 0.11637,0.35195 l 0.198681,-0.55914 0.672676,-1.95559 h 0.539276 l -1.180731,3.07104 q -0.190166,0.49102 -0.354787,0.72944 -0.164621,0.24125 -0.36614,0.35762 -0.198681,0.11921 -0.451289,0.11921 z"
                 style="font-style:normal;font-variant:normal;font-weight:normal;font-stretch:normal;font-size:5.8128314px;font-family:'Century Gothic', arial;fill:#004455;fill-opacity:1;stroke-width:0.16022922"
                 id="path904"
                 inkscape:connector-curvature="0" />
              <path
                 d="m -32.721514,185.97226 v -0.48819 h 0.510893 v 0.48819 z m 0,3.72385 v -3.07104 h 0.510893 v 3.07104 z"
                 style="font-style:normal;font-variant:normal;font-weight:normal;font-stretch:normal;font-size:5.8128314px;font-family:'Century Gothic', arial;fill:#004455;fill-opacity:1;stroke-width:0.16022922"
                 id="path906"
                 inkscape:connector-curvature="0" />
              <path
                 d="m -29.474503,189.69611 v -1.94708 q 0,-0.30369 -0.0596,-0.47115 -0.0596,-0.16746 -0.190166,-0.24126 -0.130561,-0.0738 -0.38317,-0.0738 -0.368978,0 -0.581851,0.2526 -0.212872,0.25261 -0.212872,0.70106 v 1.77962 h -0.510893 v -2.41539 q 0,-0.53644 -0.01703,-0.65565 h 0.48251 q 0.0028,0.0142 0.0057,0.0766 0.0028,0.0625 0.0057,0.14476 0.0057,0.0795 0.01135,0.30369 h 0.0085 q 0.175974,-0.31789 0.405876,-0.44845 0.23274,-0.1334 0.576174,-0.1334 0.505217,0 0.737957,0.25261 0.235579,0.24977 0.235579,0.82878 v 2.04642 z"
                 style="font-style:normal;font-variant:normal;font-weight:normal;font-stretch:normal;font-size:5.8128314px;font-family:'Century Gothic', arial;fill:#004455;fill-opacity:1;stroke-width:0.16022922"
                 id="path908"
                 inkscape:connector-curvature="0" />
              <path
                 d="m -27.025052,190.90238 q -0.502379,0 -0.8004,-0.19868 -0.298021,-0.19584 -0.38317,-0.55914 l 0.513732,-0.0738 q 0.05109,0.21287 0.224225,0.32641 0.175975,0.11637 0.459804,0.11637 0.763502,0 0.763502,-0.89407 v -0.49386 h -0.0057 q -0.144754,0.29518 -0.397362,0.44561 -0.252608,0.14759 -0.590366,0.14759 -0.564821,0 -0.831621,-0.37465 -0.263961,-0.37466 -0.263961,-1.1779 0,-0.81459 0.28383,-1.2006 0.286668,-0.38884 0.868518,-0.38884 0.326404,0 0.564821,0.15043 0.241256,0.14759 0.371817,0.4229 h 0.0057 q 0,-0.0851 0.01135,-0.29518 0.01135,-0.21003 0.02271,-0.2299 h 0.485349 q -0.01703,0.15327 -0.01703,0.63578 v 2.34727 q 0,1.29426 -1.285748,1.29426 z m 0.777693,-2.74179 q 0,-0.37466 -0.102178,-0.6443 -0.102179,-0.27247 -0.289507,-0.41439 -0.184489,-0.14475 -0.420068,-0.14475 -0.391685,0 -0.570497,0.28383 -0.178813,0.28383 -0.178813,0.91961 0,0.6301 0.16746,0.90541 0.167459,0.27532 0.573335,0.27532 0.241256,0 0.428583,-0.14192 0.187328,-0.14191 0.289507,-0.40587 0.102178,-0.2668 0.102178,-0.63294 z"
                 style="font-style:normal;font-variant:normal;font-weight:normal;font-stretch:normal;font-size:5.8128314px;font-family:'Century Gothic', arial;fill:#004455;fill-opacity:1;stroke-width:0.16022922"
                 id="path910"
                 inkscape:connector-curvature="0" />
            </g>
            <g
               aria-label="Code"
               transform="scale(0.87835758,1.1384885)"
               style="font-style:normal;font-variant:normal;font-weight:normal;font-stretch:normal;font-size:7.09282398px;line-height:1.25;font-family:'Bauhaus 93';-inkscape-font-specification:'Bauhaus 93, ';letter-spacing:0px;word-spacing:0px;fill:#000000;fill-opacity:1;stroke:none;stroke-width:0.17732055"
               id="text5043-3-2">
              <path
                 d="m 4.3279069,183.43892 q -0.6496899,0 -1.0106288,0.41924 -0.3609388,0.41647 -0.3609388,1.1439 0,0.7191 0.3748211,1.15778 0.3775976,0.43591 1.0189582,0.43591 0.82183,0 1.2355215,-0.8135 l 0.4331266,0.21656 q -0.2415514,0.50531 -0.6802309,0.76908 -0.4359031,0.26376 -1.0134053,0.26376 -0.5913845,0 -1.0245111,-0.24433 -0.4303502,-0.2471 -0.6580193,-0.70244 -0.2248927,-0.45812 -0.2248927,-1.08282 0,-0.93566 0.5053144,-1.46597 0.5053144,-0.5303 1.3993322,-0.5303 0.6247019,0 1.0439463,0.24433 0.4192444,0.24433 0.6163725,0.72465 l -0.5025379,0.16659 q -0.1360462,-0.3415 -0.4386796,-0.52197 -0.2998569,-0.18047 -0.7135484,-0.18047 z"
                 style="font-style:normal;font-variant:normal;font-weight:normal;font-stretch:normal;font-size:5.68617535px;font-family:'Century Gothic', arial;fill:#004455;fill-opacity:1;stroke-width:0.17732055"
                 id="path924"
                 inkscape:connector-curvature="0" />
              <path
                 d="m 9.1617111,185.47128 q 0,0.78852 -0.3470566,1.17444 -0.3470566,0.38593 -1.0078524,0.38593 -0.6580193,0 -0.9939701,-0.39981 -0.3359508,-0.40259 -0.3359508,-1.16056 0,-1.55481 1.3465796,-1.55481 0.6885603,0 1.0134053,0.38037 0.324845,0.3776 0.324845,1.17444 z m -0.5247496,0 q 0,-0.62192 -0.1860224,-0.90234 -0.1832458,-0.2832 -0.6191489,-0.2832 -0.4386796,0 -0.6358077,0.28875 -0.1943517,0.28597 -0.1943517,0.89679 0,0.59416 0.1915752,0.89402 0.1943517,0.29708 0.6080432,0.29708 0.4497853,0 0.6413606,-0.28875 0.1943517,-0.28875 0.1943517,-0.90235 z"
                 style="font-style:normal;font-variant:normal;font-weight:normal;font-stretch:normal;font-size:5.68617535px;font-family:'Century Gothic', arial;fill:#004455;fill-opacity:1;stroke-width:0.17732055"
                 id="path926"
                 inkscape:connector-curvature="0" />
              <path
                 d="m 11.68273,186.49302 q -0.138822,0.28875 -0.369268,0.41369 -0.227669,0.12494 -0.566396,0.12494 -0.569173,0 -0.838489,-0.38315 -0.2665394,-0.38315 -0.2665394,-1.16056 0,-1.57147 1.1050284,-1.57147 0.341503,0 0.569173,0.12494 0.227669,0.12494 0.366491,0.39703 h 0.0056 l -0.0056,-0.33595 v -1.24663 h 0.499762 v 3.50111 q 0,0.46922 0.01666,0.61915 h -0.47755 q -0.0083,-0.0444 -0.01943,-0.20546 -0.0083,-0.16103 -0.0083,-0.27764 z m -1.515943,-1.02174 q 0,0.63026 0.166587,0.90235 0.166587,0.27209 0.541409,0.27209 0.424797,0 0.616372,-0.2943 0.191575,-0.29431 0.191575,-0.91345 0,-0.59694 -0.191575,-0.87459 -0.191575,-0.27764 -0.610819,-0.27764 -0.377598,0 -0.546962,0.28042 -0.166587,0.27764 -0.166587,0.90512 z"
                 style="font-style:normal;font-variant:normal;font-weight:normal;font-stretch:normal;font-size:5.68617535px;font-family:'Century Gothic', arial;fill:#004455;fill-opacity:1;stroke-width:0.17732055"
                 id="path928"
                 inkscape:connector-curvature="0" />
              <path
                 d="m 13.33472,185.57956 q 0,0.51642 0.213787,0.79685 0.213787,0.28042 0.624702,0.28042 0.324845,0 0.519196,-0.1305 0.197129,-0.13049 0.26654,-0.33039 l 0.438679,0.12494 q -0.269316,0.71077 -1.224415,0.71077 -0.666349,0 -1.016182,-0.39703 -0.347057,-0.39704 -0.347057,-1.18 0,-0.74409 0.347057,-1.14112 0.349833,-0.39703 0.996747,-0.39703 1.324368,0 1.324368,1.59646 v 0.0666 z m 1.627001,-0.38315 q -0.04165,-0.47477 -0.241551,-0.69133 -0.199905,-0.21934 -0.574726,-0.21934 -0.363715,0 -0.577502,0.24433 -0.21101,0.24155 -0.227669,0.66634 z"
                 style="font-style:normal;font-variant:normal;font-weight:normal;font-stretch:normal;font-size:5.68617535px;font-family:'Century Gothic', arial;fill:#004455;fill-opacity:1;stroke-width:0.17732055"
                 id="path930"
                 inkscape:connector-curvature="0" />
            </g>
            <path
               style="fill:none;stroke:#808080;stroke-width:0.52941686;stroke-linecap:butt;stroke-linejoin:miter;stroke-miterlimit:4;stroke-dasharray:none;stroke-opacity:1"
               d="m -45.428675,215.19587 22.48195,0.0276"
               id="path833"
               inkscape:connector-curvature="0"
               sodipodi:nodetypes="cc" />
            <path
               style="fill:none;stroke:#808080;stroke-width:0.50727385;stroke-linecap:butt;stroke-linejoin:miter;stroke-miterlimit:4;stroke-dasharray:none;stroke-opacity:1"
               d="m 2.1246234,215.14255 11.4707526,0.0497"
               id="path833-7"
               inkscape:connector-curvature="0"
               sodipodi:nodetypes="cc" />
          </g>
        </g>
      </g>
    </g>
  </g>
</svg>
