<?xml version="1.0" encoding="UTF-8" standalone="no"?>
<!-- Created with Inkscape (http://www.inkscape.org/) -->

<svg
   xmlns:dc="http://purl.org/dc/elements/1.1/"
   xmlns:cc="http://creativecommons.org/ns#"
   xmlns:rdf="http://www.w3.org/1999/02/22-rdf-syntax-ns#"
   xmlns:svg="http://www.w3.org/2000/svg"
   xmlns="http://www.w3.org/2000/svg"
   xmlns:sodipodi="http://sodipodi.sourceforge.net/DTD/sodipodi-0.dtd"
   xmlns:inkscape="http://www.inkscape.org/namespaces/inkscape"
   width="3.7852056in"
   height="2.8208458in"
   viewBox="0 0 96.144222 71.649484"
   version="1.1"
   id="svg4566"
   inkscape:version="0.92.3 (2405546, 2018-03-11)"
   sodipodi:docname="logo_background.svg">
  <defs
     id="defs4560" />
  <sodipodi:namedview
     id="base"
     pagecolor="#ffffff"
     bordercolor="#666666"
     borderopacity="1.0"
     inkscape:pageopacity="0.0"
     inkscape:pageshadow="2"
     inkscape:zoom="2"
     inkscape:cx="198.72176"
     inkscape:cy="132.95655"
     inkscape:document-units="mm"
     inkscape:current-layer="g908"
     showgrid="false"
     inkscape:window-width="1920"
     inkscape:window-height="1012"
     inkscape:window-x="0"
     inkscape:window-y="0"
     inkscape:window-maximized="1"
     units="in"
     width="5in"
     inkscape:snap-to-guides="true"
     fit-margin-top="0"
     fit-margin-left="0"
     fit-margin-right="0"
     fit-margin-bottom="0" />
  <metadata
     id="metadata4563">
    <rdf:RDF>
      <cc:Work
         rdf:about="">
        <dc:format>image/svg+xml</dc:format>
        <dc:type
           rdf:resource="http://purl.org/dc/dcmitype/StillImage" />
        <dc:title></dc:title>
      </cc:Work>
    </rdf:RDF>
  </metadata>
  <g
     inkscape:label="Capa 1"
     inkscape:groupmode="layer"
     id="layer1"
     transform="translate(-12.604926,-192.19613)">
    <g
       id="g846">
      <g
         id="g894">
        <g
           id="g873">
          <g
             transform="matrix(0.20943483,0,0,0.21301064,85.837367,202.76073)"
             id="g1635">
            <path
               inkscape:connector-curvature="0"
               style="fill:#004455;fill-opacity:1;stroke-width:0.35277566"
               id="path889-5"
               d="m -88.910575,282.39805 -59.266305,-90.31058 c -0.5209,-0.79512 -1.40835,-1.2733 -2.35919,-1.2733 h -45.15529 c -0.94947,0 -1.83692,0.47818 -2.35919,1.2733 l -59.26631,90.31058 c -0.56913,0.86678 -0.61736,1.97747 -0.12403,2.88973 0.49196,0.91363 1.44693,1.48138 2.48321,1.48138 h 163.687915 c 1.03766,0 1.99126,-0.56775 2.48459,-1.48138 0.49334,-0.91226 0.44511,-2.02295 -0.1254,-2.88973 z M -194.16726,196.45858 h 2.72988 l -44.32847,84.66617 h -13.9622 z m 23.87575,84.66617 v -11.28882 h -5.64441 v 11.28882 h -53.4469 l 44.30918,-84.66617 h 9.13772 v 2.82221 h 5.64441 v -2.82221 h 9.13082 l 44.30781,84.66617 z m 59.83131,0 -44.30918,-84.66617 h 2.72988 l 55.540115,84.66617 z m 0,0" />
            <path
               inkscape:connector-curvature="0"
               style="fill:#004455;fill-opacity:1;stroke-width:0.35277566"
               id="path891"
               d="m -175.93592,202.103 h 5.64441 v 5.64441 h -5.64441 z m 0,0" />
            <path
               inkscape:connector-curvature="0"
               style="fill:#004455;fill-opacity:1;stroke-width:0.35277566"
               id="path893"
               d="m -175.93592,213.39182 h 5.64441 v 8.46662 h -5.64441 z m 0,0" />
            <path
               inkscape:connector-curvature="0"
               style="fill:#004455;fill-opacity:1;stroke-width:0.35277566"
               id="path895"
               d="m -175.93592,227.50284 h 5.64441 v 11.28883 h -5.64441 z m 0,0" />
            <path
               inkscape:connector-curvature="0"
               style="fill:#004455;fill-opacity:1;stroke-width:0.35277566"
               id="path897"
               d="m -175.93592,247.25828 h 5.64441 v 14.11103 h -5.64441 z m 0,0" />
          </g>
          <g
             transform="matrix(1.4489445,0,0,1.2558909,25.551163,209.5194)"
             id="g3772">
            <path
               style="fill:#004455;fill-opacity:1"
               inkscape:connector-curvature="0"
               id="path3766"
               d="m 16.603,17.908 c -3.131,0 -5.679,-2.548 -5.679,-5.68 0,-3.132 2.547,-5.68 5.679,-5.68 3.132,0 5.679,2.548 5.679,5.68 0,3.132 -2.548,5.68 -5.679,5.68 z m 0,-10.359 c -2.58,0 -4.679,2.099 -4.679,4.68 0,2.581 2.099,4.68 4.679,4.68 2.58,0 4.679,-2.099 4.679,-4.68 0,-2.581 -2.099,-4.68 -4.679,-4.68 z" />
          </g>
          <g
             id="g853" />
          <g
             id="g908">
            <path
               style="fill:#006680;fill-opacity:1;stroke-width:1.34896863"
               inkscape:connector-curvature="0"
               id="path3768"
               d="m 49.607988,251.22126 c -0.214444,0 -0.417296,-0.0816 -0.554946,-0.22481 -0.701289,-0.72465 -17.161299,-17.85249 -17.161299,-26.11876 0,-8.46847 7.947461,-15.35829 17.716245,-15.35829 9.768784,0 17.716244,6.88982 17.716244,15.35829 0,8.26753 -16.460009,25.39411 -17.159849,26.12002 -0.139099,0.14191 -0.3434,0.22355 -0.556395,0.22355 z m 0,-40.44597 c -8.970416,0 -16.2673,6.32592 -16.2673,14.1024 0,6.99657 13.353472,21.62016 16.2673,24.72598 2.912378,-3.10707 16.2673,-17.73067 16.2673,-24.72598 -0.0014,-7.77648 -7.298334,-14.1024 -16.2673,-14.1024 z" />
            <g
               aria-label="p   int"
               transform="scale(1.0373878,0.96395969)"
               style="font-style:normal;font-variant:normal;font-weight:normal;font-stretch:normal;font-size:39.03882217px;line-height:1.25;font-family:'Century Gothic', arial;letter-spacing:0px;word-spacing:0px;fill:#000000;fill-opacity:1;stroke:none;stroke-width:0.20332727"
               id="text3976">
              <path
                 d="m 29.706745,232.17068 q 0,10.78905 -7.586647,10.78905 -4.765481,0 -6.404806,-3.58364 h -0.09531 q 0.07625,0.15249 0.07625,3.24053 v 8.06319 h -3.431147 v -24.51364 q 0,-3.18334 -0.114371,-4.21268 h 3.316775 q 0.01906,0.0763 0.05719,0.55279 0.03812,0.45749 0.07625,1.42965 0.05719,0.97216 0.05719,1.33433 h 0.07625 q 0.914972,-1.90619 2.420864,-2.78304 1.505892,-0.89591 3.96488,-0.89591 3.812385,0 5.699516,2.5543 1.887131,2.5543 1.887131,8.02507 z m -3.602704,0.0762 q 0,-4.308 -1.162778,-6.157 -1.162777,-1.84901 -3.698013,-1.84901 -2.039626,0 -3.202403,0.85779 -1.143716,0.85778 -1.753698,2.68773 -0.590919,1.81088 -0.590919,4.72735 0,4.06019 1.296211,5.98545 1.296211,1.92525 4.212685,1.92525 2.554298,0 3.717075,-1.86806 1.18184,-1.88714 1.18184,-6.3095 z"
                 style="font-style:normal;font-variant:normal;font-weight:normal;font-stretch:normal;font-size:39.03882217px;font-family:'Century Gothic', arial;fill:#006680;fill-opacity:1;stroke-width:0.20332727"
                 id="path875"
                 inkscape:connector-curvature="0" />
              <path
                 d="m 66.458134,217.56925 v -3.27866 h 3.431146 v 3.27866 z m 0,25.00924 v -20.625 h 3.431146 v 20.625 z"
                 style="font-style:normal;font-variant:normal;font-weight:normal;font-stretch:normal;font-size:39.03882217px;font-family:'Century Gothic', arial;fill:#006680;fill-opacity:1;stroke-width:0.20332727"
                 id="path877"
                 inkscape:connector-curvature="0" />
              <path
                 d="m 88.264976,242.57849 v -13.07648 q 0,-2.03963 -0.4003,-3.16428 -0.400301,-1.12465 -1.277149,-1.62026 -0.876849,-0.49561 -2.57336,-0.49561 -2.47805,0 -3.907695,1.69651 -1.429644,1.69651 -1.429644,4.70829 v 11.95183 h -3.431147 v -16.2217 q 0,-3.6027 -0.114371,-4.4033 h 3.240527 q 0.01906,0.0953 0.03812,0.51467 0.01906,0.41936 0.03812,0.97216 0.03812,0.53373 0.07625,2.03962 h 0.05719 q 1.18184,-2.13493 2.725855,-3.01178 1.563078,-0.89591 3.869571,-0.89591 3.393023,0 4.956101,1.69651 1.582139,1.67745 1.582139,5.56608 v 13.74365 z"
                 style="font-style:normal;font-variant:normal;font-weight:normal;font-stretch:normal;font-size:39.03882217px;font-family:'Century Gothic', arial;fill:#006680;fill-opacity:1;stroke-width:0.20332727"
                 id="path879"
                 inkscape:connector-curvature="0" />
              <path
                 d="m 104.82979,242.426 q -1.69651,0.45748 -3.46927,0.45748 -4.117373,0 -4.117373,-4.67017 V 224.4506 h -2.382741 v -2.49711 h 2.516174 l 1.010282,-4.61299 h 2.287428 v 4.61299 h 3.81239 v 2.49711 h -3.81239 v 13.0193 q 0,1.48683 0.47655,2.09681 0.49561,0.59092 1.69651,0.59092 0.68623,0 1.98244,-0.26687 z"
                 style="font-style:normal;font-variant:normal;font-weight:normal;font-stretch:normal;font-size:39.03882217px;font-family:'Century Gothic', arial;fill:#006680;fill-opacity:1;stroke-width:0.20332727"
                 id="path881"
                 inkscape:connector-curvature="0" />
            </g>
            <g
               aria-label="Surveying"
               transform="scale(0.89155057,1.1216414)"
               style="font-style:normal;font-variant:normal;font-weight:normal;font-stretch:normal;font-size:15.73073196px;line-height:1.25;font-family:'Bauhaus 93';-inkscape-font-specification:'Bauhaus 93, ';letter-spacing:0px;word-spacing:0px;fill:#000000;fill-opacity:1;stroke:none;stroke-width:0.39326832"
               id="text5043">
              <path
                 d="m 22.351527,178.9807 q 0,1.35844 -1.065851,2.10384 -1.058884,0.7454 -2.988562,0.7454 -3.587668,0 -4.158908,-2.49395 l 1.288774,-0.25776 q 0.222923,0.88473 0.947422,1.30271 0.7245,0.41101 1.971476,0.41101 1.288774,0 1.985409,-0.43888 0.703601,-0.44584 0.703601,-1.3027 0,-0.48068 -0.222923,-0.78023 -0.215957,-0.29956 -0.613039,-0.49461 -0.397082,-0.19506 -0.947423,-0.32742 -0.550341,-0.13236 -1.21911,-0.28562 -1.16338,-0.25776 -1.769452,-0.51551 -0.599106,-0.25776 -0.947423,-0.57124 -0.348317,-0.32045 -0.536409,-0.7454 -0.181125,-0.42495 -0.181125,-0.97529 0,-1.26091 0.961356,-1.94361 0.968322,-0.6827 2.765639,-0.6827 1.671923,0 2.556649,0.51551 0.884726,0.50854 1.24001,1.74158 l -1.309673,0.22989 q -0.215957,-0.78023 -0.822029,-1.12854 -0.606072,-0.35529 -1.678889,-0.35529 -1.177313,0 -1.797318,0.39012 -0.620004,0.39011 -0.620004,1.16338 0,0.45281 0.236855,0.75236 0.243822,0.29259 0.696635,0.50158 0.452812,0.20202 1.804283,0.50158 0.452813,0.10449 0.898659,0.21595 0.452812,0.1045 0.863827,0.25776 0.411014,0.14629 0.766298,0.34832 0.36225,0.20202 0.626971,0.49461 0.264721,0.29258 0.411014,0.68966 0.15326,0.39709 0.15326,0.93349 z"
                 style="font-style:normal;font-variant:normal;font-weight:normal;font-stretch:normal;font-size:14.26707554px;font-family:'Century Gothic', arial;fill:#004455;fill-opacity:1;stroke-width:0.39326832"
                 id="path856"
                 inkscape:connector-curvature="0" />
              <path
                 d="m 25.207729,174.15303 v 4.77891 q 0,0.7454 0.146293,1.15641 0.146293,0.41102 0.466745,0.59214 0.320452,0.18113 0.940457,0.18113 0.905625,0 1.4281,-0.62001 0.522476,-0.62 0.522476,-1.72068 v -4.3679 h 1.253943 v 5.92836 q 0,1.31664 0.0418,1.60922 h -1.184279 q -0.007,-0.0348 -0.01393,-0.18809 -0.007,-0.15326 -0.0209,-0.34832 -0.007,-0.20202 -0.0209,-0.75236 h -0.0209 q -0.431913,0.78023 -1.003154,1.10765 -0.564274,0.32045 -1.407201,0.32045 -1.24001,0 -1.818217,-0.61304 -0.57124,-0.62 -0.57124,-2.04114 v -5.02273 z"
                 style="font-style:normal;font-variant:normal;font-weight:normal;font-stretch:normal;font-size:14.26707554px;font-family:'Century Gothic', arial;fill:#004455;fill-opacity:1;stroke-width:0.39326832"
                 id="path858"
                 inkscape:connector-curvature="0" />
              <path
                 d="m 31.95115,181.69061 v -5.78206 q 0,-0.79417 -0.0418,-1.75552 h 1.184279 q 0.05573,1.2818 0.05573,1.53956 h 0.02786 q 0.299553,-0.96832 0.689668,-1.32361 0.390116,-0.35528 1.100683,-0.35528 0.250788,0 0.508543,0.0697 v 1.14945 q -0.250788,-0.0697 -0.668769,-0.0697 -0.780231,0 -1.191245,0.67573 -0.411014,0.66877 -0.411014,1.92271 v 3.92902 z"
                 style="font-style:normal;font-variant:normal;font-weight:normal;font-stretch:normal;font-size:14.26707554px;font-family:'Century Gothic', arial;fill:#004455;fill-opacity:1;stroke-width:0.39326832"
                 id="path860"
                 inkscape:connector-curvature="0" />
              <path
                 d="m 39.997279,181.69061 h -1.483831 l -2.737774,-7.53758 h 1.337538 l 1.657991,4.9043 q 0.09056,0.27866 0.480677,1.65103 l 0.243823,-0.81506 0.271687,-0.82203 1.713721,-4.91824 h 1.330572 z"
                 style="font-style:normal;font-variant:normal;font-weight:normal;font-stretch:normal;font-size:14.26707554px;font-family:'Century Gothic', arial;fill:#004455;fill-opacity:1;stroke-width:0.39326832"
                 id="path862"
                 inkscape:connector-curvature="0" />
              <path
                 d="m 44.78316,178.18654 q 0,1.29574 0.536409,1.99934 0.536408,0.7036 1.567428,0.7036 0.815062,0 1.302706,-0.32742 0.494611,-0.32741 0.668769,-0.82899 l 1.100683,0.31349 q -0.675736,1.78338 -3.072158,1.78338 -1.671923,0 -2.549683,-0.99619 -0.870793,-0.99619 -0.870793,-2.96069 0,-1.86699 0.870793,-2.86317 0.87776,-0.99619 2.500918,-0.99619 3.322947,0 3.322947,4.00565 v 0.16719 z m 4.082279,-0.96135 q -0.104496,-1.19125 -0.606072,-1.73462 -0.501577,-0.55035 -1.442034,-0.55035 -0.912591,0 -1.449,0.61304 -0.529442,0.60607 -0.57124,1.67193 z"
                 style="font-style:normal;font-variant:normal;font-weight:normal;font-stretch:normal;font-size:14.26707554px;font-family:'Century Gothic', arial;fill:#004455;fill-opacity:1;stroke-width:0.39326832"
                 id="path864"
                 inkscape:connector-curvature="0" />
              <path
                 d="m 52.132652,184.65131 q -0.515509,0 -0.863827,-0.0766 v -0.94046 q 0.264721,0.0418 0.585173,0.0418 1.170346,0 1.853048,-1.72069 l 0.118428,-0.29955 -2.988562,-7.50275 h 1.337538 l 1.588327,4.16587 q 0.03483,0.0975 0.0836,0.23686 0.04877,0.13236 0.313486,0.90562 0.264721,0.77327 0.28562,0.86383 l 0.487644,-1.37237 1.651024,-4.79981 h 1.323606 l -2.898,7.53758 q -0.466745,1.20518 -0.870793,1.79035 -0.404048,0.59214 -0.898659,0.87776 -0.487644,0.29259 -1.107649,0.29259 z"
                 style="font-style:normal;font-variant:normal;font-weight:normal;font-stretch:normal;font-size:14.26707554px;font-family:'Century Gothic', arial;fill:#004455;fill-opacity:1;stroke-width:0.39326832"
                 id="path866"
                 inkscape:connector-curvature="0" />
              <path
                 d="m 58.890007,172.55077 v -1.19821 h 1.253942 v 1.19821 z m 0,9.13984 v -7.53758 h 1.253942 v 7.53758 z"
                 style="font-style:normal;font-variant:normal;font-weight:normal;font-stretch:normal;font-size:14.26707554px;font-family:'Century Gothic', arial;fill:#004455;fill-opacity:1;stroke-width:0.39326832"
                 id="path868"
                 inkscape:connector-curvature="0" />
              <path
                 d="m 66.859507,181.69061 v -4.77891 q 0,-0.7454 -0.146293,-1.15641 -0.146293,-0.41102 -0.466745,-0.59214 -0.320452,-0.18113 -0.940457,-0.18113 -0.905625,0 -1.428101,0.62001 -0.522475,0.62 -0.522475,1.72068 v 4.3679 h -1.253943 v -5.92836 q 0,-1.31664 -0.0418,-1.60922 h 1.184279 q 0.007,0.0348 0.01393,0.18809 0.007,0.15326 0.01393,0.35528 0.01393,0.19506 0.02787,0.7454 h 0.0209 q 0.431913,-0.78023 0.996187,-1.10068 0.571241,-0.32742 1.414168,-0.32742 1.24001,0 1.81125,0.62 0.578207,0.61304 0.578207,2.03418 v 5.02273 z"
                 style="font-style:normal;font-variant:normal;font-weight:normal;font-stretch:normal;font-size:14.26707554px;font-family:'Century Gothic', arial;fill:#004455;fill-opacity:1;stroke-width:0.39326832"
                 id="path870"
                 inkscape:connector-curvature="0" />
              <path
                 d="m 72.871465,184.65131 q -1.233043,0 -1.96451,-0.48764 -0.731466,-0.48068 -0.940456,-1.37237 l 1.260908,-0.18113 q 0.125394,0.52248 0.550341,0.80113 0.431914,0.28562 1.128548,0.28562 1.873947,0 1.873947,-2.1944 v -1.21214 h -0.01393 q -0.355284,0.7245 -0.975289,1.09371 -0.620004,0.36225 -1.449,0.36225 -1.386302,0 -2.041139,-0.91955 -0.64787,-0.91956 -0.64787,-2.89104 0,-1.99934 0.696635,-2.94676 0.703601,-0.95439 2.131701,-0.95439 0.80113,0 1.386303,0.36922 0.592139,0.36225 0.912591,1.03798 h 0.01393 q 0,-0.20899 0.02787,-0.7245 0.02787,-0.51551 0.05573,-0.56427 h 1.191245 q -0.0418,0.37618 -0.0418,1.56046 v 5.76117 q 0,3.17665 -3.155755,3.17665 z m 1.908778,-6.72949 q 0,-0.91956 -0.250788,-1.58136 -0.250788,-0.66877 -0.710567,-1.01709 -0.452813,-0.35528 -1.031019,-0.35528 -0.961356,0 -1.400236,0.69663 -0.43888,0.69664 -0.43888,2.2571 0,1.54653 0.411015,2.22226 0.411014,0.67574 1.407202,0.67574 0.592139,0 1.051918,-0.34832 0.459779,-0.34831 0.710567,-0.99619 0.250788,-0.65483 0.250788,-1.55349 z"
                 style="font-style:normal;font-variant:normal;font-weight:normal;font-stretch:normal;font-size:14.26707554px;font-family:'Century Gothic', arial;fill:#004455;fill-opacity:1;stroke-width:0.39326832"
                 id="path872"
                 inkscape:connector-curvature="0" />
            </g>
            <g
               aria-label="Code"
               transform="scale(0.87835759,1.1384885)"
               style="font-style:normal;font-variant:normal;font-weight:normal;font-stretch:normal;font-size:17.49494934px;line-height:1.25;font-family:'Bauhaus 93';-inkscape-font-specification:'Bauhaus 93, ';letter-spacing:0px;word-spacing:0px;fill:#000000;fill-opacity:1;stroke:none;stroke-width:0.43737367"
               id="text5043-3-2">
              <path
                 d="m 96.306458,209.44817 q -1.602506,0 -2.492787,1.0341 -0.890281,1.02725 -0.890281,2.8215 0,1.77372 0.924523,2.85575 0.931371,1.07519 2.513332,1.07519 2.027102,0 3.047501,-2.00656 l 1.068334,0.53417 q -0.5958,1.24639 -1.677834,1.89698 -1.075186,0.65059 -2.499636,0.65059 -1.458691,0 -2.527029,-0.60265 -1.061489,-0.6095 -1.623051,-1.73262 -0.554714,-1.12997 -0.554714,-2.67085 0,-2.30788 1.246394,-3.61591 1.246394,-1.30803 3.451552,-1.30803 1.540871,0 2.574967,0.60266 1.034096,0.60265 1.520331,1.78741 l -1.23955,0.4109 q -0.335568,-0.84235 -1.082034,-1.28749 -0.739618,-0.44514 -1.760018,-0.44514 z"
                 style="font-style:normal;font-variant:normal;font-weight:normal;font-stretch:normal;font-size:14.02535343px;font-family:'Century Gothic', arial;fill:#004455;fill-opacity:1;stroke-width:0.43737367"
                 id="path884"
                 inkscape:connector-curvature="0" />
              <path
                 d="m 108.22938,214.46114 q 0,1.94492 -0.85604,2.89684 -0.85604,0.95191 -2.48594,0.95191 -1.62305,0 -2.4517,-0.98615 -0.82864,-0.99301 -0.82864,-2.8626 0,-3.83506 3.32143,-3.83506 1.69838,0 2.49964,0.93822 0.80125,0.93137 0.80125,2.89684 z m -1.29433,0 q 0,-1.53402 -0.45884,-2.2257 -0.45199,-0.69853 -1.52718,-0.69853 -1.08203,0 -1.56826,0.71222 -0.47938,0.70538 -0.47938,2.21201 0,1.46554 0.47253,2.20516 0.47938,0.73277 1.49978,0.73277 1.10943,0 1.58196,-0.71223 0.47939,-0.71222 0.47939,-2.2257 z"
                 style="font-style:normal;font-variant:normal;font-weight:normal;font-stretch:normal;font-size:14.02535343px;font-family:'Century Gothic', arial;fill:#004455;fill-opacity:1;stroke-width:0.43737367"
                 id="path886"
                 inkscape:connector-curvature="0" />
              <path
                 d="m 114.44765,216.98132 q -0.34242,0.71223 -0.91083,1.0204 -0.56156,0.30817 -1.39705,0.30817 -1.40391,0 -2.06819,-0.94506 -0.65744,-0.94507 -0.65744,-2.8626 0,-3.87615 2.72563,-3.87615 0.84234,0 1.4039,0.30818 0.56156,0.30817 0.90398,0.97931 h 0.0137 l -0.0137,-0.82865 v -3.07489 h 1.2327 v 8.63572 q 0,1.15737 0.0411,1.52718 h -1.17791 q -0.0206,-0.10958 -0.0479,-0.50678 -0.0206,-0.3972 -0.0206,-0.68483 z m -3.73918,-2.52018 q 0,1.55457 0.4109,2.2257 0.4109,0.67114 1.33542,0.67114 1.04779,0 1.52033,-0.72592 0.47253,-0.72593 0.47253,-2.2531 0,-1.47239 -0.47253,-2.15722 -0.47254,-0.68483 -1.50663,-0.68483 -0.93137,0 -1.34912,0.69168 -0.4109,0.68483 -0.4109,2.23255 z"
                 style="font-style:normal;font-variant:normal;font-weight:normal;font-stretch:normal;font-size:14.02535343px;font-family:'Century Gothic', arial;fill:#004455;fill-opacity:1;stroke-width:0.43737367"
                 id="path888"
                 inkscape:connector-curvature="0" />
              <path
                 d="m 118.5224,214.72822 q 0,1.27379 0.52732,1.96547 0.52732,0.69168 1.54087,0.69168 0.80125,0 1.28064,-0.32187 0.48623,-0.32187 0.65743,-0.81495 l 1.08204,0.30818 q -0.66429,1.75316 -3.02011,1.75316 -1.6436,0 -2.50648,-0.97931 -0.85604,-0.9793 -0.85604,-2.91053 0,-1.83535 0.85604,-2.81466 0.86288,-0.97931 2.45854,-0.97931 3.26665,0 3.26665,3.93778 v 0.16436 z m 4.01311,-0.94506 q -0.10272,-1.17107 -0.5958,-1.70523 -0.49308,-0.54102 -1.4176,-0.54102 -0.89713,0 -1.42445,0.60265 -0.52047,0.5958 -0.56156,1.6436 z"
                 style="font-style:normal;font-variant:normal;font-weight:normal;font-stretch:normal;font-size:14.02535343px;font-family:'Century Gothic', arial;fill:#004455;fill-opacity:1;stroke-width:0.43737367"
                 id="path890"
                 inkscape:connector-curvature="0" />
            </g>
            <path
               style="fill:none;stroke:#808080;stroke-width:0.83164322;stroke-linecap:butt;stroke-linejoin:miter;stroke-miterlimit:4;stroke-dasharray:none;stroke-opacity:1"
               d="m 12.606884,250.41723 25.268469,0.0604"
               id="path833"
               inkscape:connector-curvature="0"
               sodipodi:nodetypes="cc" />
            <path
               style="fill:none;stroke:#808080;stroke-width:0.87818289;stroke-linecap:butt;stroke-linejoin:miter;stroke-miterlimit:4;stroke-dasharray:none;stroke-opacity:1"
               d="m 61.368663,250.49848 47.379607,0.0715"
               id="path833-2"
               inkscape:connector-curvature="0"
               sodipodi:nodetypes="cc" />
          </g>
        </g>
      </g>
    </g>
  </g>
</svg>
