  0
SECTION
  2
HEADER
  9
$ACADVER
  1
AC1024
  9
$ACADMAINTVER
 70
     6
  9
$DWGCODEPAGE
  3
ANSI_1252
  9
$LASTSAVEDBY
  1
jedua
  9
$INSBASE
 10
0.0
 20
0.0
 30
0.0
  9
$EXTMIN
 10
-2.399075622817151
 20
-0.6017937677517295
 30
0.0
  9
$EXTMAX
 10
2.649161053267193
 20
0.4401730570405959
 30
0.0
  9
$LIMMIN
 10
0.0
 20
0.0
  9
$LIMMAX
 10
420.0
 20
297.0
  9
$ORTHOMODE
 70
     0
  9
$REGENMODE
 70
     1
  9
$FILLMODE
 70
     1
  9
$QTEXTMODE
 70
     0
  9
$MIRRTEXT
 70
     0
  9
$LTSCALE
 40
1.0
  9
$ATTMODE
 70
     1
  9
$TEXTSIZE
 40
2.5
  9
$TRACEWID
 40
1.0
  9
$TEXTSTYLE
  7
Standard
  9
$CLAYER
  8
0
  9
$CELTYPE
  6
ByLayer
  9
$CECOLOR
 62
   256
  9
$CELTSCALE
 40
1.0
  9
$DISPSILH
 70
     0
  9
$DIMSCALE
 40
1.0
  9
$DIMASZ
 40
2.5
  9
$DIMEXO
 40
0.625
  9
$DIMDLI
 40
3.75
  9
$DIMRND
 40
0.0
  9
$DIMDLE
 40
0.0
  9
$DIMEXE
 40
1.25
  9
$DIMTP
 40
0.0
  9
$DIMTM
 40
0.0
  9
$DIMTXT
 40
2.5
  9
$DIMCEN
 40
2.5
  9
$DIMTSZ
 40
0.0
  9
$DIMTOL
 70
     0
  9
$DIMLIM
 70
     0
  9
$DIMTIH
 70
     0
  9
$DIMTOH
 70
     0
  9
$DIMSE1
 70
     0
  9
$DIMSE2
 70
     0
  9
$DIMTAD
 70
     1
  9
$DIMZIN
 70
     8
  9
$DIMBLK
  1

  9
$DIMASO
 70
     1
  9
$DIMSHO
 70
     1
  9
$DIMPOST
  1

  9
$DIMAPOST
  1

  9
$DIMALT
 70
     0
  9
$DIMALTD
 70
     3
  9
$DIMALTF
 40
0.03937007874016
  9
$DIMLFAC
 40
1.0
  9
$DIMTOFL
 70
     1
  9
$DIMTVP
 40
0.0
  9
$DIMTIX
 70
     0
  9
$DIMSOXD
 70
     0
  9
$DIMSAH
 70
     0
  9
$DIMBLK1
  1

  9
$DIMBLK2
  1

  9
$DIMSTYLE
  2
ISO-25
  9
$DIMCLRD
 70
     0
  9
$DIMCLRE
 70
     0
  9
$DIMCLRT
 70
     0
  9
$DIMTFAC
 40
1.0
  9
$DIMGAP
 40
0.625
  9
$DIMJUST
 70
     0
  9
$DIMSD1
 70
     0
  9
$DIMSD2
 70
     0
  9
$DIMTOLJ
 70
     0
  9
$DIMTZIN
 70
     8
  9
$DIMALTZ
 70
     0
  9
$DIMALTTZ
 70
     0
  9
$DIMUPT
 70
     0
  9
$DIMDEC
 70
     2
  9
$DIMTDEC
 70
     2
  9
$DIMALTU
 70
     2
  9
$DIMALTTD
 70
     3
  9
$DIMTXSTY
  7
Standard
  9
$DIMAUNIT
 70
     0
  9
$DIMADEC
 70
     0
  9
$DIMALTRND
 40
0.0
  9
$DIMAZIN
 70
     0
  9
$DIMDSEP
 70
    44
  9
$DIMATFIT
 70
     3
  9
$DIMFRAC
 70
     0
  9
$DIMLDRBLK
  1

  9
$DIMLUNIT
 70
     2
  9
$DIMLWD
 70
    -2
  9
$DIMLWE
 70
    -2
  9
$DIMTMOVE
 70
     0
  9
$DIMFXL
 40
1.0
  9
$DIMFXLON
 70
     0
  9
$DIMJOGANG
 40
0.7853981633974483
  9
$DIMTFILL
 70
     0
  9
$DIMTFILLCLR
 70
     0
  9
$DIMARCSYM
 70
     0
  9
$DIMLTYPE
  6

  9
$DIMLTEX1
  6

  9
$DIMLTEX2
  6

  9
$DIMTXTDIRECTION
 70
     0
  9
$LUNITS
 70
     2
  9
$LUPREC
 70
     3
  9
$SKETCHINC
 40
1.0
  9
$FILLETRAD
 40
10.0
  9
$AUNITS
 70
     0
  9
$AUPREC
 70
     0
  9
$MENU
  1
.
  9
$ELEVATION
 40
0.0
  9
$PELEVATION
 40
0.0
  9
$THICKNESS
 40
0.0
  9
$LIMCHECK
 70
     0
  9
$CHAMFERA
 40
10.0
  9
$CHAMFERB
 40
10.0
  9
$CHAMFERC
 40
20.0
  9
$CHAMFERD
 40
0.0
  9
$SKPOLY
 70
     0
  9
$TDCREATE
 40
2455022.720692847
  9
$TDUCREATE
 40
2455022.637359514
  9
$TDUPDATE
 40
2458579.755105937
  9
$TDUUPDATE
 40
2458579.671772604
  9
$TDINDWG
 40
0.001448588
  9
$TDUSRTIMER
 40
0.0009504051
  9
$USRTIMER
 70
     1
  9
$ANGBASE
 50
0.0
  9
$ANGDIR
 70
     0
  9
$PDMODE
 70
     0
  9
$PDSIZE
 40
0.0
  9
$PLINEWID
 40
0.0
  9
$SPLFRAME
 70
     0
  9
$SPLINETYPE
 70
     6
  9
$SPLINESEGS
 70
     8
  9
$HANDSEED
  5
C74
  9
$SURFTAB1
 70
     6
  9
$SURFTAB2
 70
     6
  9
$SURFTYPE
 70
     6
  9
$SURFU
 70
     6
  9
$SURFV
 70
     6
  9
$UCSBASE
  2

  9
$UCSNAME
  2

  9
$UCSORG
 10
0.0
 20
0.0
 30
0.0
  9
$UCSXDIR
 10
1.0
 20
0.0
 30
0.0
  9
$UCSYDIR
 10
0.0
 20
1.0
 30
0.0
  9
$UCSORTHOREF
  2

  9
$UCSORTHOVIEW
 70
     0
  9
$UCSORGTOP
 10
0.0
 20
0.0
 30
0.0
  9
$UCSORGBOTTOM
 10
0.0
 20
0.0
 30
0.0
  9
$UCSORGLEFT
 10
0.0
 20
0.0
 30
0.0
  9
$UCSORGRIGHT
 10
0.0
 20
0.0
 30
0.0
  9
$UCSORGFRONT
 10
0.0
 20
0.0
 30
0.0
  9
$UCSORGBACK
 10
0.0
 20
0.0
 30
0.0
  9
$PUCSBASE
  2

  9
$PUCSNAME
  2

  9
$PUCSORG
 10
0.0
 20
0.0
 30
0.0
  9
$PUCSXDIR
 10
1.0
 20
0.0
 30
0.0
  9
$PUCSYDIR
 10
0.0
 20
1.0
 30
0.0
  9
$PUCSORTHOREF
  2

  9
$PUCSORTHOVIEW
 70
     0
  9
$PUCSORGTOP
 10
0.0
 20
0.0
 30
0.0
  9
$PUCSORGBOTTOM
 10
0.0
 20
0.0
 30
0.0
  9
$PUCSORGLEFT
 10
0.0
 20
0.0
 30
0.0
  9
$PUCSORGRIGHT
 10
0.0
 20
0.0
 30
0.0
  9
$PUCSORGFRONT
 10
0.0
 20
0.0
 30
0.0
  9
$PUCSORGBACK
 10
0.0
 20
0.0
 30
0.0
  9
$USERI1
 70
     0
  9
$USERI2
 70
     0
  9
$USERI3
 70
     0
  9
$USERI4
 70
     0
  9
$USERI5
 70
     0
  9
$USERR1
 40
0.0
  9
$USERR2
 40
0.0
  9
$USERR3
 40
0.0
  9
$USERR4
 40
0.0
  9
$USERR5
 40
0.0
  9
$WORLDVIEW
 70
     1
  9
$SHADEDGE
 70
     3
  9
$SHADEDIF
 70
    70
  9
$TILEMODE
 70
     1
  9
$MAXACTVP
 70
    64
  9
$PINSBASE
 10
0.0
 20
0.0
 30
0.0
  9
$PLIMCHECK
 70
     0
  9
$PEXTMIN
 10
1.000000000000000E+20
 20
1.000000000000000E+20
 30
1.000000000000000E+20
  9
$PEXTMAX
 10
-1.000000000000000E+20
 20
-1.000000000000000E+20
 30
-1.000000000000000E+20
  9
$PLIMMIN
 10
0.0
 20
0.0
  9
$PLIMMAX
 10
0.0
 20
0.0
  9
$UNITMODE
 70
     0
  9
$VISRETAIN
 70
     1
  9
$PLINEGEN
 70
     0
  9
$PSLTSCALE
 70
     1
  9
$TREEDEPTH
 70
  3020
  9
$CMLSTYLE
  2
Standard
  9
$CMLJUST
 70
     0
  9
$CMLSCALE
 40
20.0
  9
$PROXYGRAPHICS
 70
     1
  9
$MEASUREMENT
 70
     1
  9
$CELWEIGHT
370
    -1
  9
$ENDCAPS
280
     0
  9
$JOINSTYLE
280
     0
  9
$LWDISPLAY
290
     0
  9
$INSUNITS
 70
     4
  9
$HYPERLINKBASE
  1

  9
$STYLESHEET
  1

  9
$XEDIT
290
     1
  9
$CEPSNTYPE
380
     0
  9
$PSTYLEMODE
290
     1
  9
$FINGERPRINTGUID
  2
{EC6BB858-51AA-46EC-B484-6C9CC7AB3E2E}
  9
$VERSIONGUID
  2
{FAEB1C32-E019-11D5-929B-00C0DF256EC4}
  9
$EXTNAMES
290
     1
  9
$PSVPSCALE
 40
0.0
  9
$OLESTARTUP
290
     0
  9
$SORTENTS
280
   127
  9
$INDEXCTL
280
     0
  9
$HIDETEXT
280
     1
  9
$XCLIPFRAME
280
     0
  9
$HALOGAP
280
     0
  9
$OBSCOLOR
 70
   257
  9
$OBSLTYPE
280
     0
  9
$INTERSECTIONDISPLAY
280
     0
  9
$INTERSECTIONCOLOR
 70
   257
  9
$DIMASSOC
280
     2
  9
$PROJECTNAME
  1

  9
$CAMERADISPLAY
290
     0
  9
$LENSLENGTH
 40
50.0
  9
$CAMERAHEIGHT
 40
0.0
  9
$STEPSPERSEC
 40
2.0
  9
$STEPSIZE
 40
6.0
  9
$3DDWFPREC
 40
2.0
  9
$PSOLWIDTH
 40
0.25
  9
$PSOLHEIGHT
 40
4.0
  9
$LOFTANG1
 40
1.570796326794897
  9
$LOFTANG2
 40
1.570796326794897
  9
$LOFTMAG1
 40
0.0
  9
$LOFTMAG2
 40
0.0
  9
$LOFTPARAM
 70
     7
  9
$LOFTNORMALS
280
     1
  9
$LATITUDE
 40
37.795
  9
$LONGITUDE
 40
-122.394
  9
$NORTHDIRECTION
 40
0.0
  9
$TIMEZONE
 70
 -8000
  9
$LIGHTGLYPHDISPLAY
280
     1
  9
$TILEMODELIGHTSYNCH
280
     1
  9
$SOLIDHIST
280
     0
  9
$SHOWHIST
280
     1
  9
$DWFFRAME
280
     2
  9
$DGNFRAME
280
     2
  9
$REALWORLDSCALE
290
     1
  9
$INTERFERECOLOR
 62
   256
  9
$CSHADOW
280
     0
  9
$SHADOWPLANELOCATION
 40
0.0
  0
ENDSEC
  0
SECTION
  2
CLASSES
  0
CLASS
  1
ACDBDICTIONARYWDFLT
  2
AcDbDictionaryWithDefault
  3
ObjectDBX Classes
 90
        0
 91
        7
280
     0
281
     0
  0
CLASS
  1
VISUALSTYLE
  2
AcDbVisualStyle
  3
ObjectDBX Classes
 90
     4095
 91
        7
280
     0
281
     0
  0
CLASS
  1
TABLESTYLE
  2
AcDbTableStyle
  3
ObjectDBX Classes
 90
     4095
 91
        7
280
     0
281
     0
  0
CLASS
  1
DICTIONARYVAR
  2
AcDbDictionaryVar
  3
ObjectDBX Classes
 90
        0
 91
        7
280
     0
281
     0
  0
CLASS
  1
SCALE
  2
AcDbScale
  3
ObjectDBX Classes
 90
     1153
 91
        7
280
     0
281
     0
  0
CLASS
  1
CELLSTYLEMAP
  2
AcDbCellStyleMap
  3
ObjectDBX Classes
 90
     1152
 91
        7
280
     0
281
     0
  0
CLASS
  1
RASTERVARIABLES
  2
AcDbRasterVariables
  3
ISM
 90
        0
 91
        6
280
     0
281
     0
  0
CLASS
  1
MATERIAL
  2
AcDbMaterial
  3
ObjectDBX Classes
 90
     1153
 91
        7
280
     0
281
     0
  0
CLASS
  1
SUN
  2
AcDbSun
  3
SCENEOE
 90
     1153
 91
        6
280
     0
281
     0
  0
CLASS
  1
MLEADERSTYLE
  2
AcDbMLeaderStyle
  3
ACDB_MLEADERSTYLE_CLASS
 90
     4095
 91
        7
280
     0
281
     0
  0
ENDSEC
  0
SECTION
  2
TABLES
  0
TABLE
  2
VPORT
  5
8
330
0
100
AcDbSymbolTable
 70
     1
  0
VPORT
  5
29
330
8
100
AcDbSymbolTableRecord
100
AcDbViewportTableRecord
  2
*Active
 70
     0
 10
0.0
 20
0.0
 11
1.0
 21
1.0
 12
136.0195387642004
 22
1.143249417724925
 13
0.0
 23
0.0
 14
10.0
 24
10.0
 15
10.0
 25
10.0
 16
0.0
 26
0.0
 36
1.0
 17
-134.1869158878504
 27
0.0
 37
0.0
 40
8.673932882315581
 41
2.207715133531157
 42
50.0
 43
0.0
 44
0.0
 50
0.0
 51
0.0
 71
    16
 72
  1000
 73
     1
 74
     3
 75
     0
 76
     0
 77
     0
 78
     0
281
     0
 65
     1
110
0.0
120
0.0
130
0.0
111
1.0
121
0.0
131
0.0
112
0.0
122
1.0
132
0.0
 79
     0
146
0.0
348
C5C
 60
     3
 61
     5
292
     1
282
     1
141
0.0
142
0.0
 63
   256
  0
ENDTAB
  0
TABLE
  2
LTYPE
  5
5
330
0
100
AcDbSymbolTable
 70
     1
  0
LTYPE
  5
14
330
5
100
AcDbSymbolTableRecord
100
AcDbLinetypeTableRecord
  2
ByBlock
 70
     0
  3

 72
    65
 73
     0
 40
0.0
  0
LTYPE
  5
15
330
5
100
AcDbSymbolTableRecord
100
AcDbLinetypeTableRecord
  2
ByLayer
 70
     0
  3

 72
    65
 73
     0
 40
0.0
  0
LTYPE
  5
16
330
5
100
AcDbSymbolTableRecord
100
AcDbLinetypeTableRecord
  2
Continuous
 70
     0
  3
Solid line
 72
    65
 73
     0
 40
0.0
  0
ENDTAB
  0
TABLE
  2
LAYER
  5
2
330
0
100
AcDbSymbolTable
 70
     2
  0
LAYER
  5
10
330
2
100
AcDbSymbolTableRecord
100
AcDbLayerTableRecord
  2
0
 70
     0
 62
     7
  6
Continuous
370
    -3
390
F
347
75
  0
LAYER
  5
BD
330
2
100
AcDbSymbolTableRecord
100
AcDbLayerTableRecord
  2
Defpoints
 70
     0
 62
     7
  6
Continuous
290
     0
370
    -3
390
F
347
75
  0
ENDTAB
  0
TABLE
  2
STYLE
  5
3
330
0
100
AcDbSymbolTable
 70
     3
  0
STYLE
  5
11
330
3
100
AcDbSymbolTableRecord
100
AcDbTextStyleTableRecord
  2
Standard
 70
     0
 40
0.0
 41
1.0
 50
0.0
 71
     0
 42
2.5
  3
arial.ttf
  4

1001
ACAD
1000
Arial
1071
        0
  0
STYLE
  5
B8
330
3
100
AcDbSymbolTableRecord
100
AcDbTextStyleTableRecord
  2
Annotative
 70
     0
 40
0.0
 41
1.0
 50
0.0
 71
     0
 42
2.5
  3
arial.ttf
  4

1001
ACAD
1000
Arial
1071
        0
1001
AcadAnnotative
1000
AnnotativeData
1002
{
1070
     1
1070
     1
1002
}
  0
STYLE
  5
9BF
330
3
100
AcDbSymbolTableRecord
100
AcDbTextStyleTableRecord
  2
Notes
 70
     0
 40
3.0
 41
1.0
 50
0.0
 71
     0
 42
2.5
  3
arial.ttf
  4

  0
ENDTAB
  0
TABLE
  2
VIEW
  5
6
330
0
100
AcDbSymbolTable
 70
     0
  0
ENDTAB
  0
TABLE
  2
UCS
  5
7
330
0
100
AcDbSymbolTable
 70
     0
  0
ENDTAB
  0
TABLE
  2
APPID
  5
9
330
0
100
AcDbSymbolTable
 70
     6
  0
APPID
  5
12
330
9
100
AcDbSymbolTableRecord
100
AcDbRegAppTableRecord
  2
ACAD
 70
     0
  0
APPID
  5
B9
330
9
100
AcDbSymbolTableRecord
100
AcDbRegAppTableRecord
  2
AcadAnnotative
 70
     0
  0
APPID
  5
9BC
330
9
100
AcDbSymbolTableRecord
100
AcDbRegAppTableRecord
  2
ACAD_DSTYLE_DIMBREAK
 70
     0
  0
APPID
  5
9BD
330
9
100
AcDbSymbolTableRecord
100
AcDbRegAppTableRecord
  2
ACAD_DSTYLE_DIMJAG
 70
     0
  0
APPID
  5
9BE
330
9
100
AcDbSymbolTableRecord
100
AcDbRegAppTableRecord
  2
ACAD_DSTYLE_DIMTALN
 70
     0
  0
APPID
  5
C55
330
9
100
AcDbSymbolTableRecord
100
AcDbRegAppTableRecord
  2
ACAD_MLEADERVER
 70
     0
  0
ENDTAB
  0
TABLE
  2
DIMSTYLE
  5
A
330
0
100
AcDbSymbolTable
 70
     3
100
AcDbDimStyleTable
  0
DIMSTYLE
105
27
330
A
100
AcDbSymbolTableRecord
100
AcDbDimStyleTableRecord
  2
ISO-25
 70
     0
 41
2.5
 42
0.625
 43
3.75
 44
1.25
 73
     0
 74
     0
 77
     1
 78
     8
140
2.5
141
2.5
143
0.03937007874016
147
0.625
171
     3
172
     1
178
     0
271
     2
272
     2
274
     3
278
    44
283
     0
284
     8
340
11
  0
DIMSTYLE
105
BA
330
A
100
AcDbSymbolTableRecord
100
AcDbDimStyleTableRecord
  2
Annotative
 70
     0
 40
0.0
 41
2.5
 42
0.625
 43
3.75
 44
1.25
 73
     0
 74
     0
 77
     1
 78
     8
140
2.5
141
2.5
143
0.03937007874016
147
0.625
171
     3
172
     1
178
     0
271
     2
272
     2
274
     3
278
    44
283
     0
284
     8
340
11
1001
AcadAnnotative
1000
AnnotativeData
1002
{
1070
     1
1070
     1
1002
}
  0
DIMSTYLE
105
9BA
330
A
100
AcDbSymbolTableRecord
100
AcDbDimStyleTableRecord
  2
Civil-Metric
 70
     0
 41
3.0
 42
1.5
 43
6.0
 44
3.0
 73
     0
 74
     0
 77
     1
 78
     3
 79
     2
140
3.0
141
3.0
147
2.0
178
     0
179
     2
271
     2
272
     2
276
     1
340
11
1001
ACAD_DSTYLE_DIMBREAK
1070
   391
1040
3.0
1001
ACAD_DSTYLE_DIMJAG
1070
   388
1040
38.0
1001
ACAD_DSTYLE_DIMTALN
1070
   392
1070
     0
  0
ENDTAB
  0
TABLE
  2
BLOCK_RECORD
  5
1
330
0
100
AcDbSymbolTable
 70
     5
  0
BLOCK_RECORD
  5
1F
330
1
100
AcDbSymbolTableRecord
100
AcDbBlockTableRecord
  2
*Model_Space
340
22
 70
     0
280
     1
281
     0
  0
BLOCK_RECORD
  5
1B
330
1
100
AcDbSymbolTableRecord
100
AcDbBlockTableRecord
  2
*Paper_Space
340
1E
 70
     0
280
     1
281
     0
  0
BLOCK_RECORD
  5
23
330
1
100
AcDbSymbolTableRecord
100
AcDbBlockTableRecord
  2
*Paper_Space0
340
26
 70
     0
280
     1
281
     0
  0
BLOCK_RECORD
  5
9B9
330
1
100
AcDbSymbolTableRecord
100
AcDbBlockTableRecord
  2
A$C5164
340
0
102
{BLKREFS
331
C51
102
}
 70
     0
280
     1
281
     0
  0
BLOCK_RECORD
  5
9E0
330
1
100
AcDbSymbolTableRecord
100
AcDbBlockTableRecord
  2
Farola
340
0
102
{BLKREFS
331
9DF
102
}
 70
     0
280
     1
281
     0
  0
BLOCK_RECORD
  5
9F5
330
1
100
AcDbSymbolTableRecord
100
AcDbBlockTableRecord
  2
Arbol
340
0
102
{BLKREFS
331
9F4
102
}
 70
     0
280
     1
281
     0
  0
BLOCK_RECORD
  5
C4A
330
1
100
AcDbSymbolTableRecord
100
AcDbBlockTableRecord
  2
Vertice
340
0
102
{BLKREFS
331
C49
102
}
 70
     0
280
     1
281
     0
  0
ENDTAB
  0
ENDSEC
  0
SECTION
  2
BLOCKS
  0
BLOCK
  5
20
330
1F
100
AcDbEntity
  8
0
100
AcDbBlockBegin
  2
*Model_Space
 70
     0
 10
0.0
 20
0.0
 30
0.0
  3
*Model_Space
  1

  0
ENDBLK
  5
21
330
1F
100
AcDbEntity
  8
0
100
AcDbBlockEnd
  0
BLOCK
  5
1C
330
1B
100
AcDbEntity
 67
     1
  8
0
100
AcDbBlockBegin
  2
*Paper_Space
 70
     0
 10
0.0
 20
0.0
 30
0.0
  3
*Paper_Space
  1

  0
ENDBLK
  5
1D
330
1B
100
AcDbEntity
 67
     1
  8
0
100
AcDbBlockEnd
  0
BLOCK
  5
24
330
23
100
AcDbEntity
  8
0
100
AcDbBlockBegin
  2
*Paper_Space0
 70
     0
 10
0.0
 20
0.0
 30
0.0
  3
*Paper_Space0
  1

  0
ENDBLK
  5
25
330
23
100
AcDbEntity
  8
0
100
AcDbBlockEnd
  0
BLOCK
  5
C4F
330
9B9
100
AcDbEntity
  8
0
100
AcDbBlockBegin
  2
A$C5164
 70
     0
 10
0.0
 20
0.0
 30
0.0
  3
A$C5164
  1

  0
INSERT
  5
9DF
330
9B9
100
AcDbEntity
  8
0
100
AcDbBlockReference
  2
Farola
 10
-2.305291073978879
 20
-0.1947433585301042
 30
0.0
  0
INSERT
  5
9F4
330
9B9
100
AcDbEntity
  8
0
100
AcDbBlockReference
  2
Arbol
 10
-0.0281448130263016
 20
-0.0073961410671473
 30
0.0
  0
INSERT
  5
C49
330
9B9
100
AcDbEntity
  8
0
100
AcDbBlockReference
  2
Vertice
 10
2.159399532014504
 20
0.1002772515639663
 30
0.0
  0
ENDBLK
  5
C50
330
9B9
100
AcDbEntity
  8
0
100
AcDbBlockEnd
  0
BLOCK
  5
9E1
330
9E0
100
AcDbEntity
  8
0
100
AcDbBlockBegin
  2
Farola
 70
     0
 10
0.0
 20
0.0
 30
0.0
  3
Farola
  1

  0
LINE
  5
9E2
330
9E0
100
AcDbEntity
  8
0
100
AcDbLine
 10
-0.1971585373976268
 20
-0.0615580147132277
 30
0.0
 11
-0.1971585373976268
 21
-0.0770635018125176
 31
0.0
  0
LINE
  5
9E3
330
9E0
100
AcDbEntity
  8
0
100
AcDbLine
 10
-0.2828521016053855
 20
-0.0615580147132277
 30
0.0
 11
-0.3483839553664438
 21
-0.0502768093720078
 31
0.0
  0
LINE
  5
9E4
330
9E0
100
AcDbEntity
  8
0
100
AcDbLine
 10
-0.2828521016053855
 20
0.0602794606238604
 30
0.0
 11
-0.3483839553664438
 21
0.0489982543513179
 31
0.0
  0
LINE
  5
9E5
330
9E0
100
AcDbEntity
  8
0
100
AcDbLine
 10
-0.2828521016053855
 20
0.0602794606238604
 30
0.0
 11
-0.2828521016053855
 21
-0.0615580147132277
 31
0.0
  0
LINE
  5
9E6
330
9E0
100
AcDbEntity
  8
0
100
AcDbLine
 10
-0.1629155843984336
 20
-0.0615580147132277
 30
0.0
 11
-0.2828521016053855
 21
-0.0615580147132277
 31
0.0
  0
LINE
  5
9E7
330
9E0
100
AcDbEntity
  8
0
100
AcDbLine
 10
-0.1629155843984336
 20
0.0602794606238604
 30
0.0
 11
-0.2828521016053855
 21
0.0602794606238604
 31
0.0
  0
LINE
  5
9E8
330
9E0
100
AcDbEntity
  8
0
100
AcDbLine
 10
-0.0585114131681621
 20
0.1308677243068814
 30
0.0
 11
-0.1629155843984336
 21
0.0757849467918277
 31
0.0
  0
LINE
  5
9E9
330
9E0
100
AcDbEntity
  8
0
100
AcDbLine
 10
-0.1629155843984336
 20
-0.0770635018125176
 30
0.0
 11
-0.0585114131681621
 21
-0.1321462793275714
 31
0.0
  0
LWPOLYLINE
  5
9EA
330
9E0
100
AcDbEntity
  8
0
100
AcDbPolyline
 90
        7
 70
     0
 43
0.0
 10
-0.1013313826406375
 20
0.1172128906473517
 42
-0.0337767206605534
 10
-0.0734517355449498
 20
0.1270914571359754
 42
-0.0683557643499324
 10
0.0082597770961002
 20
0.1383148049935699
 42
-0.0683557643499444
 10
0.0899712897371501
 20
0.1270914571359754
 42
-0.0805247866037009
 10
0.1536180805996992
 20
0.0976160960271955
 42
-0.1070626073823503
 10
0.1997096591512673
 20
0.0494198007509112
 42
-0.1383137630801333
 10
0.2138274612952955
 20
-0.000639277510345
 42
-0.1383137630800921
  0
LWPOLYLINE
  5
9EB
330
9E0
100
AcDbEntity
  8
0
100
AcDbPolyline
 90
        7
 70
     0
 43
0.0
 10
0.2138274612952955
 20
-0.000639277510345
 42
-0.1383137630800921
 10
0.1997096591512673
 20
-0.0506983548402786
 42
-0.1070626073822691
 10
0.1536180805996992
 20
-0.0988946510478854
 42
-0.0805247866036742
 10
0.0899712897371501
 20
-0.1283700121566653
 42
-0.0683557643499371
 10
0.0082597770961002
 20
-0.1395933590829372
 42
-0.0683557643499384
 10
-0.0734517355449498
 20
-0.1283700121566653
 42
-0.0337767206605472
 10
-0.1013313826406375
 20
-0.1184914456680417
 42
-0.1070626073823313
  0
LINE
  5
9EC
330
9E0
100
AcDbEntity
  8
0
100
AcDbLine
 10
-0.1971585373976268
 20
0.0757849467918277
 30
0.0
 11
-0.1013313826406375
 21
0.1172128906473517
 31
0.0
  0
LINE
  5
9ED
330
9E0
100
AcDbEntity
  8
0
100
AcDbLine
 10
-0.1971585373976268
 20
-0.0770635018125176
 30
0.0
 11
-0.1013313826406375
 21
-0.1184914456680417
 31
0.0
  0
LINE
  5
9EE
330
9E0
100
AcDbEntity
  8
0
100
AcDbLine
 10
-0.1629155843984336
 20
-0.0770635018125176
 30
0.0
 11
-0.1971585373976268
 21
-0.0770635018125176
 31
0.0
  0
LINE
  5
9EF
330
9E0
100
AcDbEntity
  8
0
100
AcDbLine
 10
-0.1629155843984336
 20
0.0757849467918277
 30
0.0
 11
-0.1971585373976268
 21
0.0757849467918277
 31
0.0
  0
LINE
  5
9F0
330
9E0
100
AcDbEntity
  8
0
100
AcDbLine
 10
-0.1629155843984336
 20
0.0757849467918277
 30
0.0
 11
-0.1629155843984336
 21
-0.0770635018125176
 31
0.0
  0
LINE
  5
9F1
330
9E0
100
AcDbEntity
  8
0
100
AcDbLine
 10
-0.1971585373976268
 20
0.0757849467918277
 30
0.0
 11
-0.1971585373976268
 21
0.0602794606238604
 31
0.0
  0
LINE
  5
9F2
330
9E0
100
AcDbEntity
  8
0
100
AcDbLine
 10
-0.3483839553664438
 20
0.0489982543513179
 30
0.0
 11
-0.3483839553664438
 21
-0.0502768093720078
 31
0.0
  0
ENDBLK
  5
9F3
330
9E0
100
AcDbEntity
  8
0
100
AcDbBlockEnd
  0
BLOCK
  5
9F6
330
9F5
100
AcDbEntity
  8
0
100
AcDbBlockBegin
  2
Arbol
 70
     0
 10
0.0
 20
0.0
 30
0.0
  3
Arbol
  1

  0
LINE
  5
9F7
330
9F5
100
AcDbEntity
  8
0
100
AcDbLine
 10
-0.4148034352692775
 20
-0.0165918786078691
 30
0.0
 11
-0.4913771022111177
 21
-0.0540118580684066
 31
0.0
  0
LINE
  5
9F8
330
9F5
100
AcDbEntity
  8
0
100
AcDbLine
 10
-0.4042172140907496
 20
0.1909831054508686
 30
0.0
 11
-0.4539724538335577
 21
0.2114581894129515
 31
0.0
  0
LINE
  5
9F9
330
9F5
100
AcDbEntity
  8
0
100
AcDbLine
 10
-0.3896646891953424
 20
0.0934886317700148
 30
0.0
 11
-0.4850302576669492
 21
0.1100702974945307
 31
0.0
  0
LINE
  5
9FA
330
9F5
100
AcDbEntity
  8
0
100
AcDbLine
 10
-0.3937483533518389
 20
0.1286946311593056
 30
0.0
 11
-0.4704972176114097
 21
0.1640207897871733
 31
0.0
  0
LINE
  5
9FB
330
9F5
100
AcDbEntity
  8
0
100
AcDbLine
 10
-0.418610661465209
 20
0.0975739695131779
 30
0.0
 11
-0.491275861626491
 21
0.0892831366509199
 31
0.0
  0
LINE
  5
9FC
330
9F5
100
AcDbEntity
  8
0
100
AcDbLine
 10
-0.3688860451802611
 20
0.037495469674468
 30
0.0
 11
-0.4933176937047392
 21
0.0478289714083076
 31
0.0
  0
LINE
  5
9FD
330
9F5
100
AcDbEntity
  8
0
100
AcDbLine
 10
-0.4953595257829875
 20
0.0415808074176311
 30
0.0
 11
-0.3751316491980106
 21
0.037495469674468
 31
0.0
  0
LINE
  5
9FE
330
9F5
100
AcDbEntity
  8
0
100
AcDbLine
 10
-0.3979521252913401
 20
-0.0766536798328161
 30
0.0
 11
-0.4787846537074074
 21
-0.0641573518514633
 31
0.0
  0
LINE
  5
9FF
330
9F5
100
AcDbEntity
  8
0
100
AcDbLine
 10
-0.3648023810237646
 20
-0.1223133392632008
 30
0.0
 11
-0.4539223455358297
 21
-0.1761436760425568
 31
0.0
  0
LINE
  5
A00
330
9F5
100
AcDbEntity
  8
0
100
AcDbLine
 10
-0.4207726013264619
 20
-0.1140225073322654
 30
0.0
 11
-0.472539049689658
 21
-0.128441346809268
 31
0.0
  0
LINE
  5
A01
330
9F5
100
AcDbEntity
  8
0
100
AcDbLine
 10
-0.3792153132962994
 20
-0.109817011281848
 30
0.0
 11
-0.4518805134575814
 21
-0.1118596810847521
 31
0.0
  0
LINE
  5
A02
330
9F5
100
AcDbEntity
  8
0
100
AcDbLine
 10
-0.4414311375585385
 20
-0.1140225073322654
 30
0.0
 11
-0.4767428216291592
 21
-0.1223133392632008
 31
0.0
  0
LINE
  5
A03
330
9F5
100
AcDbEntity
  8
0
100
AcDbLine
 10
-0.455564372765366
 20
-0.0253605507314205
 30
0.0
 11
-0.3777345385751687
 21
-0.0493919514119625
 31
0.0
  0
LINE
  5
A04
330
9F5
100
AcDbEntity
  8
0
100
AcDbLine
 10
-0.3979126437334344
 20
-0.0104610826820135
 30
0.0
 11
-0.4666142874630168
 21
-0.0715008387342095
 31
0.0
  0
LINE
  5
A05
330
9F5
100
AcDbEntity
  8
0
100
AcDbLine
 10
-0.5124365614028648
 20
0.2428411897271872
 30
0.0
 11
-0.4346067271544598
 21
0.2188097890466452
 31
0.0
  0
LINE
  5
A06
330
9F5
100
AcDbEntity
  8
0
100
AcDbLine
 10
-0.376153513439931
 20
0.2716213837265968
 30
0.0
 11
-0.4448551571695134
 21
0.2105816267430782
 31
0.0
  0
LINE
  5
A07
330
9F5
100
AcDbEntity
  8
0
100
AcDbLine
 10
-0.487613522913307
 20
0.1062853513285518
 30
0.0
 11
-0.4097836887231097
 21
0.0822539515793324
 31
0.0
  0
LINE
  5
A08
330
9F5
100
AcDbEntity
  8
0
100
AcDbLine
 10
-0.4299617938813753
 20
0.1211848193779588
 30
0.0
 11
-0.4986634376691654
 21
0.0601450633257627
 31
0.0
  0
LINE
  5
A09
330
9F5
100
AcDbEntity
  8
0
100
AcDbLine
 10
-0.5173788600368425
 20
-0.1093672513961792
 30
0.0
 11
-0.4395490258466452
 21
-0.1333986520767212
 31
0.0
  0
LINE
  5
A0A
330
9F5
100
AcDbEntity
  8
0
100
AcDbLine
 10
-0.46551369340159
 20
-0.1753626558929682
 30
0.0
 11
-0.3876838592113927
 21
-0.199394054710865
 31
0.0
  0
LINE
  5
A0B
330
9F5
100
AcDbEntity
  8
0
100
AcDbLine
 10
-0.407861964427866
 20
-0.1604631878435612
 30
0.0
 11
-0.4765636081574485
 21
-0.2215029429644346
 31
0.0
  0
LINE
  5
A0C
330
9F5
100
AcDbEntity
  8
0
100
AcDbLine
 10
-0.4986634376691654
 20
0.0654319720342755
 30
0.0
 11
-0.4208336034789681
 21
0.0414005722850561
 31
0.0
  0
LINE
  5
A0D
330
9F5
100
AcDbEntity
  8
0
100
AcDbLine
 10
-0.4410117085790262
 20
0.0803314400836825
 30
0.0
 11
-0.5097133523668163
 21
0.0192916840314865
 31
0.0
  0
LINE
  5
A0E
330
9F5
100
AcDbEntity
  8
0
100
AcDbLine
 10
-0.5097133523668163
 20
0.1730926427990198
 30
0.0
 11
-0.431883518176619
 21
0.149061243981123
 31
0.0
  0
LINE
  5
A0F
330
9F5
100
AcDbEntity
  8
0
100
AcDbLine
 10
-0.4856704090489075
 20
-0.1112897638231516
 30
0.0
 11
-0.4078405748587102
 21
-0.1353211626410484
 31
0.0
  0
LINE
  5
A10
330
9F5
100
AcDbEntity
  8
0
100
AcDbLine
 10
-0.4280186800169758
 20
-0.0963902957737446
 30
0.0
 11
-0.4967203238047659
 21
-0.157430050894618
 31
0.0
  0
LINE
  5
A11
330
9F5
100
AcDbEntity
  8
0
100
AcDbLine
 10
-0.3848822871223092
 20
-0.204230846837163
 30
0.0
 11
-0.4535839308518916
 21
-0.2652706019580364
 31
0.0
  0
LINE
  5
A12
330
9F5
100
AcDbEntity
  8
0
100
AcDbLine
 10
-0.3965493412106298
 20
0.2218178231269121
 30
0.0
 11
-0.4652509849984199
 21
0.1607780680060387
 31
0.0
  0
LINE
  5
A13
330
9F5
100
AcDbEntity
  8
0
100
AcDbLine
 10
-0.4542010702425614
 20
0.2069183550775051
 30
0.0
 11
-0.3763712360523641
 21
0.1828869562596083
 31
0.0
  0
LINE
  5
A14
330
9F5
100
AcDbEntity
  8
0
100
AcDbLine
 10
-0.4870720896869898
 20
0.0975739695131779
 30
0.0
 11
-0.4456349094980396
 21
0.0996166374534369
 31
0.0
  0
LINE
  5
A15
330
9F5
100
AcDbEntity
  8
0
100
AcDbLine
 10
-0.5551410873886198
 20
0.1050233468413353
 30
0.0
 11
-0.4773112531984225
 21
0.0809919470921159
 31
0.0
  0
LINE
  5
A16
330
9F5
100
AcDbEntity
  8
0
100
AcDbLine
 10
-0.4974893582984805
 20
0.1199228148907423
 30
0.0
 11
-0.5661910020862706
 21
0.0588830597698689
 31
0.0
  0
LINE
  5
A17
330
9F5
100
AcDbEntity
  8
0
100
AcDbLine
 10
-0.5291978092864156
 20
0.1256903503090143
 30
0.0
 11
-0.5215109121054411
 21
0.0588830597698689
 31
0.0
  0
LINE
  5
A18
330
9F5
100
AcDbEntity
  8
0
100
AcDbLine
 10
-0.4547848323127255
 20
0.2577406577765942
 30
0.0
 11
-0.5234864761005156
 21
0.1967009017243981
 31
0.0
  0
LINE
  5
A19
330
9F5
100
AcDbEntity
  8
0
100
AcDbLine
 10
-0.4864932833006606
 20
0.2635081931948662
 30
0.0
 11
-0.4788063861196861
 21
0.1967009017243981
 31
0.0
  0
LINE
  5
A1A
330
9F5
100
AcDbEntity
  8
0
100
AcDbLine
 10
-0.4616702448111027
 20
0.1269523557275534
 30
0.0
 11
-0.4539833476301283
 21
0.0601450633257627
 31
0.0
  0
LINE
  5
A1B
330
9F5
100
AcDbEntity
  8
0
100
AcDbLine
 10
-0.4597271310049109
 20
-0.0944677833467722
 30
0.0
 11
-0.528428774792701
 21
-0.1555075393989682
 31
0.0
  0
LINE
  5
A1C
330
9F5
100
AcDbEntity
  8
0
100
AcDbLine
 10
-0.4914355819346383
 20
-0.0887002479285002
 30
0.0
 11
-0.4837486847536638
 21
-0.1555075393989682
 31
0.0
  0
LINE
  5
A1D
330
9F5
100
AcDbEntity
  8
0
100
AcDbLine
 10
-0.5322936129523441
 20
-0.0566475391387939
 30
0.0
 11
-0.4544637787621468
 21
-0.0806789398193359
 31
0.0
  0
LINE
  5
A1E
330
9F5
100
AcDbEntity
  8
0
100
AcDbLine
 10
-0.4746418838622048
 20
-0.0417480710893869
 30
0.0
 11
-0.5433435276499949
 21
-0.1027878280729055
 31
0.0
  0
LINE
  5
A1F
330
9F5
100
AcDbEntity
  8
0
100
AcDbLine
 10
-0.5063503348501399
 20
-0.0359805356711149
 30
0.0
 11
-0.4986634376691654
 21
-0.1027878280729055
 31
0.0
  0
LINE
  5
A20
330
9F5
100
AcDbEntity
  8
0
100
AcDbLine
 10
-0.5284501643618569
 20
0.0192916840314865
 30
0.0
 11
-0.4506203301134519
 21
-0.0047397157177329
 31
0.0
  0
LINE
  5
A21
330
9F5
100
AcDbEntity
  8
0
100
AcDbLine
 10
-0.4707984352717176
 20
0.0341911520808935
 30
0.0
 11
-0.5395000790013
 21
-0.0268486030399799
 31
0.0
  0
LINE
  5
A22
330
9F5
100
AcDbEntity
  8
0
100
AcDbLine
 10
-0.5025068862596527
 20
0.0399586884304881
 30
0.0
 11
-0.4948199890786782
 21
-0.0268486030399799
 31
0.0
  0
LINE
  5
A23
330
9F5
100
AcDbEntity
  8
0
100
AcDbLine
 10
-0.4727201595669612
 20
0.0860989764332771
 30
0.0
 11
-0.4650332623859867
 21
0.0192916840314865
 31
0.0
  0
LINE
  5
A24
330
9F5
100
AcDbEntity
  8
0
100
AcDbLine
 10
-0.4520616233348846
 20
0.1879921108484268
 30
0.0
 11
-0.5207632670644671
 21
0.1269523557275534
 31
0.0
  0
LINE
  5
A25
330
9F5
100
AcDbEntity
  8
0
100
AcDbLine
 10
-0.4837700743228197
 20
0.193759648129344
 30
0.0
 11
-0.4760831770836376
 21
0.1269523557275534
 31
0.0
  0
LINE
  5
A26
330
9F5
100
AcDbEntity
  8
0
100
AcDbLine
 10
-0.4597271310049109
 20
-0.09062275942415
 30
0.0
 11
-0.4520402337657288
 21
-0.157430050894618
 31
0.0
  0
LINE
  5
A27
330
9F5
100
AcDbEntity
  8
0
100
AcDbLine
 10
0.4426360643701628
 20
0.0711506120860577
 30
0.0
 11
0.5204658986185677
 21
0.0471192114055157
 31
0.0
  0
LINE
  5
A28
330
9F5
100
AcDbEntity
  8
0
100
AcDbLine
 10
0.500287793460302
 20
0.0860500801354647
 30
0.0
 11
0.4315861496143043
 21
0.0250103240832686
 31
0.0
  0
LINE
  5
A29
330
9F5
100
AcDbEntity
  8
0
100
AcDbLine
 10
0.4236735235899687
 20
0.151012359187007
 30
0.0
 11
0.501503357780166
 21
0.126980958506465
 31
0.0
  0
LINE
  5
A2A
330
9F5
100
AcDbEntity
  8
0
100
AcDbLine
 10
0.5132750225020573
 20
-0.0473356936126947
 30
0.0
 11
0.4445733787724748
 21
-0.1083754487335682
 31
0.0
  0
LINE
  5
A2B
330
9F5
100
AcDbEntity
  8
0
100
AcDbLine
 10
0.4338532795663923
 20
0.0192916840314865
 30
0.0
 11
0.5116831137565896
 21
-0.0047397157177329
 31
0.0
  0
LINE
  5
A2C
330
9F5
100
AcDbEntity
  8
0
100
AcDbLine
 10
-0.0149162500165403
 20
0.0167683865875006
 30
0.0
 11
0.0291121084010229
 21
0.1097888089716434
 31
0.0
  0
LINE
  5
A2D
330
9F5
100
AcDbEntity
  8
0
100
AcDbLine
 10
0.0291121084010229
 20
0.1097888089716434
 30
0.0
 11
-0.0104097841540352
 21
0.2633519349619746
 31
0.0
  0
LINE
  5
A2E
330
9F5
100
AcDbEntity
  8
0
100
AcDbLine
 10
-0.0104097841540352
 20
0.2633519349619746
 30
0.0
 11
-0.1014512868132442
 21
0.3360737822949886
 31
0.0
  0
LINE
  5
A2F
330
9F5
100
AcDbEntity
  8
0
100
AcDbLine
 10
-0.1014512868132442
 20
0.3360737822949886
 30
0.0
 11
-0.1699088507448323
 21
0.3403100073337555
 31
0.0
  0
LINE
  5
A30
330
9F5
100
AcDbEntity
  8
0
100
AcDbLine
 10
-0.1699088507448323
 20
0.3403100073337555
 30
0.0
 11
-0.2157824761234224
 21
0.3629032028838992
 31
0.0
  0
LINE
  5
A31
330
9F5
100
AcDbEntity
  8
0
100
AcDbLine
 10
-0.2157824761234224
 20
0.3629032028838992
 30
0.0
 11
-0.2673020861111581
 21
0.4271526020020247
 31
0.0
  0
LINE
  5
A32
330
9F5
100
AcDbEntity
  8
0
100
AcDbLine
 10
-0.0149162500165403
 20
0.0167683865875006
 30
0.0
 11
0.0372282113530673
 21
0.1037874910980463
 31
0.0
  0
LINE
  5
A33
330
9F5
100
AcDbEntity
  8
0
100
AcDbLine
 10
0.0372282113530673
 20
0.1037874910980463
 30
0.0
 11
0.0269948641071096
 21
0.1595644429326057
 31
0.0
  0
LINE
  5
A34
330
9F5
100
AcDbEntity
  8
0
100
AcDbLine
 10
0.0414626998826861
 20
0.1037874910980463
 30
0.0
 11
0.0351109671173617
 21
0.1616825554519892
 31
0.0
  0
LINE
  5
A35
330
9F5
100
AcDbEntity
  8
0
100
AcDbLine
 10
0.0351109671173617
 20
0.1616825554519892
 30
0.0
 11
0.0248776199296117
 21
0.1701550036668777
 31
0.0
  0
LINE
  5
A36
330
9F5
100
AcDbEntity
  8
0
100
AcDbLine
 10
0.0248776199296117
 20
0.1701550036668777
 30
0.0
 11
-0.0040580514469184
 21
0.2654700474813581
 31
0.0
  0
LINE
  5
A37
330
9F5
100
AcDbEntity
  8
0
100
AcDbLine
 10
-0.0040580514469184
 20
0.2654700474813581
 30
0.0
 11
-0.0746328596724197
 21
0.3216000180691481
 31
0.0
  0
LINE
  5
A38
330
9F5
100
AcDbEntity
  8
0
100
AcDbLine
 10
-0.0746328596724197
 20
0.3216000180691481
 30
0.0
 11
-0.0827489625662565
 21
0.3752588573843241
 31
0.0
  0
LINE
  5
A39
330
9F5
100
AcDbEntity
  8
0
100
AcDbLine
 10
-0.0827489625662565
 20
0.3752588573843241
 30
0.0
 11
-0.0767501039081253
 21
0.4935201145708561
 31
0.0
  0
LINE
  5
A3A
330
9F5
100
AcDbEntity
  8
0
100
AcDbLine
 10
-0.0912179396254942
 20
0.3403100073337555
 30
0.0
 11
-0.0827489625662565
 21
0.3918507341295481
 31
0.0
  0
LINE
  5
A3B
330
9F5
100
AcDbEntity
  8
0
100
AcDbLine
 10
-0.0827489625662565
 20
0.3918507341295481
 30
0.0
 11
-0.0848662068601698
 21
0.4500988172367215
 31
0.0
  0
LINE
  5
A3C
330
9F5
100
AcDbEntity
  8
0
100
AcDbLine
 10
-0.0848662068601698
 20
0.4500988172367215
 30
0.0
 11
-0.0912179396254942
 21
0.4914020020514727
 31
0.0
  0
LINE
  5
A3D
330
9F5
100
AcDbEntity
  8
0
100
AcDbLine
 10
-0.0912179396254942
 20
0.3403100073337555
 30
0.0
 11
-0.1328570764162578
 21
0.3420751001685858
 31
0.0
  0
LINE
  5
A3E
330
9F5
100
AcDbEntity
  8
0
100
AcDbLine
 10
-0.1328570764162578
 20
0.3420751001685858
 30
0.0
 11
-0.1699088507448323
 21
0.3441932126879692
 31
0.0
  0
LINE
  5
A3F
330
9F5
100
AcDbEntity
  8
0
100
AcDbLine
 10
-0.1699088507448323
 20
0.3441932126879692
 30
0.0
 11
-0.2051962548866868
 21
0.3671394269913435
 31
0.0
  0
LINE
  5
A40
330
9F5
100
AcDbEntity
  8
0
100
AcDbLine
 10
-0.2051962548866868
 20
0.3671394269913435
 30
0.0
 11
-0.2447181474417448
 21
0.4398612752556801
 31
0.0
  0
LINE
  5
A41
330
9F5
100
AcDbEntity
  8
0
100
AcDbLine
 10
-0.0848662068601698
 20
0.3463113252073526
 30
0.0
 11
-0.0827489625662565
 21
0.3318375591188669
 31
0.0
  0
LINE
  5
A42
330
9F5
100
AcDbEntity
  8
0
100
AcDbLine
 10
-0.2591859831591137
 20
0.4271526020020247
 30
0.0
 11
-0.2175468463101424
 21
0.3734937636181712
 31
0.0
  0
LINE
  5
A43
330
9F5
100
AcDbEntity
  8
0
100
AcDbLine
 10
-0.2175468463101424
 20
0.3734937636181712
 30
0.0
 11
-0.2507170061580837
 21
0.4356250502169132
 31
0.0
  0
LINE
  5
A44
330
9F5
100
AcDbEntity
  8
0
100
AcDbLine
 10
-0.0848662068601698
 20
0.4914020020514727
 30
0.0
 11
-0.0809845924377441
 21
0.4522169288247824
 31
0.0
  0
LINE
  5
A45
330
9F5
100
AcDbEntity
  8
0
100
AcDbLine
 10
-0.0149162500165403
 20
0.0167683865875006
 30
0.0
 11
-0.0019408072112128
 21
-0.01870999019593
 31
0.0
  0
LINE
  5
A46
330
9F5
100
AcDbEntity
  8
0
100
AcDbLine
 10
-0.0019408072112128
 20
-0.01870999019593
 30
0.0
 11
0.1099202638142742
 21
-0.0893137259408832
 31
0.0
  0
LINE
  5
A47
330
9F5
100
AcDbEntity
  8
0
100
AcDbLine
 10
0.1099202638142742
 20
-0.0893137259408832
 30
0.0
 11
0.1494421564275399
 21
-0.0914318393915892
 31
0.0
  0
LINE
  5
A48
330
9F5
100
AcDbEntity
  8
0
100
AcDbLine
 10
0.1494421564275399
 20
-0.0914318393915892
 30
0.0
 11
0.1762605835683644
 21
-0.1246155947446823
 31
0.0
  0
LINE
  5
A49
330
9F5
100
AcDbEntity
  8
0
100
AcDbLine
 10
0.1762605835683644
 20
-0.1246155947446823
 30
0.0
 11
0.2694193304050714
 21
-0.165918780490756
 31
0.0
  0
LINE
  5
A4A
330
9F5
100
AcDbEntity
  8
0
100
AcDbLine
 10
0.2694193304050714
 20
-0.165918780490756
 30
0.0
 11
0.3752815427142195
 21
-0.1638006679713726
 31
0.0
  0
LINE
  5
A4B
330
9F5
100
AcDbEntity
  8
0
100
AcDbLine
 10
0.3752815427142195
 20
-0.1638006679713726
 30
0.0
 11
0.4458563509397209
 21
-0.1412074714899063
 31
0.0
  0
LINE
  5
A4C
330
9F5
100
AcDbEntity
  8
0
100
AcDbLine
 10
0.0001764370827004
 20
0.0289475312456489
 30
0.0
 11
-0.0040580514469184
 21
0.0165918786078691
 31
0.0
  0
LINE
  5
A4D
330
9F5
100
AcDbEntity
  8
0
100
AcDbLine
 10
-0.0040580514469184
 20
0.0165918786078691
 30
0.0
 11
0.0040580515051261
 21
-0.0165918786078691
 31
0.0
  0
LINE
  5
A4E
330
9F5
100
AcDbEntity
  8
0
100
AcDbLine
 10
0.0040580515051261
 20
-0.0165918786078691
 30
0.0
 11
0.0082925399765372
 21
0.0165918786078691
 31
0.0
  0
LINE
  5
A4F
330
9F5
100
AcDbEntity
  8
0
100
AcDbLine
 10
0.0082925399765372
 20
0.0165918786078691
 30
0.0
 11
0.0082925399765372
 21
0.0416562035679817
 31
0.0
  0
LINE
  5
A50
330
9F5
100
AcDbEntity
  8
0
100
AcDbLine
 10
0.0082925399765372
 20
0.0416562035679817
 30
0.0
 11
0.0414626998826861
 21
0.0974331554025412
 31
0.0
  0
LINE
  5
A51
330
9F5
100
AcDbEntity
  8
0
100
AcDbLine
 10
0.0125270285061561
 20
0.0102375410497189
 30
0.0
 11
0.1328570764744654
 21
-0.0829593893140554
 31
0.0
  0
LINE
  5
A52
330
9F5
100
AcDbEntity
  8
0
100
AcDbLine
 10
0.1328570764744654
 20
-0.0829593893140554
 30
0.0
 11
0.1035685311071575
 21
-0.0787231661379337
 31
0.0
  0
LINE
  5
A53
330
9F5
100
AcDbEntity
  8
0
100
AcDbLine
 10
0.1035685311071575
 20
-0.0787231661379337
 30
0.0
 11
0.0146442727418616
 21
-0.0208281027153134
 31
0.0
  0
LINE
  5
A54
330
9F5
100
AcDbEntity
  8
0
100
AcDbLine
 10
0.0146442727418616
 20
-0.0208281027153134
 30
0.0
 11
0.0125270285061561
 21
0.0
 31
0.0
  0
LINE
  5
A55
330
9F5
100
AcDbEntity
  8
0
100
AcDbLine
 10
0.0125270285061561
 20
0.0
 30
0.0
 11
0.1056857753428631
 21
-0.0706037357449532
 31
0.0
  0
LINE
  5
A56
330
9F5
100
AcDbEntity
  8
0
100
AcDbLine
 10
0.1056857753428631
 20
-0.0706037357449532
 30
0.0
 11
0.0248776199296117
 21
-0.01870999019593
 31
0.0
  0
LINE
  5
A57
330
9F5
100
AcDbEntity
  8
0
100
AcDbLine
 10
0.1388559351908043
 20
-0.0829593893140554
 30
0.0
 11
0.1596755036152899
 21
-0.0829593893140554
 31
0.0
  0
LINE
  5
A58
330
9F5
100
AcDbEntity
  8
0
100
AcDbLine
 10
0.1596755036152899
 20
-0.0829593893140554
 30
0.0
 11
0.2030790106509812
 21
-0.0727218482643366
 31
0.0
  0
LINE
  5
A59
330
9F5
100
AcDbEntity
  8
0
100
AcDbLine
 10
0.2030790106509812
 20
-0.0727218482643366
 30
0.0
 11
0.2821227959357202
 21
-0.026829419657588
 31
0.0
  0
LINE
  5
A5A
330
9F5
100
AcDbEntity
  8
0
100
AcDbLine
 10
0.2821227959357202
 20
-0.026829419657588
 30
0.0
 11
0.329760791384615
 21
-0.03741998039186
 31
0.0
  0
LINE
  5
A5B
330
9F5
100
AcDbEntity
  8
0
100
AcDbLine
 10
0.329760791384615
 20
-0.03741998039186
 30
0.0
 11
0.4352701297029853
 21
-0.026829419657588
 31
0.0
  0
LINE
  5
A5C
330
9F5
100
AcDbEntity
  8
0
100
AcDbLine
 10
0.4352701297029853
 20
-0.026829419657588
 30
0.0
 11
0.4666759193642065
 21
-0.03741998039186
 31
0.0
  0
LINE
  5
A5D
330
9F5
100
AcDbEntity
  8
0
100
AcDbLine
 10
0.1720260950969532
 20
-0.0953150438144803
 30
0.0
 11
0.2136652318877168
 21
-0.07483996078372
 31
0.0
  0
LINE
  5
A5E
330
9F5
100
AcDbEntity
  8
0
100
AcDbLine
 10
0.2136652318877168
 20
-0.07483996078372
 30
0.0
 11
0.280005551641807
 21
-0.0331837553530931
 31
0.0
  0
LINE
  5
A5F
330
9F5
100
AcDbEntity
  8
0
100
AcDbLine
 10
0.280005551641807
 20
-0.0331837553530931
 30
0.0
 11
0.3357596501009539
 21
-0.0434212982654572
 31
0.0
  0
LINE
  5
A60
330
9F5
100
AcDbEntity
  8
0
100
AcDbLine
 10
0.3357596501009539
 20
-0.0434212982654572
 30
0.0
 11
0.4208022940438241
 21
-0.0787231661379337
 31
0.0
  0
LINE
  5
A61
330
9F5
100
AcDbEntity
  8
0
100
AcDbLine
 10
0.4208022940438241
 20
-0.0787231661379337
 30
0.0
 11
0.4603241865988821
 21
-0.0808412786573172
 31
0.0
  0
LINE
  5
A62
330
9F5
100
AcDbEntity
  8
0
100
AcDbLine
 10
0.4684402896091342
 20
-0.0229462143033743
 30
0.0
 11
0.4292712709866464
 21
-0.01870999019593
 31
0.0
  0
LINE
  5
A63
330
9F5
100
AcDbEntity
  8
0
100
AcDbLine
 10
0.4292712709866464
 20
-0.01870999019593
 30
0.0
 11
0.3421113828662783
 21
-0.0353018678724766
 31
0.0
  0
LINE
  5
A64
330
9F5
100
AcDbEntity
  8
0
100
AcDbLine
 10
0.4684402896091342
 20
-0.0289475321769714
 30
0.0
 11
0.4437391067040153
 21
-0.0250643268227577
 31
0.0
  0
LINE
  5
A65
330
9F5
100
AcDbEntity
  8
0
100
AcDbLine
 10
0.4518552096560597
 20
-0.0953150438144803
 30
0.0
 11
0.4148034353274852
 21
-0.0850775018334389
 31
0.0
  0
LINE
  5
A66
330
9F5
100
AcDbEntity
  8
0
100
AcDbLine
 10
0.4148034353274852
 20
-0.0850775018334389
 30
0.0
 11
0.3378768943366595
 21
-0.0476575214415789
 31
0.0
  0
LINE
  5
A67
330
9F5
100
AcDbEntity
  8
0
100
AcDbLine
 10
0.4560896981274709
 20
-0.0893137259408832
 30
0.0
 11
0.4169206796213984
 21
-0.0808412786573172
 31
0.0
  0
LINE
  5
A68
330
9F5
100
AcDbEntity
  8
0
100
AcDbLine
 10
0.16990885080304
 20
-0.0953150438144803
 30
0.0
 11
0.1843766864622012
 21
-0.1246155947446823
 31
0.0
  0
LINE
  5
A69
330
9F5
100
AcDbEntity
  8
0
100
AcDbLine
 10
0.1843766864622012
 20
-0.1246155947446823
 30
0.0
 11
0.2673020861693658
 21
-0.1595644429326057
 31
0.0
  0
LINE
  5
A6A
330
9F5
100
AcDbEntity
  8
0
100
AcDbLine
 10
0.2673020861693658
 20
-0.1595644429326057
 30
0.0
 11
0.3689298100071028
 21
-0.1722731161862612
 31
0.0
  0
LINE
  5
A6B
330
9F5
100
AcDbEntity
  8
0
100
AcDbLine
 10
0.3689298100071028
 20
-0.1722731161862612
 30
0.0
 11
0.402099969855044
 21
-0.2241668626666069
 31
0.0
  0
LINE
  5
A6C
330
9F5
100
AcDbEntity
  8
0
100
AcDbLine
 10
-0.006175295682624
 20
0.2697062715888023
 30
0.0
 11
-0.014644272683654
 21
0.3629032028838992
 31
0.0
  0
LINE
  5
A6D
330
9F5
100
AcDbEntity
  8
0
100
AcDbLine
 10
-0.014644272683654
 20
0.3629032028838992
 30
0.0
 11
-0.0435799440601841
 21
0.4250344913452864
 31
0.0
  0
LINE
  5
A6E
330
9F5
100
AcDbEntity
  8
0
100
AcDbLine
 10
-0.0435799440601841
 20
0.4250344913452864
 30
0.0
 11
-0.0351109670591541
 21
0.4977563386783004
 31
0.0
  0
LINE
  5
A6F
330
9F5
100
AcDbEntity
  8
0
100
AcDbLine
 10
-0.0456971882958896
 20
0.4232693975791335
 30
0.0
 11
-0.0682811269070953
 21
0.4914020020514727
 31
0.0
  0
LINE
  5
A70
330
9F5
100
AcDbEntity
  8
0
100
AcDbLine
 10
-0.0125270284479484
 20
0.3629032028838992
 30
0.0
 11
0.0269948641071096
 21
0.4977563386783004
 31
0.0
  0
LINE
  5
A71
330
9F5
100
AcDbEntity
  8
0
100
AcDbLine
 10
-0.0185258871642873
 20
0.2778257001191378
 30
0.0
 11
-0.0125270284479484
 21
0.3607850912958384
 31
0.0
  0
LINE
  5
A72
330
9F5
100
AcDbEntity
  8
0
100
AcDbLine
 10
-0.0848662068601698
 20
0.3858494162559509
 30
0.0
 11
-0.1307398321805522
 21
0.4811644610017538
 31
0.0
  0
LINE
  5
A73
330
9F5
100
AcDbEntity
  8
0
100
AcDbLine
 10
-0.2175468463101424
 20
0.3586669787764549
 30
0.0
 11
-0.3068239786662161
 21
0.3879675287753344
 31
0.0
  0
LINE
  5
A74
330
9F5
100
AcDbEntity
  8
0
100
AcDbLine
 10
0.0351109671173617
 20
0.1659187795594335
 30
0.0
 11
0.0622822683071718
 21
0.3088913448154926
 31
0.0
  0
LINE
  5
A75
330
9F5
100
AcDbEntity
  8
0
100
AcDbLine
 10
0.0622822683071718
 20
0.3088913448154926
 30
0.0
 11
0.0831018366734497
 21
0.3381918948143721
 31
0.0
  0
LINE
  5
A76
330
9F5
100
AcDbEntity
  8
0
100
AcDbLine
 10
0.0831018366734497
 20
0.3381918948143721
 30
0.0
 11
0.0788673482020386
 21
0.4211512841284275
 31
0.0
  0
LINE
  5
A77
330
9F5
100
AcDbEntity
  8
0
100
AcDbLine
 10
0.0788673482020386
 20
0.4211512841284275
 30
0.0
 11
0.0516960470704362
 21
0.4956382270902395
 31
0.0
  0
LINE
  5
A78
330
9F5
100
AcDbEntity
  8
0
100
AcDbLine
 10
0.0227603756939061
 20
0.1846287697553635
 30
0.0
 11
0.0580477797775529
 21
0.3007719153538346
 31
0.0
  0
LINE
  5
A79
330
9F5
100
AcDbEntity
  8
0
100
AcDbLine
 10
0.0291121084010229
 20
0.1722731152549386
 30
0.0
 11
0.0414626998826861
 21
0.2220487501472235
 31
0.0
  0
LINE
  5
A7A
330
9F5
100
AcDbEntity
  8
0
100
AcDbLine
 10
0.0809845924377441
 20
0.4232693975791335
 30
0.0
 11
0.1120375080499798
 21
0.4790463484823704
 31
0.0
  0
LINE
  5
A7B
330
9F5
100
AcDbEntity
  8
0
100
AcDbLine
 10
-0.0125270284479484
 20
0.0165918786078691
 30
0.0
 11
-0.0456971882958896
 21
0.0416562035679817
 31
0.0
  0
LINE
  5
A7C
330
9F5
100
AcDbEntity
  8
0
100
AcDbLine
 10
-0.0456971882958896
 20
0.0416562035679817
 30
0.0
 11
-0.0788673481438309
 21
0.0871956143528223
 31
0.0
  0
LINE
  5
A7D
330
9F5
100
AcDbEntity
  8
0
100
AcDbLine
 10
-0.0788673481438309
 20
0.0871956143528223
 30
0.0
 11
-0.0912179396254942
 21
0.1535631250590086
 31
0.0
  0
LINE
  5
A7E
330
9F5
100
AcDbEntity
  8
0
100
AcDbLine
 10
-0.0912179396254942
 20
0.1535631250590086
 30
0.0
 11
-0.1328570764162578
 21
0.1803925456479192
 31
0.0
  0
LINE
  5
A7F
330
9F5
100
AcDbEntity
  8
0
100
AcDbLine
 10
-0.1328570764162578
 20
0.1803925456479192
 30
0.0
 11
-0.2157824761234224
 21
0.2301681786775589
 31
0.0
  0
LINE
  5
A80
330
9F5
100
AcDbEntity
  8
0
100
AcDbLine
 10
-0.2157824761234224
 20
0.2301681786775589
 30
0.0
 11
-0.3463458713376895
 21
0.2301681786775589
 31
0.0
  0
LINE
  5
A81
330
9F5
100
AcDbEntity
  8
0
100
AcDbLine
 10
-0.3463458713376895
 20
0.2301681786775589
 30
0.0
 11
-0.4271540266927332
 21
0.2654700474813581
 31
0.0
  0
LINE
  5
A82
330
9F5
100
AcDbEntity
  8
0
100
AcDbLine
 10
-0.0125270284479484
 20
0.0165918786078691
 30
0.0
 11
-0.0478144325315952
 21
0.0331837553530931
 31
0.0
  0
LINE
  5
A83
330
9F5
100
AcDbEntity
  8
0
100
AcDbLine
 10
-0.0478144325315952
 20
0.0331837553530931
 30
0.0
 11
-0.0827489625662565
 21
0.0808412777259946
 31
0.0
  0
LINE
  5
A84
330
9F5
100
AcDbEntity
  8
0
100
AcDbLine
 10
-0.0827489625662565
 20
0.0808412777259946
 30
0.0
 11
-0.0975696723326109
 21
0.1514450125396252
 31
0.0
  0
LINE
  5
A85
330
9F5
100
AcDbEntity
  8
0
100
AcDbLine
 10
-0.1141547522274777
 20
0.1472087893635035
 30
0.0
 11
-0.0891006953315809
 21
0.0893137259408832
 31
0.0
  0
LINE
  5
A86
330
9F5
100
AcDbEntity
  8
0
100
AcDbLine
 10
-0.099334042519331
 20
0.1327350232750177
 30
0.0
 11
-0.1099202637560666
 21
0.155681237578392
 31
0.0
  0
LINE
  5
A87
330
9F5
100
AcDbEntity
  8
0
100
AcDbLine
 10
-0.1099202637560666
 20
0.155681237578392
 30
0.0
 11
-0.2073134991223924
 21
0.2220487501472235
 31
0.0
  0
LINE
  5
A88
330
9F5
100
AcDbEntity
  8
0
100
AcDbLine
 10
-0.1141547522274777
 20
0.1472087893635035
 30
0.0
 11
-0.1409731793683022
 21
0.1390893589705229
 31
0.0
  0
LINE
  5
A89
330
9F5
100
AcDbEntity
  8
0
100
AcDbLine
 10
-0.1409731793683022
 20
0.1390893589705229
 30
0.0
 11
-0.1843766864622012
 21
0.0871956143528223
 31
0.0
  0
LINE
  5
A8A
330
9F5
100
AcDbEntity
  8
0
100
AcDbLine
 10
-0.1843766864622012
 20
0.0871956143528223
 30
0.0
 11
-0.2634204716887325
 21
0.0727218482643366
 31
0.0
  0
LINE
  5
A8B
330
9F5
100
AcDbEntity
  8
0
100
AcDbLine
 10
-0.2634204716887325
 20
0.0727218482643366
 30
0.0
 11
-0.3629309512325563
 21
0.03741998039186
 31
0.0
  0
LINE
  5
A8C
330
9F5
100
AcDbEntity
  8
0
100
AcDbLine
 10
-0.3629309512325563
 20
0.03741998039186
 30
0.0
 11
-0.4148034352692775
 21
-0.0165918786078691
 31
0.0
  0
LINE
  5
A8D
330
9F5
100
AcDbEntity
  8
0
100
AcDbLine
 10
0.0848662069183774
 20
0.3381918948143721
 30
0.0
 11
0.1346214467193931
 21
0.3879675287753344
 31
0.0
  0
LINE
  5
A8E
330
9F5
100
AcDbEntity
  8
0
100
AcDbLine
 10
0.1346214467193931
 20
0.3879675287753344
 30
0.0
 11
0.1677916065673344
 21
0.4603363592177629
 31
0.0
  0
LINE
  5
A8F
330
9F5
100
AcDbEntity
  8
0
100
AcDbLine
 10
0.0831018366734497
 20
0.3505475493147969
 30
0.0
 11
0.1346214467193931
 21
0.3900856412947178
 31
0.0
  0
LINE
  5
A90
330
9F5
100
AcDbEntity
  8
0
100
AcDbLine
 10
0.0478144325898029
 20
0.1037874910980463
 30
0.0
 11
0.1388559351908043
 21
0.1761563215404749
 31
0.0
  0
LINE
  5
A91
330
9F5
100
AcDbEntity
  8
0
100
AcDbLine
 10
0.1388559351908043
 20
0.1761563215404749
 30
0.0
 11
0.1928456634632312
 21
0.1803925456479192
 31
0.0
  0
LINE
  5
A92
330
9F5
100
AcDbEntity
  8
0
100
AcDbLine
 10
0.1928456634632312
 20
0.1803925456479192
 30
0.0
 11
0.2238985791336745
 21
0.192748200148344
 31
0.0
  0
LINE
  5
A93
330
9F5
100
AcDbEntity
  8
0
100
AcDbLine
 10
0.2238985791336745
 20
0.192748200148344
 30
0.0
 11
0.2821227959357202
 21
0.2365225162357092
 31
0.0
  0
LINE
  5
A94
330
9F5
100
AcDbEntity
  8
0
100
AcDbLine
 10
0.2821227959357202
 20
0.2365225162357092
 30
0.0
 11
0.3212918144417927
 21
0.3050081394612789
 31
0.0
  0
LINE
  5
A95
330
9F5
100
AcDbEntity
  8
0
100
AcDbLine
 10
0.3212918144417927
 20
0.3050081394612789
 30
0.0
 11
0.3544619743479416
 21
0.3297194465994835
 31
0.0
  0
LINE
  5
A96
330
9F5
100
AcDbEntity
  8
0
100
AcDbLine
 10
0.0456971883540973
 20
0.1140250330790877
 30
0.0
 11
0.1201536110020243
 21
0.16380066704005
 31
0.0
  0
LINE
  5
A97
330
9F5
100
AcDbEntity
  8
0
100
AcDbLine
 10
0.0414626998826861
 20
0.1263806875795126
 30
0.0
 11
0.1346214467193931
 21
0.1803925456479192
 31
0.0
  0
LINE
  5
A98
330
9F5
100
AcDbEntity
  8
0
100
AcDbLine
 10
0.1346214467193931
 20
0.1803925456479192
 30
0.0
 11
0.1762605835683644
 21
0.1846287697553635
 31
0.0
  0
LINE
  5
A99
330
9F5
100
AcDbEntity
  8
0
100
AcDbLine
 10
0.1762605835683644
 20
0.1846287697553635
 30
0.0
 11
0.1843766864622012
 21
0.2114581894129515
 31
0.0
  0
LINE
  5
A9A
330
9F5
100
AcDbEntity
  8
0
100
AcDbLine
 10
0.1843766864622012
 20
0.2114581894129515
 30
0.0
 11
0.1991973961703479
 21
0.2778257001191378
 31
0.0
  0
LINE
  5
A9B
330
9F5
100
AcDbEntity
  8
0
100
AcDbLine
 10
0.1991973961703479
 20
0.2778257001191378
 30
0.0
 11
0.2694193304050714
 21
0.3110094573348761
 31
0.0
  0
LINE
  5
A9C
330
9F5
100
AcDbEntity
  8
0
100
AcDbLine
 10
0.2694193304050714
 20
0.3110094573348761
 30
0.0
 11
0.3212918144417927
 21
0.3650213144719601
 31
0.0
  0
LINE
  5
A9D
330
9F5
100
AcDbEntity
  8
0
100
AcDbLine
 10
0.19708015199285
 20
0.2820619251579046
 30
0.0
 11
0.2175468463683501
 21
0.3403100073337555
 31
0.0
  0
LINE
  5
A9E
330
9F5
100
AcDbEntity
  8
0
100
AcDbLine
 10
0.2175468463683501
 20
0.3403100073337555
 30
0.0
 11
0.2341319263214245
 21
0.3629032028838992
 31
0.0
  0
LINE
  5
A9F
330
9F5
100
AcDbEntity
  8
0
100
AcDbLine
 10
0.2341319263214245
 20
0.3629032028838992
 30
0.0
 11
0.2426009032642469
 21
0.4190331734716892
 31
0.0
  0
LINE
  5
AA0
330
9F5
100
AcDbEntity
  8
0
100
AcDbLine
 10
0.0643995124846697
 20
0.3028900269418955
 30
0.0
 11
0.1099202638142742
 21
0.3173637930303812
 31
0.0
  0
LINE
  5
AA1
330
9F5
100
AcDbEntity
  8
0
100
AcDbLine
 10
0.1099202638142742
 20
0.3173637930303812
 30
0.0
 11
0.17837782780407
 21
0.3484294367954135
 31
0.0
  0
LINE
  5
AA2
330
9F5
100
AcDbEntity
  8
0
100
AcDbLine
 10
0.17837782780407
 20
0.3484294367954135
 30
0.0
 11
0.2821227959357202
 21
0.3960869591683149
 31
0.0
  0
LINE
  5
AA3
330
9F5
100
AcDbEntity
  8
0
100
AcDbLine
 10
0.1804950720397756
 20
0.3505475493147969
 30
0.0
 11
0.1843766864622012
 21
0.3773769680410624
 31
0.0
  0
LINE
  5
AA4
330
9F5
100
AcDbEntity
  8
0
100
AcDbLine
 10
0.0703983712010086
 20
0.3152456805109978
 30
0.0
 11
0.1120375080499798
 21
0.3194819055497646
 31
0.0
  0
LINE
  5
AA5
330
9F5
100
AcDbEntity
  8
0
100
AcDbLine
 10
0.1639099920867011
 20
0.1846287697553635
 30
0.0
 11
0.18861117499182
 21
0.2407587394118309
 31
0.0
  0
LINE
  5
AA6
330
9F5
100
AcDbEntity
  8
0
100
AcDbLine
 10
0.2030790106509812
 20
0.2905343733727932
 30
0.0
 11
0.2673020861693658
 21
0.3088913448154926
 31
0.0
  0
LINE
  5
AA7
330
9F5
100
AcDbEntity
  8
0
100
AcDbLine
 10
0.2881216545938514
 20
0.3318375591188669
 30
0.0
 11
0.3255263029132038
 21
0.3586669787764549
 31
0.0
  0
LINE
  5
AA8
330
9F5
100
AcDbEntity
  8
0
100
AcDbLine
 10
0.2881216545938514
 20
0.3276013340801001
 30
0.0
 11
0.329760791384615
 21
0.3505475493147969
 31
0.0
  0
LINE
  5
AA9
330
9F5
100
AcDbEntity
  8
0
100
AcDbLine
 10
-0.2115479876520112
 20
0.2322862911969423
 30
0.0
 11
-0.2634204716887325
 21
0.2718243841081858
 31
0.0
  0
LINE
  5
AAA
330
9F5
100
AcDbEntity
  8
0
100
AcDbLine
 10
-0.2634204716887325
 20
0.2718243841081858
 30
0.0
 11
-0.2838871660642326
 21
0.3237181296572089
 31
0.0
  0
LINE
  5
AAB
330
9F5
100
AcDbEntity
  8
0
100
AcDbLine
 10
-0.2838871660642326
 20
0.3237181296572089
 30
0.0
 11
-0.3276435471489094
 21
0.3713756501674652
 31
0.0
  0
LINE
  5
AAC
330
9F5
100
AcDbEntity
  8
0
100
AcDbLine
 10
-0.2673020861111581
 20
0.2697062715888023
 30
0.0
 11
-0.3047067344305106
 21
0.2697062715888023
 31
0.0
  0
LINE
  5
AAD
330
9F5
100
AcDbEntity
  8
0
100
AcDbLine
 10
-0.3047067344305106
 20
0.2697062715888023
 30
0.0
 11
-0.3463458713376895
 21
0.2922994662076235
 31
0.0
  0
LINE
  5
AAE
330
9F5
100
AcDbEntity
  8
0
100
AcDbLine
 10
-0.1512065265560523
 20
0.1969844233244658
 30
0.0
 11
-0.1575582593213767
 21
0.2884162608534098
 31
0.0
  0
LINE
  5
AAF
330
9F5
100
AcDbEntity
  8
0
100
AcDbLine
 10
-0.1575582593213767
 20
0.2884162608534098
 30
0.0
 11
-0.1741433392744511
 21
0.3254832234233618
 31
0.0
  0
LINE
  5
AB0
330
9F5
100
AcDbEntity
  8
0
100
AcDbLine
 10
-0.1741433392744511
 20
0.3254832234233618
 30
0.0
 11
-0.1596755035570823
 21
0.4271526020020247
 31
0.0
  0
LINE
  5
AB1
330
9F5
100
AcDbEntity
  8
0
100
AcDbLine
 10
-0.1596755035570823
 20
0.4271526020020247
 30
0.0
 11
-0.166027236264199
 21
0.4730450306087732
 31
0.0
  0
LINE
  5
AB2
330
9F5
100
AcDbEntity
  8
0
100
AcDbLine
 10
-0.1741433392744511
 20
0.3254832234233618
 30
0.0
 11
-0.1575582593213767
 21
0.2718243841081858
 31
0.0
  0
LINE
  5
AB3
330
9F5
100
AcDbEntity
  8
0
100
AcDbLine
 10
-0.1575582593213767
 20
0.2718243841081858
 30
0.0
 11
-0.1596755035570823
 21
0.20122064743191
 31
0.0
  0
LINE
  5
AB4
330
9F5
100
AcDbEntity
  8
0
100
AcDbLine
 10
-0.1639099920867011
 20
0.4066775189712644
 30
0.0
 11
-0.1762605834519491
 21
0.4313888270407915
 31
0.0
  0
LINE
  5
AB5
330
9F5
100
AcDbEntity
  8
0
100
AcDbLine
 10
-0.3463458713376895
 20
0.2322862911969423
 30
0.0
 11
-0.4186850497499108
 21
0.2675881590694189
 31
0.0
  0
LINE
  5
AB6
330
9F5
100
AcDbEntity
  8
0
100
AcDbLine
 10
-0.3318780356785282
 20
0.2322862911969423
 30
0.0
 11
-0.412686191033572
 21
0.2757075894623995
 31
0.0
  0
LINE
  5
AB7
330
9F5
100
AcDbEntity
  8
0
100
AcDbLine
 10
-0.116271996521391
 20
0.155681237578392
 30
0.0
 11
-0.1452076678979211
 21
0.1390893589705229
 31
0.0
  0
LINE
  5
AB8
330
9F5
100
AcDbEntity
  8
0
100
AcDbLine
 10
-0.1452076678979211
 20
0.1390893589705229
 30
0.0
 11
-0.2051962548866868
 21
0.1306169116869569
 31
0.0
  0
LINE
  5
AB9
330
9F5
100
AcDbEntity
  8
0
100
AcDbLine
 10
-0.2051962548866868
 20
0.1306169116869569
 30
0.0
 11
-0.2673020861111581
 21
0.14509067684412
 31
0.0
  0
LINE
  5
ABA
330
9F5
100
AcDbEntity
  8
0
100
AcDbLine
 10
-0.2673020861111581
 20
0.14509067684412
 30
0.0
 11
-0.3463458713376895
 21
0.1909831054508686
 31
0.0
  0
LINE
  5
ABB
330
9F5
100
AcDbEntity
  8
0
100
AcDbLine
 10
-0.3463458713376895
 20
0.1909831054508686
 30
0.0
 11
-0.4042172140907496
 21
0.1909831054508686
 31
0.0
  0
LINE
  5
ABC
330
9F5
100
AcDbEntity
  8
0
100
AcDbLine
 10
-0.2009617664152756
 20
0.1348531357944012
 30
0.0
 11
-0.2694193303468637
 21
0.1948663108050823
 31
0.0
  0
LINE
  5
ABD
330
9F5
100
AcDbEntity
  8
0
100
AcDbLine
 10
-0.0891006953315809
 20
0.1595644429326057
 30
0.0
 11
-0.0767501039081253
 21
0.2446419447660446
 31
0.0
  0
LINE
  5
ABE
330
9F5
100
AcDbEntity
  8
0
100
AcDbLine
 10
-0.0767501039081253
 20
0.2446419447660446
 30
0.0
 11
-0.1056857752846554
 21
0.2965356912463903
 31
0.0
  0
LINE
  5
ABF
330
9F5
100
AcDbEntity
  8
0
100
AcDbLine
 10
-0.0975696723326109
 20
0.1616825554519892
 30
0.0
 11
-0.0788673481438309
 21
0.2425238322466612
 31
0.0
  0
LINE
  5
AC0
330
9F5
100
AcDbEntity
  8
0
100
AcDbLine
 10
-0.0149162500165403
 20
0.0167683865875006
 30
0.0
 11
-0.0806274000206031
 21
-0.0413275212049484
 31
0.0
  0
LINE
  5
AC1
330
9F5
100
AcDbEntity
  8
0
100
AcDbLine
 10
-0.0806274000206031
 20
-0.0413275212049484
 30
0.0
 11
-0.0889148360583931
 21
-0.0890298504382372
 31
0.0
  0
LINE
  5
AC2
330
9F5
100
AcDbEntity
  8
0
100
AcDbLine
 10
-0.0889148360583931
 20
-0.0890298504382372
 30
0.0
 11
-0.1034478760557249
 21
-0.0973206833004951
 31
0.0
  0
LINE
  5
AC3
330
9F5
100
AcDbEntity
  8
0
100
AcDbLine
 10
-0.1034478760557249
 20
-0.0973206833004951
 30
0.0
 11
-0.1262683521490544
 21
-0.1160651762038469
 31
0.0
  0
LINE
  5
AC4
330
9F5
100
AcDbEntity
  8
0
100
AcDbLine
 10
-0.1262683521490544
 20
-0.1160651762038469
 30
0.0
 11
-0.1594180963584222
 21
-0.12015051394701
 31
0.0
  0
LINE
  5
AC5
330
9F5
100
AcDbEntity
  8
0
100
AcDbLine
 10
-0.1594180963584222
 20
-0.12015051394701
 30
0.0
 11
-0.2216339206206612
 21
-0.1450230125337839
 31
0.0
  0
LINE
  5
AC6
330
9F5
100
AcDbEntity
  8
0
100
AcDbLine
 10
-0.2216339206206612
 20
-0.1450230125337839
 30
0.0
 11
-0.2610292687895708
 21
-0.1761436760425568
 31
0.0
  0
LINE
  5
AC7
330
9F5
100
AcDbEntity
  8
0
100
AcDbLine
 10
-0.2610292687895708
 20
-0.1761436760425568
 30
0.0
 11
-0.344023737066891
 21
-0.1700156684964895
 31
0.0
  0
LINE
  5
AC8
330
9F5
100
AcDbEntity
  8
0
100
AcDbLine
 10
-0.344023737066891
 20
-0.1700156684964895
 30
0.0
 11
-0.4373474734602496
 21
-0.1989735057577491
 31
0.0
  0
LINE
  5
AC9
330
9F5
100
AcDbEntity
  8
0
100
AcDbLine
 10
-0.1304721240885556
 20
-0.1160651762038469
 30
0.0
 11
-0.1242265200708061
 21
-0.1783065013587475
 31
0.0
  0
LINE
  5
ACA
330
9F5
100
AcDbEntity
  8
0
100
AcDbLine
 10
-0.1242265200708061
 20
-0.1783065013587475
 30
0.0
 11
-0.1345557882450521
 21
-0.2383850011974573
 31
0.0
  0
LINE
  5
ACB
330
9F5
100
AcDbEntity
  8
0
100
AcDbLine
 10
-0.1345557882450521
 20
-0.2383850011974573
 30
0.0
 11
-0.1905260084895417
 21
-0.3048318224027753
 31
0.0
  0
LINE
  5
ACC
330
9F5
100
AcDbEntity
  8
0
100
AcDbLine
 10
-0.1905260084895417
 20
-0.3048318224027753
 30
0.0
 11
-0.1967716125072911
 21
-0.3960309848189354
 31
0.0
  0
LINE
  5
ACD
330
9F5
100
AcDbEntity
  8
0
100
AcDbLine
 10
-0.1967716125072911
 20
-0.3960309848189354
 30
0.0
 11
-0.2113046525046229
 21
-0.4168181456625462
 31
0.0
  0
LINE
  5
ACE
330
9F5
100
AcDbEntity
  8
0
100
AcDbLine
 10
-0.0268191195791587
 20
0.0187509777024388
 30
0.0
 11
-0.0785855679423548
 21
-0.0330366883426905
 31
0.0
  0
LINE
  5
ACF
330
9F5
100
AcDbEntity
  8
0
100
AcDbLine
 10
-0.0785855679423548
 20
-0.0330366883426905
 30
0.0
 11
-0.0371483876369894
 21
0.0229564718902111
 31
0.0
  0
LINE
  5
AD0
330
9F5
100
AcDbEntity
  8
0
100
AcDbLine
 10
-0.082789339881856
 20
-0.0309940204024315
 30
0.0
 11
-0.0931186079978943
 21
-0.0849445136263967
 31
0.0
  0
LINE
  5
AD1
330
9F5
100
AcDbEntity
  8
0
100
AcDbLine
 10
-0.0931186079978943
 20
-0.0849445136263967
 30
0.0
 11
-0.1262683521490544
 21
-0.1140225073322654
 31
0.0
  0
LINE
  5
AD2
330
9F5
100
AcDbEntity
  8
0
100
AcDbLine
 10
-0.426898097502999
 20
-0.2197606666013598
 30
0.0
 11
-0.3502693410264328
 21
-0.1741010062396526
 31
0.0
  0
LINE
  5
AD3
330
9F5
100
AcDbEntity
  8
0
100
AcDbLine
 10
-0.4311018694425002
 20
-0.2114698328077793
 30
0.0
 11
-0.3957901854300871
 21
-0.1948881670832634
 31
0.0
  0
LINE
  5
AD4
330
9F5
100
AcDbEntity
  8
0
100
AcDbLine
 10
-0.3957901854300871
 20
-0.1948881670832634
 30
0.0
 11
-0.4373474734602496
 21
-0.2031789999455214
 31
0.0
  0
LINE
  5
AD5
330
9F5
100
AcDbEntity
  8
0
100
AcDbLine
 10
0.0105343965115026
 20
0.0146656390279531
 30
0.0
 11
0.0416423086426221
 21
0.0395381385460496
 31
0.0
  0
LINE
  5
AD6
330
9F5
100
AcDbEntity
  8
0
100
AcDbLine
 10
0.0416423086426221
 20
0.0395381385460496
 30
0.0
 11
0.0707083886954933
 21
0.0498716402798891
 31
0.0
  0
LINE
  5
AD7
330
9F5
100
AcDbEntity
  8
0
100
AcDbLine
 10
0.0707083886954933
 20
0.0498716402798891
 30
0.0
 11
0.1349660450359806
 21
0.0498716402798891
 31
0.0
  0
LINE
  5
AD8
330
9F5
100
AcDbEntity
  8
0
100
AcDbLine
 10
0.1349660450359806
 20
0.0498716402798891
 30
0.0
 11
0.1764032252831385
 21
0.0415808074176311
 31
0.0
  0
LINE
  5
AD9
330
9F5
100
AcDbEntity
  8
0
100
AcDbLine
 10
0.1764032252831385
 20
0.0415808074176311
 30
0.0
 11
0.278014397714287
 21
0.0498716402798891
 31
0.0
  0
LINE
  5
ADA
330
9F5
100
AcDbEntity
  8
0
100
AcDbLine
 10
0.278014397714287
 20
0.0498716402798891
 30
0.0
 11
0.3277390140574425
 21
0.1163184614852071
 31
0.0
  0
LINE
  5
ADB
330
9F5
100
AcDbEntity
  8
0
100
AcDbLine
 10
0.3277390140574425
 20
0.1163184614852071
 30
0.0
 11
0.4004042141605169
 21
0.1681061275303364
 31
0.0
  0
LINE
  5
ADC
330
9F5
100
AcDbEntity
  8
0
100
AcDbLine
 10
0.4004042141605169
 20
0.1681061275303364
 30
0.0
 11
0.4459250585641712
 21
0.1701487973332405
 31
0.0
  0
LINE
  5
ADD
330
9F5
100
AcDbEntity
  8
0
100
AcDbLine
 10
0.008492564491462
 20
0.0229564718902111
 30
0.0
 11
0.0499297446804121
 21
0.0498716402798891
 31
0.0
  0
LINE
  5
ADE
330
9F5
100
AcDbEntity
  8
0
100
AcDbLine
 10
0.0188218326075003
 20
0.0063748061656952
 30
0.0
 11
0.0665046167559922
 21
0.045786302536726
 31
0.0
  0
LINE
  5
ADF
330
9F5
100
AcDbEntity
  8
0
100
AcDbLine
 10
0.0665046167559922
 20
0.045786302536726
 30
0.0
 11
0.0872832607710734
 21
0.045786302536726
 31
0.0
  0
LINE
  5
AE0
330
9F5
100
AcDbEntity
  8
0
100
AcDbLine
 10
0.0872832607710734
 20
0.045786302536726
 30
0.0
 11
0.1390497091924772
 21
0.0084174759685993
 31
0.0
  0
LINE
  5
AE1
330
9F5
100
AcDbEntity
  8
0
100
AcDbLine
 10
0.1287204410182312
 20
0.0498716402798891
 30
0.0
 11
0.1929780973587185
 21
0.0747441397979856
 31
0.0
  0
LINE
  5
AE2
330
9F5
100
AcDbEntity
  8
0
100
AcDbLine
 10
0.1929780973587185
 20
0.0747441397979856
 30
0.0
 11
0.2386190495453775
 21
0.1515244618058205
 31
0.0
  0
LINE
  5
AE3
330
9F5
100
AcDbEntity
  8
0
100
AcDbLine
 10
0.2386190495453775
 20
0.1515244618058205
 30
0.0
 11
0.29675120965112
 21
0.1888932893052697
 31
0.0
  0
LINE
  5
AE4
330
9F5
100
AcDbEntity
  8
0
100
AcDbLine
 10
0.29675120965112
 20
0.1888932893052697
 30
0.0
 11
0.3485176580143161
 21
0.1951414532959461
 31
0.0
  0
LINE
  5
AE5
330
9F5
100
AcDbEntity
  8
0
100
AcDbLine
 10
0.3485176580143161
 20
0.1951414532959461
 30
0.0
 11
0.398242274299264
 21
0.2614681161940098
 31
0.0
  0
LINE
  5
AE6
330
9F5
100
AcDbEntity
  8
0
100
AcDbLine
 10
0.2365772174671292
 20
0.153567130677402
 30
0.0
 11
0.261439525638707
 21
0.2677162811160088
 31
0.0
  0
LINE
  5
AE7
330
9F5
100
AcDbEntity
  8
0
100
AcDbLine
 10
0.0996543610235676
 20
0.0395381385460496
 30
0.0
 11
0.1432534810737707
 21
0.0478289714083076
 31
0.0
  0
LINE
  5
AE8
330
9F5
100
AcDbEntity
  8
0
100
AcDbLine
 10
0.1515409171115607
 20
0.0498716402798891
 30
0.0
 11
0.1951400372199714
 21
0.0747441397979856
 31
0.0
  0
LINE
  5
AE9
330
9F5
100
AcDbEntity
  8
0
100
AcDbLine
 10
0.2406608816236258
 20
0.1660634595900774
 30
0.0
 11
0.2987930417293683
 21
0.1909359581768513
 31
0.0
  0
LINE
  5
AEA
330
9F5
100
AcDbEntity
  8
0
100
AcDbLine
 10
0.3485176580143161
 20
0.1951414532959461
 30
0.0
 11
0.4086916501983069
 21
0.2489717891439795
 31
0.0
  0
LINE
  5
AEB
330
9F5
100
AcDbEntity
  8
0
100
AcDbLine
 10
0.2842600017320365
 20
0.0519143100827932
 30
0.0
 11
0.3610088659916073
 21
0.0603252993896604
 31
0.0
  0
LINE
  5
AEC
330
9F5
100
AcDbEntity
  8
0
100
AcDbLine
 10
0.3610088659916073
 20
0.0603252993896604
 30
0.0
 11
0.3899548383196816
 21
0.0581624731421471
 31
0.0
  0
LINE
  5
AED
330
9F5
100
AcDbEntity
  8
0
100
AcDbLine
 10
0.2945892697898671
 20
0.0561198042705655
 30
0.0
 11
0.3319427858805284
 21
0.1204038001596928
 31
0.0
  0
LINE
  5
AEE
330
9F5
100
AcDbEntity
  8
0
100
AcDbLine
 10
0.2987930417293683
 20
0.1888932893052697
 30
0.0
 11
0.3339846179587767
 21
0.2511346153914928
 31
0.0
  0
LINE
  5
AEF
330
9F5
100
AcDbEntity
  8
0
100
AcDbLine
 10
0.1992237013764679
 20
0.0747441397979856
 30
0.0
 11
0.2759725656360388
 21
0.1141556352376938
 31
0.0
  0
LINE
  5
AF0
330
9F5
100
AcDbEntity
  8
0
100
AcDbLine
 10
0.3319427858805284
 20
0.1163184614852071
 30
0.0
 11
0.460458098561503
 21
0.1017794646322727
 31
0.0
  0
LINE
  5
AF1
330
9F5
100
AcDbEntity
  8
0
100
AcDbLine
 10
-0.1532926001236774
 20
0.1369854658842087
 30
0.0
 11
-0.1844005123130046
 21
0.0872404677793384
 31
0.0
  0
LINE
  5
AF2
330
9F5
100
AcDbEntity
  8
0
100
AcDbLine
 10
-0.1615800361614674
 20
0.1307373009622097
 30
0.0
 11
-0.2092628204263747
 21
0.1307373009622097
 31
0.0
  0
LINE
  5
AF3
330
9F5
100
AcDbEntity
  8
0
100
AcDbLine
 10
-0.2155084243859164
 20
0.1286946311593056
 30
0.0
 11
-0.2921371809206903
 21
0.1369854658842087
 31
0.0
  0
LINE
  5
AF4
330
9F5
100
AcDbEntity
  8
0
100
AcDbLine
 10
-0.2921371809206903
 20
0.1369854658842087
 30
0.0
 11
-0.3563948372611776
 21
0.0996166374534369
 31
0.0
  0
LINE
  5
AF5
330
9F5
100
AcDbEntity
  8
0
100
AcDbLine
 10
-0.3563948372611776
 20
0.0996166374534369
 30
0.0
 11
-0.3896646891953424
 21
0.0934886317700148
 31
0.0
  0
LINE
  5
AF6
330
9F5
100
AcDbEntity
  8
0
100
AcDbLine
 10
-0.3543530051829293
 20
0.0996166374534369
 30
0.0
 11
-0.3937483533518389
 21
0.1286946311593056
 31
0.0
  0
LINE
  5
AF7
330
9F5
100
AcDbEntity
  8
0
100
AcDbLine
 10
-0.3481074012233876
 20
0.1888932893052697
 30
0.0
 11
-0.3792153132962994
 21
0.1660634595900774
 31
0.0
  0
LINE
  5
AF8
330
9F5
100
AcDbEntity
  8
0
100
AcDbLine
 10
-0.219592088542413
 20
0.1349427960813046
 30
0.0
 11
-0.2838497448829003
 21
0.1432336289435625
 31
0.0
  0
LINE
  5
AF9
330
9F5
100
AcDbEntity
  8
0
100
AcDbLine
 10
-0.2838497448829003
 20
0.1432336289435625
 30
0.0
 11
-0.3460655691451393
 21
0.1888932893052697
 31
0.0
  0
LINE
  5
AFA
330
9F5
100
AcDbEntity
  8
0
100
AcDbLine
 10
-0.2589874367113225
 20
0.072701470926404
 30
0.0
 11
-0.3605986092006788
 21
0.1390281338244677
 31
0.0
  0
LINE
  5
AFB
330
9F5
100
AcDbEntity
  8
0
100
AcDbLine
 10
-0.2983827849384397
 20
0.1017794646322727
 30
0.0
 11
-0.2507000006735325
 21
0.0769069651141763
 31
0.0
  0
LINE
  5
AFC
330
9F5
100
AcDbEntity
  8
0
100
AcDbLine
 10
-0.2610292687895708
 20
0.066453306004405
 30
0.0
 11
-0.1884841764112934
 21
0.0830349717289209
 31
0.0
  0
LINE
  5
AFD
330
9F5
100
AcDbEntity
  8
0
100
AcDbLine
 10
-0.263191208592616
 20
0.064410638064146
 30
0.0
 11
-0.3025865567615256
 21
-0.0206605177372694
 31
0.0
  0
LINE
  5
AFE
330
9F5
100
AcDbEntity
  8
0
100
AcDbLine
 10
-0.3025865567615256
 20
-0.0206605177372694
 30
0.0
 11
-0.3481074012233876
 21
-0.0413275212049484
 31
0.0
  0
LINE
  5
AFF
330
9F5
100
AcDbEntity
  8
0
100
AcDbLine
 10
-0.3481074012233876
 20
-0.0413275212049484
 30
0.0
 11
-0.3979521252913401
 21
-0.0766536798328161
 31
0.0
  0
LINE
  5
B00
330
9F5
100
AcDbEntity
  8
0
100
AcDbLine
 10
-0.300424617016688
 20
-0.0247458554804325
 30
0.0
 11
-0.3648023810237646
 21
-0.1223133392632008
 31
0.0
  0
LINE
  5
B01
330
9F5
100
AcDbEntity
  8
0
100
AcDbLine
 10
-0.273520476766862
 20
0.066453306004405
 30
0.0
 11
-0.3066702209180221
 21
-0.0227031875401735
 31
0.0
  0
LINE
  5
B02
330
9F5
100
AcDbEntity
  8
0
100
AcDbLine
 10
-0.0433939916547388
 20
0.0187509777024388
 30
0.0
 11
-0.0848311719018966
 21
0.0769069651141763
 31
0.0
  0
LINE
  5
B03
330
9F5
100
AcDbEntity
  8
0
100
AcDbLine
 10
-0.045435823732987
 20
0.0167083088308573
 30
0.0
 11
-0.1138972519547679
 21
-0.0019160266965628
 31
0.0
  0
LINE
  5
B04
330
9F5
100
AcDbEntity
  8
0
100
AcDbLine
 10
-0.1138972519547679
 20
-0.0019160266965628
 30
0.0
 11
-0.1615800361614674
 21
-0.0579091878607869
 31
0.0
  0
LINE
  5
B05
330
9F5
100
AcDbEntity
  8
0
100
AcDbLine
 10
-0.1615800361614674
 20
-0.0579091878607869
 30
0.0
 11
-0.2382087926962413
 21
-0.0662000207230449
 31
0.0
  0
LINE
  5
B06
330
9F5
100
AcDbEntity
  8
0
100
AcDbLine
 10
-0.2382087926962413
 20
-0.0662000207230449
 30
0.0
 11
-0.2776041409233585
 21
-0.109817011281848
 31
0.0
  0
LINE
  5
B07
330
9F5
100
AcDbEntity
  8
0
100
AcDbLine
 10
-0.1573762642801739
 20
-0.0600720141083002
 30
0.0
 11
-0.2072209883481264
 21
-0.207264338620007
 31
0.0
  0
LINE
  5
B08
330
9F5
100
AcDbEntity
  8
0
100
AcDbLine
 10
-0.2072209883481264
 20
-0.207264338620007
 30
0.0
 11
-0.263191208592616
 21
-0.2715483326464891
 31
0.0
  0
LINE
  5
B09
330
9F5
100
AcDbEntity
  8
0
100
AcDbLine
 10
-0.0516814276925288
 20
0.0249991416931152
 30
0.0
 11
-0.1159390840330161
 21
0.0001266431063414
 31
0.0
  0
LINE
  5
B0A
330
9F5
100
AcDbEntity
  8
0
100
AcDbLine
 10
-0.1159390840330161
 20
0.0001266431063414
 30
0.0
 11
-0.1719093043357134
 21
-0.0579091878607869
 31
0.0
  0
LINE
  5
B0B
330
9F5
100
AcDbEntity
  8
0
100
AcDbLine
 10
-0.2030172164086252
 20
-0.0621146839112043
 30
0.0
 11
-0.3254070328548551
 21
-0.0475756861269474
 31
0.0
  0
LINE
  5
B0C
330
9F5
100
AcDbEntity
  8
0
100
AcDbLine
 10
-0.1304721240885556
 20
-0.128441346809268
 30
0.0
 11
-0.1553344322019257
 21
-0.1243560090661049
 31
0.0
  0
LINE
  5
B0D
330
9F5
100
AcDbEntity
  8
0
100
AcDbLine
 10
-0.1553344322019257
 20
-0.1243560090661049
 30
0.0
 11
-0.2133464845828712
 21
-0.1471858397126198
 31
0.0
  0
LINE
  5
B0E
330
9F5
100
AcDbEntity
  8
0
100
AcDbLine
 10
-0.2133464845828712
 20
-0.1471858397126198
 30
0.0
 11
-0.2361669606762007
 21
-0.1948881670832634
 31
0.0
  0
LINE
  5
B0F
330
9F5
100
AcDbEntity
  8
0
100
AcDbLine
 10
-0.2361669606762007
 20
-0.1948881670832634
 30
0.0
 11
-0.2714786446886137
 21
-0.2052216697484255
 31
0.0
  0
LINE
  5
B10
330
9F5
100
AcDbEntity
  8
0
100
AcDbLine
 10
-0.2714786446886137
 20
-0.2052216697484255
 30
0.0
 11
-0.300424617016688
 21
-0.2571294941008091
 31
0.0
  0
LINE
  5
B11
330
9F5
100
AcDbEntity
  8
0
100
AcDbLine
 10
-0.300424617016688
 20
-0.2571294941008091
 30
0.0
 11
-0.3792153132962994
 21
-0.294378163293004
 31
0.0
  0
LINE
  5
B12
330
9F5
100
AcDbEntity
  8
0
100
AcDbLine
 10
-0.2860116847441532
 20
-0.2363423323258758
 30
0.0
 11
-0.3108739928575233
 21
-0.3586621582508087
 31
0.0
  0
LINE
  5
B13
330
9F5
100
AcDbEntity
  8
0
100
AcDbLine
 10
-0.1532926001236774
 20
-0.0579091878607869
 30
0.0
 11
-0.1034478760557249
 21
0.0001266431063414
 31
0.0
  0
LINE
  5
B14
330
9F5
100
AcDbEntity
  8
0
100
AcDbLine
 10
-0.0149162500165403
 20
0.0167683865875006
 30
0.0
 11
-0.0391902197152376
 21
-0.0849445136263967
 31
0.0
  0
LINE
  5
B15
330
9F5
100
AcDbEntity
  8
0
100
AcDbLine
 10
-0.0391902197152376
 20
-0.0849445136263967
 30
0.0
 11
-0.0268191195791587
 21
-0.136732179671526
 31
0.0
  0
LINE
  5
B16
330
9F5
100
AcDbEntity
  8
0
100
AcDbLine
 10
-0.0268191195791587
 20
-0.136732179671526
 30
0.0
 11
-0.0018367036245763
 21
-0.1512711765244603
 31
0.0
  0
LINE
  5
B17
330
9F5
100
AcDbEntity
  8
0
100
AcDbLine
 10
-0.0018367036245763
 20
-0.1512711765244603
 30
0.0
 11
0.0769539926550351
 21
-0.1741010062396526
 31
0.0
  0
LINE
  5
B18
330
9F5
100
AcDbEntity
  8
0
100
AcDbLine
 10
0.0769539926550351
 20
-0.1741010062396526
 30
0.0
 11
0.1183911729604006
 21
-0.207264338620007
 31
0.0
  0
LINE
  5
B19
330
9F5
100
AcDbEntity
  8
0
100
AcDbLine
 10
0.1183911729604006
 20
-0.207264338620007
 30
0.0
 11
0.1141874010208994
 21
-0.31095982901752
 31
0.0
  0
LINE
  5
B1A
330
9F5
100
AcDbEntity
  8
0
100
AcDbLine
 10
0.1141874010208994
 20
-0.31095982901752
 30
0.0
 11
0.0913669249275699
 21
-0.4168181456625462
 31
0.0
  0
LINE
  5
B1B
330
9F5
100
AcDbEntity
  8
0
100
AcDbLine
 10
0.0913669249275699
 20
-0.4168181456625462
 30
0.0
 11
0.1058999649831094
 21
-0.447938809171319
 31
0.0
  0
LINE
  5
B1C
330
9F5
100
AcDbEntity
  8
0
100
AcDbLine
 10
-0.0268191195791587
 20
0.0021693119779229
 30
0.0
 11
-0.0412320517934859
 21
-0.0807390175759792
 31
0.0
  0
LINE
  5
B1D
330
9F5
100
AcDbEntity
  8
0
100
AcDbLine
 10
-0.0122860795236193
 20
-0.0184976924210787
 30
0.0
 11
-0.0309027837356552
 21
-0.0829018438234925
 31
0.0
  0
LINE
  5
B1E
330
9F5
100
AcDbEntity
  8
0
100
AcDbLine
 10
-0.0309027837356552
 20
-0.0829018438234925
 30
0.0
 11
-0.0226153476396576
 21
-0.1326468419283628
 31
0.0
  0
LINE
  5
B1F
330
9F5
100
AcDbEntity
  8
0
100
AcDbLine
 10
-0.0226153476396576
 20
-0.1326468419283628
 30
0.0
 11
0.0064507324132137
 21
-0.1471858397126198
 31
0.0
  0
LINE
  5
B20
330
9F5
100
AcDbEntity
  8
0
100
AcDbLine
 10
0.0064507324132137
 20
-0.1471858397126198
 30
0.0
 11
0.0665046167559922
 21
-0.1658101733773947
 31
0.0
  0
LINE
  5
B21
330
9F5
100
AcDbEntity
  8
0
100
AcDbLine
 10
-0.0246571797179058
 20
-0.1450230125337839
 30
0.0
 11
-0.0329446158139035
 21
-0.1678528431802988
 31
0.0
  0
LINE
  5
B22
330
9F5
100
AcDbEntity
  8
0
100
AcDbLine
 10
-0.0329446158139035
 20
-0.1678528431802988
 30
0.0
 11
-0.0185316835413687
 21
-0.2197606666013598
 31
0.0
  0
LINE
  5
B23
330
9F5
100
AcDbEntity
  8
0
100
AcDbLine
 10
-0.0185316835413687
 20
-0.2197606666013598
 30
0.0
 11
0.0416423086426221
 21
-0.2488386612385511
 31
0.0
  0
LINE
  5
B24
330
9F5
100
AcDbEntity
  8
0
100
AcDbLine
 10
0.0416423086426221
 20
-0.2488386612385511
 30
0.0
 11
0.0499297446804121
 21
-0.3172079939395189
 31
0.0
  0
LINE
  5
B25
330
9F5
100
AcDbEntity
  8
0
100
AcDbLine
 10
-0.020573515619617
 20
-0.2238460052758455
 30
0.0
 11
-0.0391902197152376
 21
-0.2757538286969066
 31
0.0
  0
LINE
  5
B26
330
9F5
100
AcDbEntity
  8
0
100
AcDbLine
 10
-0.0391902197152376
 20
-0.2757538286969066
 30
0.0
 11
-0.0351065555587411
 21
-0.3276616521179676
 31
0.0
  0
LINE
  5
B27
330
9F5
100
AcDbEntity
  8
0
100
AcDbLine
 10
-0.0351065555587411
 20
-0.3276616521179676
 30
0.0
 11
-0.0080823076423258
 21
-0.3711584862321615
 31
0.0
  0
LINE
  5
B28
330
9F5
100
AcDbEntity
  8
0
100
AcDbLine
 10
-0.0080823076423258
 20
-0.3711584862321615
 30
0.0
 11
-0.020573515619617
 21
-0.4188608154654503
 31
0.0
  0
LINE
  5
B29
330
9F5
100
AcDbEntity
  8
0
100
AcDbLine
 10
-0.0371483876369894
 20
-0.2798391655087471
 30
0.0
 11
-0.0702981319045648
 21
-0.3172079939395189
 31
0.0
  0
LINE
  5
B2A
330
9F5
100
AcDbEntity
  8
0
100
AcDbLine
 10
-0.0702981319045648
 20
-0.3172079939395189
 30
0.0
 11
-0.0765437359223142
 21
-0.3794493190944195
 31
0.0
  0
LINE
  5
B2B
330
9F5
100
AcDbEntity
  8
0
100
AcDbLine
 10
-0.0765437359223142
 20
-0.3794493190944195
 30
0.0
 11
-0.1408013921463862
 21
-0.449981477111578
 31
0.0
  0
LINE
  5
B2C
330
9F5
100
AcDbEntity
  8
0
100
AcDbLine
 10
-0.0723399639828131
 20
-0.3172079939395189
 30
0.0
 11
-0.2258376925019547
 21
-0.3649103213101625
 31
0.0
  0
LINE
  5
B2D
330
9F5
100
AcDbEntity
  8
0
100
AcDbLine
 10
-0.2258376925019547
 20
-0.3649103213101625
 30
0.0
 11
-0.2693167048273608
 21
-0.3919456470757723
 31
0.0
  0
LINE
  5
B2E
330
9F5
100
AcDbEntity
  8
0
100
AcDbLine
 10
-0.1325139561668038
 20
-0.2342996634542942
 30
0.0
 11
-0.1242265200708061
 21
-0.294378163293004
 31
0.0
  0
LINE
  5
B2F
330
9F5
100
AcDbEntity
  8
0
100
AcDbLine
 10
-0.1242265200708061
 20
-0.294378163293004
 30
0.0
 11
-0.1345557882450521
 21
-0.3711584862321615
 31
0.0
  0
LINE
  5
B30
330
9F5
100
AcDbEntity
  8
0
100
AcDbLine
 10
0.1743613932048902
 20
-0.1263986770063639
 30
0.0
 11
0.1784450573613867
 21
-0.1948881670832634
 31
0.0
  0
LINE
  5
B31
330
9F5
100
AcDbEntity
  8
0
100
AcDbLine
 10
0.1784450573613867
 20
-0.1948881670832634
 30
0.0
 11
0.2178404055302963
 21
-0.2260088305920362
 31
0.0
  0
LINE
  5
B32
330
9F5
100
AcDbEntity
  8
0
100
AcDbLine
 10
0.2178404055302963
 20
-0.2260088305920362
 30
0.0
 11
0.2406608816236258
 21
-0.2985836584120989
 31
0.0
  0
LINE
  5
B33
330
9F5
100
AcDbEntity
  8
0
100
AcDbLine
 10
0.2406608816236258
 20
-0.2985836584120989
 30
0.0
 11
0.2925474377116188
 21
-0.3379951547831297
 31
0.0
  0
LINE
  5
B34
330
9F5
100
AcDbEntity
  8
0
100
AcDbLine
 10
0.2634813577169552
 20
-0.1678528431802988
 30
0.0
 11
0.3299009538022801
 21
-0.2135125026106834
 31
0.0
  0
LINE
  5
B35
330
9F5
100
AcDbEntity
  8
0
100
AcDbLine
 10
0.3299009538022801
 20
-0.2135125026106834
 30
0.0
 11
0.3713381341076456
 21
-0.267462994903326
 31
0.0
  0
LINE
  5
B36
330
9F5
100
AcDbEntity
  8
0
100
AcDbLine
 10
0.2282897813711315
 20
-0.2260088305920362
 30
0.0
 11
0.3111641419236548
 21
-0.2529239989817142
 31
0.0
  0
LINE
  5
B37
330
9F5
100
AcDbEntity
  8
0
100
AcDbLine
 10
0.3111641419236548
 20
-0.2529239989817142
 30
0.0
 11
0.3402302219765261
 21
-0.2965409886091948
 31
0.0
  0
LINE
  5
B38
330
9F5
100
AcDbEntity
  8
0
100
AcDbLine
 10
0.1224748371168971
 20
-0.2031789999455214
 30
0.0
 11
0.1618701852858067
 21
-0.2654203269630671
 31
0.0
  0
LINE
  5
B39
330
9F5
100
AcDbEntity
  8
0
100
AcDbLine
 10
0.1618701852858067
 20
-0.2654203269630671
 30
0.0
 11
0.1681157891871408
 21
-0.3276616521179676
 31
0.0
  0
LINE
  5
B3A
330
9F5
100
AcDbEntity
  8
0
100
AcDbLine
 10
0.1681157891871408
 20
-0.3276616521179676
 30
0.0
 11
0.2531520895427093
 21
-0.3774066492915154
 31
0.0
  0
LINE
  5
B3B
330
9F5
100
AcDbEntity
  8
0
100
AcDbLine
 10
0.0769539926550351
 20
-0.1658101733773947
 30
0.0
 11
0.1204330050386488
 21
-0.2011363320052624
 31
0.0
  0
LINE
  5
B3C
330
9F5
100
AcDbEntity
  8
0
100
AcDbLine
 10
0.078995824791491
 20
-0.1658101733773947
 30
0.0
 11
0.1307622730964795
 21
-0.1512711765244603
 31
0.0
  0
LINE
  5
B3D
330
9F5
100
AcDbEntity
  8
0
100
AcDbLine
 10
0.1307622730964795
 20
-0.1512711765244603
 30
0.0
 11
0.0541335166199133
 21
-0.1617248356342316
 31
0.0
  0
LINE
  5
B3E
330
9F5
100
AcDbEntity
  8
0
100
AcDbLine
 10
-0.0309027837356552
 20
-0.1388950059190392
 30
0.0
 11
-0.0351065555587411
 21
-0.1700156684964895
 31
0.0
  0
LINE
  5
B3F
330
9F5
100
AcDbEntity
  8
0
100
AcDbLine
 10
-0.0351065555587411
 20
-0.1700156684964895
 30
0.0
 11
-0.0246571797179058
 21
-0.2280514994636178
 31
0.0
  0
LINE
  5
B40
330
9F5
100
AcDbEntity
  8
0
100
AcDbLine
 10
-0.0765437359223142
 20
-0.381491987966001
 30
0.0
 11
-0.1179809161112644
 21
-0.4520241469144821
 31
0.0
  0
LINE
  5
B41
330
9F5
100
AcDbEntity
  8
0
100
AcDbLine
 10
-0.1262683521490544
 20
-0.447938809171319
 30
0.0
 11
-0.0868730039801449
 21
-0.3960309848189354
 31
0.0
  0
LINE
  5
B42
330
9F5
100
AcDbEntity
  8
0
100
AcDbLine
 10
-0.2155084243859164
 20
-0.3608249835669994
 30
0.0
 11
-0.0599688637303188
 21
-0.3048318224027753
 31
0.0
  0
LINE
  5
B43
330
9F5
100
AcDbEntity
  8
0
100
AcDbLine
 10
0.1660739571671002
 20
-0.3276616521179676
 30
0.0
 11
0.1826488292426802
 21
-0.4251089785248041
 31
0.0
  0
LINE
  5
B44
330
9F5
100
AcDbEntity
  8
0
100
AcDbLine
 10
-0.020573515619617
 20
-0.4188608154654503
 30
0.0
 11
-0.0143279116018675
 21
-0.4624778060242534
 31
0.0
  0
LINE
  5
B45
330
9F5
100
AcDbEntity
  8
0
100
AcDbLine
 10
0.0499297446804121
 20
-0.3172079939395189
 30
0.0
 11
0.0686665566172451
 21
-0.3649103213101625
 31
0.0
  0
LINE
  5
B46
330
9F5
100
AcDbEntity
  8
0
100
AcDbLine
 10
0.0686665566172451
 20
-0.3649103213101625
 30
0.0
 11
0.1474572530132718
 21
-0.4313571434468031
 31
0.0
  0
LINE
  5
B47
330
9F5
100
AcDbEntity
  8
0
100
AcDbLine
 10
0.0499297446804121
 20
-0.3172079939395189
 30
0.0
 11
0.0230256044887938
 21
-0.3732011560350657
 31
0.0
  0
LINE
  5
B48
330
9F5
100
AcDbEntity
  8
0
100
AcDbLine
 10
0.0230256044887938
 20
-0.3732011560350657
 30
0.0
 11
0.0208636646857485
 21
-0.4603149797767401
 31
0.0
  0
LINE
  5
B49
330
9F5
100
AcDbEntity
  8
0
100
AcDbLine
 10
-0.0060404755640775
 20
-0.3711584862321615
 30
0.0
 11
0.0353967046830803
 21
-0.4582723099738359
 31
0.0
  0
LINE
  5
B4A
330
9F5
100
AcDbEntity
  8
0
100
AcDbLine
 10
-0.1242265200708061
 20
-0.1865973342210054
 30
0.0
 11
-0.1221846880507655
 21
-0.1181078460067511
 31
0.0
  0
LINE
  5
B4B
330
9F5
100
AcDbEntity
  8
0
100
AcDbLine
 10
-0.2569456046330743
 20
-0.1783065013587475
 30
0.0
 11
-0.2216339206206612
 21
-0.1533138453960419
 31
0.0
  0
LINE
  5
B4C
330
9F5
100
AcDbEntity
  8
0
100
AcDbLine
 10
-0.2216339206206612
 20
-0.1533138453960419
 30
0.0
 11
-0.2424125646357425
 21
-0.1948881670832634
 31
0.0
  0
LINE
  5
B4D
330
9F5
100
AcDbEntity
  8
0
100
AcDbLine
 10
-0.2672748727491125
 20
-0.207264338620007
 30
0.0
 11
-0.3066702209180221
 21
-0.3670731484889984
 31
0.0
  0
LINE
  5
B4E
330
9F5
100
AcDbEntity
  8
0
100
AcDbLine
 10
0.2448646535049193
 20
0.045786302536726
 30
0.0
 11
0.2759725656360388
 21
0.0292046368122101
 31
0.0
  0
LINE
  5
B4F
330
9F5
100
AcDbEntity
  8
0
100
AcDbLine
 10
0.2759725656360388
 20
0.0292046368122101
 30
0.0
 11
0.3381883898982778
 21
0.0249991416931152
 31
0.0
  0
LINE
  5
B50
330
9F5
100
AcDbEntity
  8
0
100
AcDbLine
 10
0.3381883898982778
 20
0.0249991416931152
 30
0.0
 11
0.4667037025210448
 21
0.0021693119779229
 31
0.0
  0
LINE
  5
B51
330
9F5
100
AcDbEntity
  8
0
100
AcDbLine
 10
0.2117149092955515
 20
0.0415808074176311
 30
0.0
 11
0.2551939216209576
 21
0.0395381385460496
 31
0.0
  0
LINE
  5
B52
330
9F5
100
AcDbEntity
  8
0
100
AcDbLine
 10
0.1577865211293101
 20
-0.273711159825325
 30
0.0
 11
0.1618701852858067
 21
-0.3379951547831297
 31
0.0
  0
LINE
  5
B53
330
9F5
100
AcDbEntity
  8
0
100
AcDbLine
 10
0.1618701852858067
 20
-0.3379951547831297
 30
0.0
 11
0.1764032252831385
 21
-0.4251089785248041
 31
0.0
  0
LINE
  5
B54
330
9F5
100
AcDbEntity
  8
0
100
AcDbLine
 10
0.1681157891871408
 20
-0.4271516473963857
 30
0.0
 11
0.1598283532075584
 21
-0.3420804925262928
 31
0.0
  0
LINE
  5
B55
330
9F5
100
AcDbEntity
  8
0
100
AcDbLine
 10
0.2240860095480457
 20
-0.2321368381381035
 30
0.0
 11
0.3070804777671583
 21
-0.2549666669219732
 31
0.0
  0
LINE
  5
B56
330
9F5
100
AcDbEntity
  8
0
100
AcDbLine
 10
0.1868526011821814
 20
-0.1948881670832634
 30
0.0
 11
0.180606997164432
 21
-0.128441346809268
 31
0.0
  0
LINE
  5
B57
330
9F5
100
AcDbEntity
  8
0
100
AcDbLine
 10
0.0458460805821232
 20
-0.3006263272836804
 30
0.0
 11
0.0436841407208703
 21
-0.3192506618797779
 31
0.0
  0
LINE
  5
B58
330
9F5
100
AcDbEntity
  8
0
100
AcDbLine
 10
0.0436841407208703
 20
-0.3192506618797779
 30
0.0
 11
0.0208636646857485
 21
-0.36911581736058
 31
0.0
  0
LINE
  5
B59
330
9F5
100
AcDbEntity
  8
0
100
AcDbLine
 10
-0.2776041409233585
 20
-0.109817011281848
 30
0.0
 11
-0.3232450930518098
 21
-0.1015261793509126
 31
0.0
  0
LINE
  5
B5A
330
9F5
100
AcDbEntity
  8
0
100
AcDbLine
 10
-0.3232450930518098
 20
-0.1015261793509126
 30
0.0
 11
-0.4207726013264619
 21
-0.1140225073322654
 31
0.0
  0
LINE
  5
B5B
330
9F5
100
AcDbEntity
  8
0
100
AcDbLine
 10
-0.2755623088451102
 20
-0.1118596810847521
 30
0.0
 11
-0.3232450930518098
 21
-0.1429803445935249
 31
0.0
  0
LINE
  5
B5C
330
9F5
100
AcDbEntity
  8
0
100
AcDbLine
 10
0.468579342472367
 20
0.0918176155537367
 30
0.0
 11
0.4762662396533415
 21
0.0250103240832686
 31
0.0
  0
LINE
  5
B5D
330
9F5
100
AcDbEntity
  8
0
100
AcDbLine
 10
-0.4296210947213694
 20
-0.0046935472637415
 30
0.0
 11
-0.4219341974821873
 21
-0.0715008387342095
 31
0.0
  0
LINE
  5
B5E
330
9F5
100
AcDbEntity
  8
0
100
AcDbLine
 10
-0.294246525852941
 20
-0.140343489125371
 30
0.0
 11
-0.2164166916627437
 21
-0.1643748888745904
 31
0.0
  0
LINE
  5
B5F
330
9F5
100
AcDbEntity
  8
0
100
AcDbLine
 10
-0.2365947968210094
 20
-0.125444021075964
 30
0.0
 11
-0.3052964406087995
 21
-0.1864837761968374
 31
0.0
  0
LINE
  5
B60
330
9F5
100
AcDbEntity
  8
0
100
AcDbLine
 10
-0.2683032477507368
 20
-0.1196764847263694
 30
0.0
 11
-0.2606163505697623
 21
-0.1864837761968374
 31
0.0
  0
LINE
  5
B61
330
9F5
100
AcDbEntity
  8
0
100
AcDbLine
 10
0.2672758048865944
 20
-0.01063546910882
 30
0.0
 11
0.3451056390767917
 21
-0.034666869789362
 31
0.0
  0
LINE
  5
B62
330
9F5
100
AcDbEntity
  8
0
100
AcDbLine
 10
0.3249275338603184
 20
0.004263998940587
 30
0.0
 11
0.2562258901307359
 21
-0.056775757111609
 31
0.0
  0
LINE
  5
B63
330
9F5
100
AcDbEntity
  8
0
100
AcDbLine
 10
0.293219082930591
 20
0.0100315343588591
 30
0.0
 11
0.3009059801115654
 21
-0.056775757111609
 31
0.0
  0
LINE
  5
B64
330
9F5
100
AcDbEntity
  8
0
100
AcDbLine
 10
0.0955509062623605
 20
0.5036476664245129
 30
0.0
 11
0.1733807404525578
 21
0.4796162657439709
 31
0.0
  0
LINE
  5
B65
330
9F5
100
AcDbEntity
  8
0
100
AcDbLine
 10
0.1532026352360845
 20
0.5185471344739199
 30
0.0
 11
0.084500991506502
 21
0.4575073784217238
 31
0.0
  0
LINE
  5
B66
330
9F5
100
AcDbEntity
  8
0
100
AcDbLine
 10
0.1214941843063571
 20
0.5243146698921919
 30
0.0
 11
0.1291810815455392
 21
0.4575073784217238
 31
0.0
  0
LINE
  5
B67
330
9F5
100
AcDbEntity
  8
0
100
AcDbLine
 10
0.3050307932426222
 20
0.2410880886018276
 30
0.0
 11
0.3828606274910271
 21
0.2170566879212856
 31
0.0
  0
LINE
  5
B68
330
9F5
100
AcDbEntity
  8
0
100
AcDbLine
 10
0.3626825222745538
 20
0.2559875566512346
 30
0.0
 11
0.2939808785449713
 21
0.194947799667716
 31
0.0
  0
LINE
  5
B69
330
9F5
100
AcDbEntity
  8
0
100
AcDbLine
 10
0.3309740712866187
 20
0.2617550920695066
 30
0.0
 11
0.3386609685258009
 21
0.194947799667716
 31
0.0
  0
LINE
  5
B6A
330
9F5
100
AcDbEntity
  8
0
100
AcDbLine
 10
-0.3570244436850771
 20
0.411604511551559
 30
0.0
 11
-0.2791946094948798
 21
0.3875731118023396
 31
0.0
  0
LINE
  5
B6B
330
9F5
100
AcDbEntity
  8
0
100
AcDbLine
 10
-0.2993727146531455
 20
0.426503979600966
 30
0.0
 11
-0.3680743584409356
 21
0.36546422354877
 31
0.0
  0
LINE
  5
B6C
330
9F5
100
AcDbEntity
  8
0
100
AcDbLine
 10
-0.3310811655828729
 20
0.432271515019238
 30
0.0
 11
-0.3233942684018984
 21
0.36546422354877
 31
0.0
  0
LINE
  5
B6D
330
9F5
100
AcDbEntity
  8
0
100
AcDbLine
 10
0.1185020877746865
 20
0.4540187027305365
 30
0.0
 11
0.126188984955661
 21
0.3872114103287458
 31
0.0
  0
LINE
  5
B6E
330
9F5
100
AcDbEntity
  8
0
100
AcDbLine
 10
0.1502105387626216
 20
0.4482511663809419
 30
0.0
 11
0.0815088949748315
 21
0.3872114103287458
 31
0.0
  0
LINE
  5
B6F
330
9F5
100
AcDbEntity
  8
0
100
AcDbLine
 10
0.0925588096724823
 20
0.4333516983315349
 30
0.0
 11
0.1703886438626796
 21
0.4093202985823154
 31
0.0
  0
LINE
  5
B70
330
9F5
100
AcDbEntity
  8
0
100
AcDbLine
 10
-0.3391603205818683
 20
-0.2628369508311152
 30
0.0
 11
-0.261330486391671
 21
-0.2868683505803347
 31
0.0
  0
LINE
  5
B71
330
9F5
100
AcDbEntity
  8
0
100
AcDbLine
 10
-0.2815085916081443
 20
-0.2479374827817082
 30
0.0
 11
-0.3502102353377268
 21
-0.3089772388339043
 31
0.0
  0
LINE
  5
B72
330
9F5
100
AcDbEntity
  8
0
100
AcDbLine
 10
-0.3132170425960794
 20
-0.2421699464321136
 30
0.0
 11
-0.3055301454151049
 21
-0.3089772388339043
 31
0.0
  0
LINE
  5
B73
330
9F5
100
AcDbEntity
  8
0
100
AcDbLine
 10
-0.3896055835066363
 20
-0.1868977267295122
 30
0.0
 11
-0.311775749316439
 21
-0.2109291274100542
 31
0.0
  0
LINE
  5
B74
330
9F5
100
AcDbEntity
  8
0
100
AcDbLine
 10
-0.3319538545329124
 20
-0.1719982586801052
 30
0.0
 11
-0.4006554982624948
 21
-0.2330380147323012
 31
0.0
  0
LINE
  5
B75
330
9F5
100
AcDbEntity
  8
0
100
AcDbLine
 10
-0.3636623054626398
 20
-0.1662307232618332
 30
0.0
 11
-0.3559754082816653
 21
-0.2330380147323012
 31
0.0
  0
LINE
  5
B76
330
9F5
100
AcDbEntity
  8
0
100
AcDbLine
 10
-0.340771124814637
 20
0.3506241831928492
 30
0.0
 11
-0.2629412906244397
 21
0.3265927843749523
 31
0.0
  0
LINE
  5
B77
330
9F5
100
AcDbEntity
  8
0
100
AcDbLine
 10
-0.2831193957244977
 20
0.3655236521735787
 30
0.0
 11
-0.3518210395704955
 21
0.3044838961213827
 31
0.0
  0
LINE
  5
B78
330
9F5
100
AcDbEntity
  8
0
100
AcDbLine
 10
-0.3148278467124328
 20
0.3712911885231733
 30
0.0
 11
-0.3071409495314583
 21
0.3044838961213827
 31
0.0
  0
LINE
  5
B79
330
9F5
100
AcDbEntity
  8
0
100
AcDbLine
 10
-0.3617405811673962
 20
-0.0032978318631649
 30
0.0
 11
-0.2839107469189912
 21
-0.0273292316123843
 31
0.0
  0
LINE
  5
B7A
330
9F5
100
AcDbEntity
  8
0
100
AcDbLine
 10
-0.3040888521354645
 20
0.0116016361862421
 30
0.0
 11
-0.3727904959232546
 21
-0.0494381189346313
 31
0.0
  0
LINE
  5
B7B
330
9F5
100
AcDbEntity
  8
0
100
AcDbLine
 10
-0.3357973031233996
 20
0.0173691716045141
 30
0.0
 11
-0.3281104058842175
 21
-0.0494381189346313
 31
0.0
  0
LINE
  5
B7C
330
9F5
100
AcDbEntity
  8
0
100
AcDbLine
 10
-0.2132873788941652
 20
0.1562706641852856
 30
0.0
 11
-0.1354575447039679
 21
0.1322392635047436
 31
0.0
  0
LINE
  5
B7D
330
9F5
100
AcDbEntity
  8
0
100
AcDbLine
 10
-0.1556356498040259
 20
0.1711701322346926
 30
0.0
 11
-0.2243372936500236
 21
0.1101303761824965
 31
0.0
  0
LINE
  5
B7E
330
9F5
100
AcDbEntity
  8
0
100
AcDbLine
 10
-0.187344100791961
 20
0.1769376676529646
 30
0.0
 11
-0.1796572036109865
 21
0.1101303761824965
 31
0.0
  0
LINE
  5
B7F
330
9F5
100
AcDbEntity
  8
0
100
AcDbLine
 10
-0.2891954887891188
 20
0.2990171788260341
 30
0.0
 11
-0.2113656545989215
 21
0.2749857790768147
 31
0.0
  0
LINE
  5
B80
330
9F5
100
AcDbEntity
  8
0
100
AcDbLine
 10
-0.2315437598153949
 20
0.3139166468754411
 30
0.0
 11
-0.3002454035449773
 21
0.252876890823245
 31
0.0
  0
LINE
  5
B81
330
9F5
100
AcDbEntity
  8
0
100
AcDbLine
 10
-0.2632522106869146
 20
0.3196841832250357
 30
0.0
 11
-0.2555653135059401
 21
0.252876890823245
 31
0.0
  0
LINE
  5
B82
330
9F5
100
AcDbEntity
  8
0
100
AcDbLine
 10
0.337286633439362
 20
-0.2239060830324888
 30
0.0
 11
0.4151164676295593
 21
-0.2479374827817082
 31
0.0
  0
LINE
  5
B83
330
9F5
100
AcDbEntity
  8
0
100
AcDbLine
 10
0.394938362413086
 20
-0.2090066149830818
 30
0.0
 11
0.3262367186835036
 21
-0.2700463701039553
 31
0.0
  0
LINE
  5
B84
330
9F5
100
AcDbEntity
  8
0
100
AcDbLine
 10
0.3632299114251509
 20
-0.2032390795648098
 30
0.0
 11
0.3709168087225407
 21
-0.2700463701039553
 31
0.0
  0
LINE
  5
B85
330
9F5
100
AcDbEntity
  8
0
100
AcDbLine
 10
0.1907551554613747
 20
0.0375555474311113
 30
0.0
 11
0.268584989651572
 21
0.0135241486132145
 31
0.0
  0
LINE
  5
B86
330
9F5
100
AcDbEntity
  8
0
100
AcDbLine
 10
0.2484068844933063
 20
0.0524550154805183
 30
0.0
 11
0.1797052407637239
 21
-0.0085847396403551
 31
0.0
  0
LINE
  5
B87
330
9F5
100
AcDbEntity
  8
0
100
AcDbLine
 10
0.2166984335053712
 20
0.0582225527614355
 30
0.0
 11
0.2243853306863457
 21
-0.0085847396403551
 31
0.0
  0
LINE
  5
B88
330
9F5
100
AcDbEntity
  8
0
100
AcDbLine
 10
0.0331737627275288
 20
-0.3349311510100961
 30
0.0
 11
0.1110035969177261
 21
-0.3589625507593155
 31
0.0
  0
LINE
  5
B89
330
9F5
100
AcDbEntity
  8
0
100
AcDbLine
 10
0.0908254918176681
 20
-0.3200316829606891
 30
0.0
 11
0.0221238479716703
 21
-0.3810714390128851
 31
0.0
  0
LINE
  5
B8A
330
9F5
100
AcDbEntity
  8
0
100
AcDbLine
 10
0.059117040829733
 20
-0.3142641466110945
 30
0.0
 11
0.0668039380107075
 21
-0.3810714390128851
 31
0.0
  0
LINE
  5
B8B
330
9F5
100
AcDbEntity
  8
0
100
AcDbLine
 10
0.20949196734
 20
0.3845689631998539
 30
0.0
 11
0.2873218015301973
 21
0.3605375625193119
 31
0.0
  0
LINE
  5
B8C
330
9F5
100
AcDbEntity
  8
0
100
AcDbLine
 10
0.2671436964301392
 20
0.3994684312492609
 30
0.0
 11
0.1984420526423492
 21
0.3384286742657423
 31
0.0
  0
LINE
  5
B8D
330
9F5
100
AcDbEntity
  8
0
100
AcDbLine
 10
0.2354352454422042
 20
0.4052359666675329
 30
0.0
 11
0.2431221426231787
 21
0.3384286742657423
 31
0.0
  0
LINE
  5
B8E
330
9F5
100
AcDbEntity
  8
0
100
AcDbLine
 10
-0.1167207327671349
 20
0.482617074623704
 30
0.0
 11
-0.0388908985769376
 21
0.458585673943162
 31
0.0
  0
LINE
  5
B8F
330
9F5
100
AcDbEntity
  8
0
100
AcDbLine
 10
-0.0590690037352033
 20
0.497516542673111
 30
0.0
 11
-0.1277706475229934
 21
0.4364767866209149
 31
0.0
  0
LINE
  5
B90
330
9F5
100
AcDbEntity
  8
0
100
AcDbLine
 10
-0.0907774546649307
 20
0.503284078091383
 30
0.0
 11
-0.0830905574839562
 21
0.4364767866209149
 31
0.0
  0
LINE
  5
B91
330
9F5
100
AcDbEntity
  8
0
100
AcDbLine
 10
-0.1445857351063751
 20
-0.4055834673345089
 30
0.0
 11
-0.0667559009161778
 21
-0.4296148661524057
 31
0.0
  0
LINE
  5
B92
330
9F5
100
AcDbEntity
  8
0
100
AcDbLine
 10
-0.0869340060744435
 20
-0.3906839992851019
 30
0.0
 11
-0.1556356498040259
 21
-0.4517237544059753
 31
0.0
  0
LINE
  5
B93
330
9F5
100
AcDbEntity
  8
0
100
AcDbLine
 10
-0.1186424570623785
 20
-0.3849164620041847
 30
0.0
 11
-0.110955559881404
 21
-0.4517237544059753
 31
0.0
  0
LINE
  5
B94
330
9F5
100
AcDbEntity
  8
0
100
AcDbLine
 10
-0.0187127933604643
 20
-0.3829939495772123
 30
0.0
 11
0.059117040829733
 21
-0.4070253502577543
 31
0.0
  0
LINE
  5
B95
330
9F5
100
AcDbEntity
  8
0
100
AcDbLine
 10
0.0389389356132597
 20
-0.3680944833904505
 30
0.0
 11
-0.0297627081163228
 21
-0.4291342385113239
 31
0.0
  0
LINE
  5
B96
330
9F5
100
AcDbEntity
  8
0
100
AcDbLine
 10
0.0072304846835323
 20
-0.3623269461095333
 30
0.0
 11
0.0149173818645068
 21
-0.4291342385113239
 31
0.0
  0
LINE
  5
B97
330
9F5
100
AcDbEntity
  8
0
100
AcDbLine
 10
-0.0018977057188749
 20
-0.3310861270874739
 30
0.0
 11
-0.070599349506665
 21
-0.3921258822083473
 31
0.0
  0
LINE
  5
B98
330
9F5
100
AcDbEntity
  8
0
100
AcDbLine
 10
0.4496168016339652
 20
0.171679362654686
 30
0.0
 11
0.4573036988731474
 21
0.1048720711842179
 31
0.0
  0
LINE
  5
B99
330
9F5
100
AcDbEntity
  8
0
100
AcDbLine
 10
-0.0595494348090142
 20
-0.4517237544059753
 30
0.0
 11
0.0182803993811831
 21
-0.4757551550865173
 31
0.0
  0
LINE
  5
B9A
330
9F5
100
AcDbEntity
  8
0
100
AcDbLine
 10
-0.0018977057188749
 20
-0.4368242863565683
 30
0.0
 11
-0.070599349506665
 21
-0.4978640414774418
 31
0.0
  0
LINE
  5
B9B
330
9F5
100
AcDbEntity
  8
0
100
AcDbLine
 10
-0.03360615670681
 20
-0.4310567509382963
 30
0.0
 11
-0.0259192595258355
 21
-0.4978640414774418
 31
0.0
  0
LINE
  5
B9C
330
9F5
100
AcDbEntity
  8
0
100
AcDbLine
 10
0.2646854945924133
 20
0.4203439522534609
 30
0.0
 11
0.3425153287826106
 21
0.3963125515729189
 31
0.0
  0
LINE
  5
B9D
330
9F5
100
AcDbEntity
  8
0
100
AcDbLine
 10
0.3223372236243449
 20
0.4352434203028679
 30
0.0
 11
0.2536355798365548
 21
0.3742036642506719
 31
0.0
  0
LINE
  5
B9E
330
9F5
100
AcDbEntity
  8
0
100
AcDbLine
 10
0.2906287726364098
 20
0.4410109557211399
 30
0.0
 11
0.298315669875592
 21
0.3742036642506719
 31
0.0
  0
LINE
  5
B9F
330
9F5
100
AcDbEntity
  8
0
100
AcDbLine
 10
-0.0797275399090722
 20
-0.3978934176266193
 30
0.0
 11
-0.0018977057188749
 21
-0.4219248183071613
 31
0.0
  0
LINE
  5
BA0
330
9F5
100
AcDbEntity
  8
0
100
AcDbLine
 10
-0.0537842619232833
 20
-0.3772264141589403
 30
0.0
 11
-0.0460973647423089
 21
-0.4440337065607309
 31
0.0
  0
LINE
  5
BA1
330
9F5
100
AcDbEntity
  8
0
100
AcDbLine
 10
0.1350251507246867
 20
-0.3719395063817501
 30
0.0
 11
0.212854984914884
 21
-0.3959709070622921
 31
0.0
  0
LINE
  5
BA2
330
9F5
100
AcDbEntity
  8
0
100
AcDbLine
 10
0.1926768797566183
 20
-0.3570400383323431
 30
0.0
 11
0.1239752359688282
 21
-0.4180797943845391
 31
0.0
  0
LINE
  5
BA3
330
9F5
100
AcDbEntity
  8
0
100
AcDbLine
 10
0.1609684287686832
 20
-0.3512725029140711
 30
0.0
 11
0.1686553260078654
 21
-0.4180797943845391
 31
0.0
  0
LINE
  5
BA4
330
9F5
100
AcDbEntity
  8
0
100
AcDbLine
 10
0.1335838574450463
 20
-0.3036903310567141
 30
0.0
 11
0.2114136916352436
 21
-0.3277217308059335
 31
0.0
  0
LINE
  5
BA5
330
9F5
100
AcDbEntity
  8
0
100
AcDbLine
 10
0.4815665715141222
 20
-0.0415681581944227
 30
0.0
 11
0.4892534687533043
 21
-0.1083754487335682
 31
0.0
  0
LINE
  5
BA6
330
9F5
100
AcDbEntity
  8
0
100
AcDbLine
 10
0.0720886798808351
 20
-0.4368242863565683
 30
0.0
 11
0.1499185140710324
 21
-0.4608556870371103
 31
0.0
  0
LINE
  5
BA7
330
9F5
100
AcDbEntity
  8
0
100
AcDbLine
 10
0.1297404088545591
 20
-0.4219248183071613
 30
0.0
 11
0.0610387651249766
 21
-0.4829645734280348
 31
0.0
  0
LINE
  5
BA8
330
9F5
100
AcDbEntity
  8
0
100
AcDbLine
 10
0.098031957866624
 20
-0.4161572828888893
 30
0.0
 11
0.1057188551640138
 21
-0.4829645734280348
 31
0.0
  0
LINE
  5
BA9
330
9F5
100
AcDbEntity
  8
0
100
AcDbLine
 10
0.2484068844933063
 20
-0.1960296593606472
 30
0.0
 11
0.3262367186835036
 21
-0.2200610591098666
 31
0.0
  0
LINE
  5
BAA
330
9F5
100
AcDbEntity
  8
0
100
AcDbLine
 10
0.3060586134670302
 20
-0.1811301913112402
 30
0.0
 11
0.2373569697374478
 21
-0.2421699464321136
 31
0.0
  0
LINE
  5
BAB
330
9F5
100
AcDbEntity
  8
0
100
AcDbLine
 10
0.2743501625373028
 20
-0.1753626558929682
 30
0.0
 11
0.282037059776485
 21
-0.2421699464321136
 31
0.0
  0
LINE
  5
BAC
330
9F5
100
AcDbEntity
  8
0
100
AcDbLine
 10
0.1869117068126798
 20
-0.0994234317913651
 30
0.0
 11
0.2647415410610847
 21
-0.1234548315405846
 31
0.0
  0
LINE
  5
BAD
330
9F5
100
AcDbEntity
  8
0
100
AcDbLine
 10
0.244563435902819
 20
-0.0845239637419581
 30
0.0
 11
0.1758617921732366
 21
-0.1455637197941542
 31
0.0
  0
LINE
  5
BAE
330
9F5
100
AcDbEntity
  8
0
100
AcDbLine
 10
0.212854984914884
 20
-0.0787564273923635
 30
0.0
 11
0.2205418820958585
 21
-0.1455637197941542
 31
0.0
  0
LINE
  5
BAF
330
9F5
100
AcDbEntity
  8
0
100
AcDbLine
 10
0.3853297409368679
 20
0.0952309081330895
 30
0.0
 11
0.4631595751270652
 21
0.0711995083838701
 31
0.0
  0
LINE
  5
BB0
330
9F5
100
AcDbEntity
  8
0
100
AcDbLine
 10
0.4429814700270072
 20
0.1101303761824965
 30
0.0
 11
0.3742798262392171
 21
0.0490906201303005
 31
0.0
  0
LINE
  5
BB1
330
9F5
100
AcDbEntity
  8
0
100
AcDbLine
 10
0.4112730190390721
 20
0.1158979116007686
 30
0.0
 11
0.4189599162200466
 21
0.0490906201303005
 31
0.0
  0
LINE
  5
BB2
330
9F5
100
AcDbEntity
  8
0
100
AcDbLine
 10
0.0099228104809299
 20
0.3828876316547394
 30
0.0
 11
0.0877526446711272
 21
0.3588562309741974
 31
0.0
  0
LINE
  5
BB3
330
9F5
100
AcDbEntity
  8
0
100
AcDbLine
 10
0.0675745395128615
 20
0.3977870997041464
 30
0.0
 11
-0.0011271042749286
 21
0.3367473436519504
 31
0.0
  0
LINE
  5
BB4
330
9F5
100
AcDbEntity
  8
0
100
AcDbLine
 10
0.0358660885249265
 20
0.4035546351224184
 30
0.0
 11
0.0435529857641086
 21
0.3367473436519504
 31
0.0
  0
LINE
  5
BB5
330
9F5
100
AcDbEntity
  8
0
100
AcDbLine
 10
0.1686553260078654
 20
0.1990465559065342
 30
0.0
 11
0.2464851601980627
 21
0.1750151552259922
 31
0.0
  0
LINE
  5
BB6
330
9F5
100
AcDbEntity
  8
0
100
AcDbLine
 10
0.2263070549815893
 20
0.2139460239559412
 30
0.0
 11
0.1576054112520069
 21
0.1529062679037452
 31
0.0
  0
LINE
  5
BB7
330
9F5
100
AcDbEntity
  8
0
100
AcDbLine
 10
0.1945986040518619
 20
0.2197135593742132
 30
0.0
 11
0.2022855012328364
 21
0.1529062679037452
 31
0.0
  0
LINE
  5
BB8
330
9F5
100
AcDbEntity
  8
0
100
AcDbLine
 10
-0.4338052424718626
 20
0.2567219156771898
 30
0.0
 11
-0.3559754082816653
 21
0.2326905149966478
 31
0.0
  0
LINE
  5
BB9
330
9F5
100
AcDbEntity
  8
0
100
AcDbLine
 10
-0.407861964427866
 20
0.2773889191448689
 30
0.0
 11
-0.4001750671886839
 21
0.2105816267430782
 31
0.0
  0
LINE
  5
BBA
330
9F5
100
AcDbEntity
  8
0
100
AcDbLine
 10
-0.3021671278402209
 20
0.4124453868716955
 30
0.0
 11
-0.2243372936500236
 21
0.3884139861911535
 31
0.0
  0
LINE
  5
BBB
330
9F5
100
AcDbEntity
  8
0
100
AcDbLine
 10
-0.2445153988082893
 20
0.4273448549211025
 30
0.0
 11
-0.3132170425960794
 21
0.3663050988689065
 31
0.0
  0
LINE
  5
BBC
330
9F5
100
AcDbEntity
  8
0
100
AcDbLine
 10
-0.2762238497380167
 20
0.4331123903393745
 30
0.0
 11
-0.2685369525570422
 21
0.3663050988689065
 31
0.0
  0
LINE
  5
BBD
330
9F5
100
AcDbEntity
  8
0
100
AcDbLine
 10
-0.0278409838210791
 20
0.5143385231494904
 30
0.0
 11
0.0499888503691182
 21
0.4903071224689484
 31
0.0
  0
LINE
  5
BBE
330
9F5
100
AcDbEntity
  8
0
100
AcDbLine
 10
0.0298107451526448
 20
0.5292379893362522
 30
0.0
 11
-0.0388908985769376
 21
0.4681982342153788
 31
0.0
  0
LINE
  5
BBF
330
9F5
100
AcDbEntity
  8
0
100
AcDbLine
 10
-0.0018977057188749
 20
0.5350055266171694
 30
0.0
 11
0.0057891914620996
 21
0.4681982342153788
 31
0.0
  0
LINE
  5
BC0
330
9F5
100
AcDbEntity
  8
0
100
AcDbLine
 10
0.0110739332740195
 20
0.458585673943162
 30
0.0
 11
0.0889037674642168
 21
0.4345542751252651
 31
0.0
  0
LINE
  5
BC1
330
9F5
100
AcDbEntity
  8
0
100
AcDbLine
 10
0.0687256623059511
 20
0.473485141992569
 30
0.0
 11
0.0000240185763687
 21
0.4124453868716955
 31
0.0
  0
LINE
  5
BC2
330
9F5
100
AcDbEntity
  8
0
100
AcDbLine
 10
0.0370172113180161
 20
0.4792526783421636
 30
0.0
 11
0.0447041085571982
 21
0.4124453868716955
 31
0.0
  0
LINE
  5
BC3
330
9F5
100
AcDbEntity
  8
0
100
AcDbLine
 10
0.1628901530639268
 20
0.4754076544195414
 30
0.0
 11
0.2407199872541241
 21
0.4513762546703219
 31
0.0
  0
LINE
  5
BC4
330
9F5
100
AcDbEntity
  8
0
100
AcDbLine
 10
0.2205418820958585
 20
0.4903071224689484
 30
0.0
 11
0.151840238366276
 21
0.4292673673480749
 31
0.0
  0
LINE
  5
BC5
330
9F5
100
AcDbEntity
  8
0
100
AcDbLine
 10
0.1888334311079234
 20
0.4960746578872204
 30
0.0
 11
0.1965203283471055
 21
0.4292673673480749
 31
0.0
  0
LINE
  5
BC6
330
9F5
100
AcDbEntity
  8
0
100
AcDbLine
 10
0.1667336016544141
 20
0.4196548070758581
 30
0.0
 11
0.244563435902819
 21
0.3956234063953161
 31
0.0
  0
LINE
  5
BC7
330
9F5
100
AcDbEntity
  8
0
100
AcDbLine
 10
0.2243853306863457
 20
0.4345542751252651
 30
0.0
 11
0.1556836869567633
 21
0.3735145190730691
 31
0.0
  0
LINE
  5
BC8
330
9F5
100
AcDbEntity
  8
0
100
AcDbLine
 10
0.1926768797566183
 20
0.4403218105435371
 30
0.0
 11
0.2003637769375928
 21
0.3735145190730691
 31
0.0
  0
LINE
  5
BC9
330
9F5
100
AcDbEntity
  8
0
100
AcDbLine
 10
0.3781232748297043
 20
0.2841177117079496
 30
0.0
 11
0.4559531090199016
 21
0.2600863110274076
 31
0.0
  0
LINE
  5
BCA
330
9F5
100
AcDbEntity
  8
0
100
AcDbLine
 10
0.4357750038616359
 20
0.2990171788260341
 30
0.0
 11
0.3670733601320535
 21
0.237977422773838
 31
0.0
  0
LINE
  5
BCB
330
9F5
100
AcDbEntity
  8
0
100
AcDbLine
 10
0.4040665528737009
 20
0.3047847151756287
 30
0.0
 11
0.4117534500546753
 21
0.237977422773838
 31
0.0
  0
LINE
  5
BCC
330
9F5
100
AcDbEntity
  8
0
100
AcDbLine
 10
0.3910949138225988
 20
0.1990465559065342
 30
0.0
 11
0.468924748012796
 21
0.1750151552259922
 31
0.0
  0
LINE
  5
BCD
330
9F5
100
AcDbEntity
  8
0
100
AcDbLine
 10
0.448746642912738
 20
0.2139460239559412
 30
0.0
 11
0.3800449991249479
 21
0.1529062679037452
 31
0.0
  0
LINE
  5
BCE
330
9F5
100
AcDbEntity
  8
0
100
AcDbLine
 10
0.417038191924803
 20
0.2197135593742132
 30
0.0
 11
0.4247250891057774
 21
0.1529062679037452
 31
0.0
  0
LINE
  5
BCF
330
9F5
100
AcDbEntity
  8
0
100
AcDbLine
 10
0.2613785235444084
 20
0.1543481517583132
 30
0.0
 11
0.3392083577346057
 21
0.1303167510777712
 31
0.0
  0
LINE
  5
BD0
330
9F5
100
AcDbEntity
  8
0
100
AcDbLine
 10
0.31903025257634
 20
0.1692476198077202
 30
0.0
 11
0.2503286087885499
 21
0.1082078637555242
 31
0.0
  0
LINE
  5
BD1
330
9F5
100
AcDbEntity
  8
0
100
AcDbLine
 10
0.2873218015301973
 20
0.1750151552259922
 30
0.0
 11
0.2950086988275871
 21
0.1082078637555242
 31
0.0
  0
LINE
  5
BD2
330
9F5
100
AcDbEntity
  8
0
100
AcDbLine
 10
0.4915050085983239
 20
0.0341911520808935
 30
0.0
 11
0.4228033648105338
 21
-0.0268486030399799
 31
0.0
  0
LINE
  5
BD3
330
9F5
100
AcDbEntity
  8
0
100
AcDbLine
 10
0.4597965576103888
 20
0.0399586884304881
 30
0.0
 11
0.4674834547913633
 21
-0.0268486030399799
 31
0.0
  0
LINE
  5
BD4
330
9F5
100
AcDbEntity
  8
0
100
AcDbLine
 10
0.3411300820298493
 20
-0.0662600994110107
 30
0.0
 11
0.4189599162200466
 21
-0.0902915000915527
 31
0.0
  0
LINE
  5
BD5
330
9F5
100
AcDbEntity
  8
0
100
AcDbLine
 10
0.3987818110617809
 20
-0.0513606313616037
 30
0.0
 11
0.3300801672739908
 21
-0.1124003874137998
 31
0.0
  0
LINE
  5
BD6
330
9F5
100
AcDbEntity
  8
0
100
AcDbLine
 10
0.3670733601320535
 20
-0.0455930959433317
 30
0.0
 11
0.374760257313028
 21
-0.1124003874137998
 31
0.0
  0
LINE
  5
BD7
330
9F5
100
AcDbEntity
  8
0
100
AcDbLine
 10
0.2926065434003249
 20
-0.2868683505803347
 30
0.0
 11
0.3704363775905222
 21
-0.3108997512608767
 31
0.0
  0
LINE
  5
BD8
330
9F5
100
AcDbEntity
  8
0
100
AcDbLine
 10
0.3502582724322565
 20
-0.2719688825309277
 30
0.0
 11
0.2815566286444664
 21
-0.3330086385831237
 31
0.0
  0
LINE
  5
BD9
330
9F5
100
AcDbEntity
  8
0
100
AcDbLine
 10
0.3185498215025291
 20
-0.2662013471126556
 30
0.0
 11
0.3262367186835036
 21
-0.3330086385831237
 31
0.0
  0
LINE
  5
BDA
330
9F5
100
AcDbEntity
  8
0
100
AcDbLine
 10
0.2484068844933063
 20
-0.2402474349364638
 30
0.0
 11
0.3262367186835036
 21
-0.2642788346856833
 31
0.0
  0
LINE
  5
BDB
330
9F5
100
AcDbEntity
  8
0
100
AcDbLine
 10
0.3060586134670302
 20
-0.2253479668870568
 30
0.0
 11
0.2373569697374478
 21
-0.2863877229392529
 31
0.0
  0
LINE
  5
BDC
330
9F5
100
AcDbEntity
  8
0
100
AcDbLine
 10
0.2743501625373028
 20
-0.2195804305374622
 30
0.0
 11
0.282037059776485
 21
-0.2863877229392529
 31
0.0
  0
LINE
  5
BDD
330
9F5
100
AcDbEntity
  8
0
100
AcDbLine
 10
0.2911652501206845
 20
-0.3440630827099085
 30
0.0
 11
0.3689950844272971
 21
-0.3680944833904505
 31
0.0
  0
LINE
  5
BDE
330
9F5
100
AcDbEntity
  8
0
100
AcDbLine
 10
0.3488169792108238
 20
-0.3291636146605015
 30
0.0
 11
0.2801153354230337
 21
-0.3902033707126975
 31
0.0
  0
LINE
  5
BDF
330
9F5
100
AcDbEntity
  8
0
100
AcDbLine
 10
0.3171085282228887
 20
-0.3233960792422295
 30
0.0
 11
0.3247954254620709
 21
-0.3902033707126975
 31
0.0
  0
LINE
  5
BE0
330
9F5
100
AcDbEntity
  8
0
100
AcDbLine
 10
0.2258266239077784
 20
-0.3608850631862879
 30
0.0
 11
0.3036564581561834
 21
-0.3849164620041847
 31
0.0
  0
LINE
  5
BE1
330
9F5
100
AcDbEntity
  8
0
100
AcDbLine
 10
0.28347835293971
 20
-0.3459855951368809
 30
0.0
 11
0.2147767092101276
 21
-0.4070253502577543
 31
0.0
  0
LINE
  5
BE2
330
9F5
100
AcDbEntity
  8
0
100
AcDbLine
 10
0.2517699020099826
 20
-0.3402180587872863
 30
0.0
 11
0.2594567992491648
 21
-0.4070253502577543
 31
0.0
  0
LINE
  5
BE3
330
9F5
100
AcDbEntity
  8
0
100
AcDbLine
 10
0.1945986040518619
 20
-0.2960002832114697
 30
0.0
 11
0.2724284382420592
 21
-0.3200316829606891
 31
0.0
  0
LINE
  5
BE4
330
9F5
100
AcDbEntity
  8
0
100
AcDbLine
 10
0.2522503330837935
 20
-0.2811008151620626
 30
0.0
 11
0.1835486893542111
 21
-0.3421405702829361
 31
0.0
  0
LINE
  5
BE5
330
9F5
100
AcDbEntity
  8
0
100
AcDbLine
 10
0.2205418820958585
 20
-0.2753332788124681
 30
0.0
 11
0.2282287792768329
 21
-0.3421405702829361
 31
0.0
  0
LINE
  5
BE6
330
9F5
100
AcDbEntity
  8
0
100
AcDbLine
 10
0.1278186845593154
 20
-0.2219835706055164
 30
0.0
 11
0.2056485187495127
 21
-0.2460149712860584
 31
0.0
  0
LINE
  5
BE7
330
9F5
100
AcDbEntity
  8
0
100
AcDbLine
 10
0.1854704136494547
 20
-0.2070841025561094
 30
0.0
 11
0.1167687698616646
 21
-0.268123859539628
 31
0.0
  0
LINE
  5
BE8
330
9F5
100
AcDbEntity
  8
0
100
AcDbLine
 10
0.1537619626615196
 20
-0.2013165671378374
 30
0.0
 11
0.1614488598424941
 21
-0.268123859539628
 31
0.0
  0
LINE
  5
BE9
330
9F5
100
AcDbEntity
  8
0
100
AcDbLine
 10
0.403256306250114
 20
-0.0305137131363153
 30
0.0
 11
0.4810861404403113
 21
-0.0545451138168573
 31
0.0
  0
LINE
  5
BEA
330
9F5
100
AcDbEntity
  8
0
100
AcDbLine
 10
0.4609080352820456
 20
-0.0156142450869083
 30
0.0
 11
0.3922063915524632
 21
-0.0766540011391044
 31
0.0
  0
LINE
  5
BEB
330
9F5
100
AcDbEntity
  8
0
100
AcDbLine
 10
0.4291995842941105
 20
-0.0098467096686363
 30
0.0
 11
0.436886481475085
 21
-0.0766540011391044
 31
0.0
  0
LINE
  5
BEC
330
9F5
100
AcDbEntity
  8
0
100
AcDbLine
 10
-0.1710582957603037
 20
0.5001876279711723
 30
0.0
 11
-0.0932284615701064
 21
0.4761562291532755
 31
0.0
  0
LINE
  5
BED
330
9F5
100
AcDbEntity
  8
0
100
AcDbLine
 10
-0.1134065667283721
 20
0.5150870960205793
 30
0.0
 11
-0.1821082105161622
 21
0.4540473408997059
 31
0.0
  0
LINE
  5
BEE
330
9F5
100
AcDbEntity
  8
0
100
AcDbLine
 10
-0.1451150177163072
 20
0.5208546314388514
 30
0.0
 11
-0.137428120477125
 21
0.4540473408997059
 31
0.0
  0
LINE
  5
BEF
330
9F5
100
AcDbEntity
  8
0
100
AcDbLine
 10
-0.208018398610875
 20
0.3759461920708418
 30
0.0
 11
-0.1301885644206777
 21
0.3519147923216224
 31
0.0
  0
LINE
  5
BF0
330
9F5
100
AcDbEntity
  8
0
100
AcDbLine
 10
-0.1503666695207357
 20
0.3908456601202488
 30
0.0
 11
-0.2190683133085258
 21
0.3298059049993753
 31
0.0
  0
LINE
  5
BF1
330
9F5
100
AcDbEntity
  8
0
100
AcDbLine
 10
-0.1820751205086708
 20
0.3966131955385208
 30
0.0
 11
-0.1743882233276963
 21
0.3298059049993753
 31
0.0
  0
LINE
  5
BF2
330
9F5
100
AcDbEntity
  8
0
100
AcDbLine
 10
0.3168656423222274
 20
0.317547220736742
 30
0.0
 11
0.3946954765706323
 21
0.2935158200562
 31
0.0
  0
LINE
  5
BF3
330
9F5
100
AcDbEntity
  8
0
100
AcDbLine
 10
0.3745173714123666
 20
0.332446688786149
 30
0.0
 11
0.3058157276245765
 21
0.2714069336652756
 31
0.0
  0
LINE
  5
BF4
330
9F5
100
AcDbEntity
  8
0
100
AcDbLine
 10
0.3428089204244316
 20
0.3382142251357436
 30
0.0
 11
0.350495817605406
 21
0.2714069336652756
 31
0.0
  0
LINE
  5
BF5
330
9F5
100
AcDbEntity
  8
0
100
AcDbLine
 10
-0.2598891932284459
 20
-0.2128516398370266
 30
0.0
 11
-0.182059358980041
 21
-0.2368830386549234
 31
0.0
  0
LINE
  5
BF6
330
9F5
100
AcDbEntity
  8
0
100
AcDbLine
 10
-0.2022374641383067
 20
-0.1979521717876196
 30
0.0
 11
-0.2709391079843044
 21
-0.258991926908493
 31
0.0
  0
LINE
  5
BF7
330
9F5
100
AcDbEntity
  8
0
100
AcDbLine
 10
-0.2339459151262417
 20
-0.1921846345067024
 30
0.0
 11
-0.2262590179452673
 21
-0.258991926908493
 31
0.0
  0
LINE
  5
BF8
330
9F5
100
AcDbEntity
  8
0
100
AcDbLine
 10
-0.2449958298821002
 20
-0.3978934176266193
 30
0.0
 11
-0.1671659956919029
 21
-0.4219248183071613
 31
0.0
  0
LINE
  5
BF9
330
9F5
100
AcDbEntity
  8
0
100
AcDbLine
 10
-0.187344100791961
 20
-0.3829939495772123
 30
0.0
 11
-0.2560457446379587
 21
-0.4440337065607309
 31
0.0
  0
LINE
  5
BFA
330
9F5
100
AcDbEntity
  8
0
100
AcDbLine
 10
-0.2190525518381037
 20
-0.3772264141589403
 30
0.0
 11
-0.2113656545989215
 21
-0.4440337065607309
 31
0.0
  0
LINE
  5
BFB
330
9F5
100
AcDbEntity
  8
0
100
AcDbLine
 10
-0.0965426276088692
 20
-0.3498306181281805
 30
0.0
 11
-0.1652442713966593
 21
-0.4108703751116991
 31
0.0
  0
LINE
  5
BFC
330
9F5
100
AcDbEntity
  8
0
100
AcDbLine
 10
-0.1282510785385966
 20
-0.3440630827099085
 30
0.0
 11
-0.1205641813576221
 21
-0.4108703751116991
 31
0.0
  0
LINE
  5
BFD
330
9F5
100
AcDbEntity
  8
0
100
AcDbLine
 10
-0.2762238497380167
 20
-0.2907133754342794
 30
0.0
 11
-0.1983940155478194
 21
-0.3147447742521763
 31
0.0
  0
LINE
  5
BFE
330
9F5
100
AcDbEntity
  8
0
100
AcDbLine
 10
-0.2185721207642928
 20
-0.2758139073848724
 30
0.0
 11
-0.2872737644938752
 21
-0.3368536625057459
 31
0.0
  0
LINE
  5
BFF
330
9F5
100
AcDbEntity
  8
0
100
AcDbLine
 10
-0.3063016739906743
 20
-0.3155854055657983
 30
0.0
 11
-0.2986147768096998
 21
-0.3823926970362663
 31
0.0
  0
LINE
  5
C00
330
9F5
100
AcDbEntity
  8
0
100
AcDbLine
 10
-0.4395704153575934
 20
-0.1546956514939666
 30
0.0
 11
-0.431883518176619
 21
-0.2215029429644346
 31
0.0
  0
LINE
  5
C01
330
9F5
100
AcDbEntity
  8
0
100
AcDbLine
 10
-0.426598776364699
 20
0.3509250031784177
 30
0.0
 11
-0.3487689421745017
 21
0.3268936024978757
 31
0.0
  0
LINE
  5
C02
330
9F5
100
AcDbEntity
  8
0
100
AcDbLine
 10
-0.3689470472745597
 20
0.3658244702965021
 30
0.0
 11
-0.4376486910623498
 21
0.3047847151756287
 31
0.0
  0
LINE
  5
C03
330
9F5
100
AcDbEntity
  8
0
100
AcDbLine
 10
-0.4006554982624948
 20
0.3715920066460967
 30
0.0
 11
-0.3929686010815203
 21
0.3047847151756287
 31
0.0
  0
LINE
  5
C04
330
9F5
100
AcDbEntity
  8
0
100
AcDbLine
 10
-0.2281807422405109
 20
0.4532987661659718
 30
0.0
 11
-0.1503509080503136
 21
0.4292673673480749
 31
0.0
  0
LINE
  5
C05
330
9F5
100
AcDbEntity
  8
0
100
AcDbLine
 10
-0.1705290132085793
 20
0.4681982342153788
 30
0.0
 11
-0.2392306569963694
 21
0.4071584790945053
 31
0.0
  0
LINE
  5
C06
330
9F5
100
AcDbEntity
  8
0
100
AcDbLine
 10
-0.2022374641383067
 20
0.4739657705649734
 30
0.0
 11
-0.1945505669573322
 21
0.4071584790945053
 31
0.0
  0
LINE
  5
C07
330
9F5
100
AcDbEntity
  8
0
100
AcDbLine
 10
-0.370868771628011
 20
-0.0941365230828524
 30
0.0
 11
-0.2930389374378137
 21
-0.1181679237633944
 31
0.0
  0
LINE
  5
C08
330
9F5
100
AcDbEntity
  8
0
100
AcDbLine
 10
-0.3132170425960794
 20
-0.0792370550334454
 30
0.0
 11
-0.3819186863256618
 21
-0.140276812016964
 31
0.0
  0
LINE
  5
C09
330
9F5
100
AcDbEntity
  8
0
100
AcDbLine
 10
-0.3449254935840145
 20
-0.0734695196151733
 30
0.0
 11
-0.3372385962866247
 21
-0.140276812016964
 31
0.0
  0
LINE
  5
C0A
330
9F5
100
AcDbEntity
  8
0
100
AcDbLine
 10
-0.3670253229793161
 20
0.1211848193779588
 30
0.0
 11
-0.2891954887891188
 21
0.0971534196287394
 31
0.0
  0
LINE
  5
C0B
330
9F5
100
AcDbEntity
  8
0
100
AcDbLine
 10
-0.3093735940055922
 20
0.1360842874273658
 30
0.0
 11
-0.3780752377351746
 21
0.0750445313751698
 31
0.0
  0
LINE
  5
C0C
330
9F5
100
AcDbEntity
  8
0
100
AcDbLine
 10
-0.3410820448771119
 20
0.1418518237769604
 30
0.0
 11
-0.3333951476961374
 21
0.0750445313751698
 31
0.0
  0
LINE
  5
C0D
330
9F5
100
AcDbEntity
  8
0
100
AcDbLine
 10
-0.4425340160960332
 20
-0.21913031488657
 30
0.0
 11
-0.3647041819058359
 21
-0.2431617137044668
 31
0.0
  0
LINE
  5
C0E
330
9F5
100
AcDbEntity
  8
0
100
AcDbLine
 10
-0.4165907381102443
 20
-0.1984633095562458
 30
0.0
 11
-0.4089038408710621
 21
-0.2652706019580364
 31
0.0
  0
LINE
  5
C0F
330
9F5
100
AcDbEntity
  8
0
100
AcDbLine
 10
-0.2209742760751396
 20
-0.3406986864283681
 30
0.0
 11
-0.1431444418849424
 21
-0.3647300861775875
 31
0.0
  0
LINE
  5
C10
330
9F5
100
AcDbEntity
  8
0
100
AcDbLine
 10
-0.2193436493398622
 20
-0.3713382538408041
 30
0.0
 11
-0.2880452931276523
 21
-0.4323780089616776
 31
0.0
  0
LINE
  5
C11
330
9F5
100
AcDbEntity
  8
0
100
AcDbLine
 10
-0.2510521003277972
 20
-0.3655707165598869
 30
0.0
 11
-0.2433652031468228
 21
-0.4323780089616776
 31
0.0
  0
LINE
  5
C12
330
9F5
100
AcDbEntity
  8
0
100
AcDbLine
 10
-0.3506906664697453
 20
-0.3238767068833113
 30
0.0
 11
-0.272860832279548
 21
-0.3479081066325307
 31
0.0
  0
LINE
  5
C13
330
9F5
100
AcDbEntity
  8
0
100
AcDbLine
 10
-0.2930389374378137
 20
-0.3089772388339043
 30
0.0
 11
-0.3617405811673962
 21
-0.3700169939547777
 31
0.0
  0
LINE
  5
C14
330
9F5
100
AcDbEntity
  8
0
100
AcDbLine
 10
-0.3247473883675411
 20
-0.3032097024843097
 30
0.0
 11
-0.3170604911865667
 21
-0.3700169939547777
 31
0.0
  0
LINE
  5
C15
330
9F5
100
AcDbEntity
  8
0
100
AcDbLine
 10
-0.4059402401326224
 20
-0.2921552583575249
 30
0.0
 11
-0.3281104058842175
 21
-0.3161866590380669
 31
0.0
  0
LINE
  5
C16
330
9F5
100
AcDbEntity
  8
0
100
AcDbLine
 10
-0.3482885110424832
 20
-0.2772557903081179
 30
0.0
 11
-0.4169901547720656
 21
-0.3382955472916365
 31
0.0
  0
LINE
  5
C17
330
9F5
100
AcDbEntity
  8
0
100
AcDbLine
 10
-0.3799969620304182
 20
-0.2714882548898458
 30
0.0
 11
-0.3723100648494437
 21
-0.3382955472916365
 31
0.0
  0
LINE
  5
C18
330
9F5
100
AcDbEntity
  8
0
100
AcDbLine
 10
0.2966875372221693
 20
0.2603524886071682
 30
0.0
 11
0.3745173714123666
 21
0.2363210897892714
 31
0.0
  0
LINE
  5
C19
330
9F5
100
AcDbEntity
  8
0
100
AcDbLine
 10
-0.1037490937160328
 20
-0.3233960792422295
 30
0.0
 11
-0.0960621965350583
 21
-0.3902033707126975
 31
0.0
  0
LINE
  5
C1A
330
9F5
100
AcDbEntity
  8
0
100
AcDbLine
 10
-0.0720406427280977
 20
-0.3291636146605015
 30
0.0
 11
-0.1407422865158878
 21
-0.3902033707126975
 31
0.0
  0
LINE
  5
C1B
330
9F5
100
AcDbEntity
  8
0
100
AcDbLine
 10
0.2834223065292463
 20
0.3943900400772691
 30
0.0
 11
0.3612521407194436
 21
0.3703586403280497
 31
0.0
  0
LINE
  5
C1C
330
9F5
100
AcDbEntity
  8
0
100
AcDbLine
 10
-0.2673867568955757
 20
-0.3429812015965581
 30
0.0
 11
-0.2596998596563935
 21
-0.4097884930670261
 31
0.0
  0
LINE
  5
C1D
330
9F5
100
AcDbEntity
  8
0
100
AcDbLine
 10
-0.2356783059076406
 20
-0.3487487379461527
 30
0.0
 11
-0.3043799496954307
 21
-0.4097884930670261
 31
0.0
  0
LINE
  5
C1E
330
9F5
100
AcDbEntity
  8
0
100
AcDbLine
 10
-0.2373089327011257
 20
-0.3181091705337167
 30
0.0
 11
-0.1594790985109285
 21
-0.3421405702829361
 31
0.0
  0
LINE
  5
C1F
330
9F5
100
AcDbEntity
  8
0
100
AcDbLine
 10
-0.22241556935478
 20
-0.0547250276431441
 30
0.0
 11
-0.2147286721155979
 21
-0.1215323191136122
 31
0.0
  0
LINE
  5
C20
330
9F5
100
AcDbEntity
  8
0
100
AcDbLine
 10
-0.190707118366845
 20
-0.0604925639927387
 30
0.0
 11
-0.2594087620964274
 21
-0.1215323191136122
 31
0.0
  0
LINE
  5
C21
330
9F5
100
AcDbEntity
  8
0
100
AcDbLine
 10
-0.2483588473987766
 20
-0.0753920320421457
 30
0.0
 11
-0.1705290132085793
 21
-0.0994234317913651
 31
0.0
  0
LINE
  5
C22
330
9F5
100
AcDbEntity
  8
0
100
AcDbLine
 10
-0.278145574091468
 20
0.230768003500998
 30
0.0
 11
-0.2704586768522859
 21
0.16396071203053
 31
0.0
  0
LINE
  5
C23
330
9F5
100
AcDbEntity
  8
0
100
AcDbLine
 10
-0.2464371231035329
 20
0.2250004671514034
 30
0.0
 11
-0.315138766891323
 21
0.16396071203053
 31
0.0
  0
LINE
  5
C24
330
9F5
100
AcDbEntity
  8
0
100
AcDbLine
 10
-0.3040888521354645
 20
0.2101009991019964
 30
0.0
 11
-0.2262590179452673
 21
0.1860696002840996
 31
0.0
  0
LINE
  5
C25
330
9F5
100
AcDbEntity
  8
0
100
AcDbLine
 10
-0.4282577921985649
 20
0.2275853604078293
 30
0.0
 11
-0.4205708949593827
 21
0.1607780680060387
 31
0.0
  0
LINE
  5
C26
330
9F5
100
AcDbEntity
  8
0
100
AcDbLine
 10
-0.1186424570623785
 20
0.3922590110450983
 30
0.0
 11
-0.110955559881404
 21
0.3254517186433077
 31
0.0
  0
LINE
  5
C27
330
9F5
100
AcDbEntity
  8
0
100
AcDbLine
 10
-0.0869340060744435
 20
0.3864914746955037
 30
0.0
 11
-0.1556356498040259
 21
0.3254517186433077
 31
0.0
  0
LINE
  5
C28
330
9F5
100
AcDbEntity
  8
0
100
AcDbLine
 10
-0.1445857351063751
 20
0.3715920066460967
 30
0.0
 11
-0.0667559009161778
 21
0.3475606068968773
 31
0.0
  0
LINE
  5
C29
330
9F5
100
AcDbEntity
  8
0
100
AcDbLine
 10
0.2114136916352436
 20
0.3196841832250357
 30
0.0
 11
0.2191005889326334
 21
0.252876890823245
 31
0.0
  0
LINE
  5
C2A
330
9F5
100
AcDbEntity
  8
0
100
AcDbLine
 10
0.2431221426231787
 20
0.3139166468754411
 30
0.0
 11
0.1744204988935962
 21
0.252876890823245
 31
0.0
  0
LINE
  5
C2B
330
9F5
100
AcDbEntity
  8
0
100
AcDbLine
 10
0.1854704136494547
 20
0.2990171788260341
 30
0.0
 11
0.263300247839652
 21
0.2749857790768147
 31
0.0
  0
LINE
  5
C2C
330
9F5
100
AcDbEntity
  8
0
100
AcDbLine
 10
0.4040665528737009
 20
-0.1474862322211266
 30
0.0
 11
0.4117534500546753
 21
-0.214293522760272
 31
0.0
  0
LINE
  5
C2D
330
9F5
100
AcDbEntity
  8
0
100
AcDbLine
 10
0.4357750038616359
 20
-0.1532537676393986
 30
0.0
 11
0.3670733601320535
 21
-0.214293522760272
 31
0.0
  0
LINE
  5
C2E
330
9F5
100
AcDbEntity
  8
0
100
AcDbLine
 10
0.3781232748297043
 20
-0.1681532356888056
 30
0.0
 11
0.4559531090199016
 21
-0.1921846345067024
 31
0.0
  0
LINE
  5
C2F
330
9F5
100
AcDbEntity
  8
0
100
AcDbLine
 10
0.3800449991249479
 20
0.0399586884304881
 30
0.0
 11
0.3877318963059224
 21
-0.0268486030399799
 31
0.0
  0
LINE
  5
C30
330
9F5
100
AcDbEntity
  8
0
100
AcDbLine
 10
0.4117534500546753
 20
0.0341911520808935
 30
0.0
 11
0.3430518063250929
 21
-0.0268486030399799
 31
0.0
  0
LINE
  5
C31
330
9F5
100
AcDbEntity
  8
0
100
AcDbLine
 10
0.3541017210809514
 20
0.0192916840314865
 30
0.0
 11
0.4319315552711487
 21
-0.0047397157177329
 31
0.0
  0
LINE
  5
C32
330
9F5
100
AcDbEntity
  8
0
100
AcDbLine
 10
-0.0965914790867828
 20
0.5410410081967711
 30
0.0
 11
-0.0889045818476006
 21
0.4742337167263031
 31
0.0
  0
LINE
  5
C33
330
9F5
100
AcDbEntity
  8
0
100
AcDbLine
 10
0.1451142033329234
 20
-0.140276812016964
 30
0.0
 11
0.0764125594869256
 21
-0.2013165671378374
 31
0.0
  0
LINE
  5
C34
330
9F5
100
AcDbEntity
  8
0
100
AcDbLine
 10
0.0874624742427841
 20
-0.155176280066371
 30
0.0
 11
0.1652923084329814
 21
-0.1792076788842678
 31
0.0
  0
LINE
  5
C35
330
9F5
100
AcDbEntity
  8
0
100
AcDbLine
 10
0.4374340197537094
 20
-0.0726270154118538
 30
0.0
 11
0.4451209169346839
 21
-0.1394343078136444
 31
0.0
  0
LINE
  5
C36
330
9F5
100
AcDbEntity
  8
0
100
AcDbLine
 10
0.4691424706252292
 20
-0.078394552692771
 30
0.0
 11
0.4004408268956468
 21
-0.1394343078136444
 31
0.0
  0
LINE
  5
C37
330
9F5
100
AcDbEntity
  8
0
100
AcDbLine
 10
0.4114907416515052
 20
-0.0932940198108554
 30
0.0
 11
0.4893205758417025
 21
-0.1173254195600748
 31
0.0
  0
LINE
  5
C38
330
9F5
100
AcDbEntity
  8
0
100
AcDbLine
 10
-0.1012791914399713
 20
-0.4341185241937637
 30
0.0
 11
-0.0935922942589968
 21
-0.5009258165955544
 31
0.0
  0
LINE
  5
C39
330
9F5
100
AcDbEntity
  8
0
100
AcDbLine
 10
-0.0695707404520363
 20
-0.4398860605433583
 30
0.0
 11
-0.1382723842398264
 21
-0.5009258165955544
 31
0.0
  0
LINE
  5
C3A
330
9F5
100
AcDbEntity
  8
0
100
AcDbLine
 10
-0.1272224695421755
 20
-0.4547855285927653
 30
0.0
 11
-0.0493926353519782
 21
-0.4788169283419847
 31
0.0
  0
LINE
  5
C3B
330
9F5
100
AcDbEntity
  8
0
100
AcDbLine
 10
-0.370868771628011
 20
0.0250592203810811
 30
0.0
 11
-0.3631818743888289
 21
-0.0417480710893869
 31
0.0
  0
LINE
  5
C3C
330
9F5
100
AcDbEntity
  8
0
100
AcDbLine
 10
-0.3391603205818683
 20
0.0192916840314865
 30
0.0
 11
-0.407861964427866
 21
-0.0417480710893869
 31
0.0
  0
LINE
  5
C3D
330
9F5
100
AcDbEntity
  8
0
100
AcDbLine
 10
-0.3968120496720076
 20
0.0043922159820795
 30
0.0
 11
-0.3189822154818103
 21
-0.0196391837671399
 31
0.0
  0
LINE
  5
C3E
330
9F5
100
AcDbEntity
  8
0
100
AcDbLine
 10
0.0038674671668559
 20
-0.3647300861775875
 30
0.0
 11
-0.0648341766209342
 21
-0.4257698422297835
 31
0.0
  0
LINE
  5
C3F
330
9F5
100
AcDbEntity
  8
0
100
AcDbLine
 10
0.2191005889326334
 20
-0.4147153981029987
 30
0.0
 11
0.2267874861136079
 21
-0.4815226905047894
 31
0.0
  0
LINE
  5
C40
330
9F5
100
AcDbEntity
  8
0
100
AcDbLine
 10
0.2508090398623608
 20
-0.4204829353839159
 30
0.0
 11
0.1821073960745707
 21
-0.4815226905047894
 31
0.0
  0
LINE
  5
C41
330
9F5
100
AcDbEntity
  8
0
100
AcDbLine
 10
0.1931573108304292
 20
-0.4353824015706778
 30
0.0
 11
0.2709871450206265
 21
-0.4594138022512197
 31
0.0
  0
LINE
  5
C42
330
9F5
100
AcDbEntity
  8
0
100
AcDbLine
 10
0.3247954254620709
 20
0.3735145190730691
 30
0.0
 11
0.332482322701253
 21
0.3067072276026011
 31
0.0
  0
LINE
  5
C43
330
9F5
100
AcDbEntity
  8
0
100
AcDbLine
 10
0.3565038764500059
 20
0.3677469827234745
 30
0.0
 11
0.2878022326622158
 21
0.3067072276026011
 31
0.0
  0
LINE
  5
C44
330
9F5
100
AcDbEntity
  8
0
100
AcDbLine
 10
0.2988521474180743
 20
0.3528475146740675
 30
0.0
 11
0.3766819816082716
 21
0.3288161149248481
 31
0.0
  0
LINE
  5
C45
330
9F5
100
AcDbEntity
  8
0
100
AcDbLine
 10
0.1148470455082133
 20
0.1750151552259922
 30
0.0
 11
0.1225339427473955
 21
0.1082078637555242
 31
0.0
  0
LINE
  5
C46
330
9F5
100
AcDbEntity
  8
0
100
AcDbLine
 10
0.1465554964961484
 20
0.1692476198077202
 30
0.0
 11
0.077853852766566
 21
0.1082078637555242
 31
0.0
  0
LINE
  5
C47
330
9F5
100
AcDbEntity
  8
0
100
AcDbLine
 10
0.0889037674642168
 20
0.1543481517583132
 30
0.0
 11
0.1667336016544141
 21
0.1303167510777712
 31
0.0
  0
ENDBLK
  5
C48
330
9F5
100
AcDbEntity
  8
0
100
AcDbBlockEnd
  0
BLOCK
  5
C4B
330
C4A
100
AcDbEntity
  8
0
100
AcDbBlockBegin
  2
Vertice
 70
     0
 10
0.0
 20
0.0
 30
0.0
  3
Vertice
  1

  0
LWPOLYLINE
  5
C4C
330
C4A
100
AcDbEntity
  8
0
100
AcDbPolyline
 90
        3
 70
     1
 43
0.0
 10
0.2351621147245169
 20
-0.1397262020036578
 10
-0.0009068329818547
 20
0.2701333742588758
 10
-0.2378211639006622
 20
-0.1392381200566888
  0
CIRCLE
  5
C4D
330
C4A
100
AcDbEntity
  8
0
100
AcDbCircle
 10
0.0
 20
0.0
 30
0.0
 40
0.0782647196381625
  0
ENDBLK
  5
C4E
330
C4A
100
AcDbEntity
  8
0
100
AcDbBlockEnd
  0
ENDSEC
  0
SECTION
  2
ENTITIES
  0
INSERT
  5
C51
330
1F
100
AcDbEntity
  8
0
100
AcDbBlockReference
  2
A$C5164
 10
0.2545994065281718
 20
-0.0934718100890279
 30
0.0
  0
ENDSEC
  0
SECTION
  2
OBJECTS
  0
DICTIONARY
  5
C
330
0
100
AcDbDictionary
281
     1
  3
ACAD_COLOR
350
DA
  3
ACAD_DETAILVIEWSTYLE
350
B5
  3
ACAD_GROUP
350
D
  3
ACAD_IMAGE_VARS
350
6A
  3
ACAD_LAYOUT
350
1A
  3
ACAD_MATERIAL
350
72
  3
ACAD_MLEADERSTYLE
350
3F
  3
ACAD_MLINESTYLE
350
17
  3
ACAD_PLOTSETTINGS
350
19
  3
ACAD_PLOTSTYLENAME
350
E
  3
ACAD_SCALELIST
350
40
  3
ACAD_SECTIONVIEWSTYLE
350
B6
  3
ACAD_TABLESTYLE
350
3B
  3
ACAD_VISUALSTYLE
350
C57
  3
ACDB_RECOMPOSE_DATA
350
C72
  3
AcDbVariableDictionary
350
3D
  3
APPDATA
350
71
  0
DICTIONARY
  5
DA
102
{ACAD_REACTORS
330
C
102
}
330
C
100
AcDbDictionary
281
     1
  0
DICTIONARY
  5
B5
102
{ACAD_REACTORS
330
C
102
}
330
C
100
AcDbDictionary
281
     1
  0
DICTIONARY
  5
D
102
{ACAD_REACTORS
330
C
102
}
330
C
100
AcDbDictionary
281
     1
  0
RASTERVARIABLES
  5
6A
102
{ACAD_REACTORS
330
C
102
}
330
C
100
AcDbRasterVariables
 90
        0
 70
     1
 71
     1
 72
     1
  0
DICTIONARY
  5
1A
102
{ACAD_REACTORS
330
C
102
}
330
C
100
AcDbDictionary
281
     1
  3
Model
350
22
  3
Sheet1
350
1E
  3
Sheet2
350
26
  0
DICTIONARY
  5
72
102
{ACAD_REACTORS
330
C
102
}
330
C
100
AcDbDictionary
281
     1
  3
ByBlock
350
74
  3
ByLayer
350
73
  3
Global
350
75
  0
DICTIONARY
  5
3F
102
{ACAD_REACTORS
330
C
102
}
330
C
100
AcDbDictionary
281
     1
  3
Standard
350
B7
  0
DICTIONARY
  5
17
102
{ACAD_REACTORS
330
C
102
}
330
C
100
AcDbDictionary
281
     1
  3
Standard
350
18
  0
DICTIONARY
  5
19
102
{ACAD_REACTORS
330
C
102
}
330
C
100
AcDbDictionary
281
     1
  0
ACDBDICTIONARYWDFLT
  5
E
102
{ACAD_REACTORS
330
C
102
}
330
C
100
AcDbDictionary
281
     1
  3
Normal
350
F
100
AcDbDictionaryWithDefault
340
F
  0
DICTIONARY
  5
40
102
{ACAD_REACTORS
330
C
102
}
330
C
100
AcDbDictionary
281
     1
  3
A0
350
41
  3
A1
350
42
  3
A2
350
43
  3
A3
350
44
  3
A4
350
45
  3
A5
350
46
  3
A6
350
47
  3
A7
350
48
  3
A8
350
49
  3
A9
350
4A
  3
B0
350
4B
  3
B1
350
4C
  3
B2
350
4D
  3
B3
350
4E
  3
B4
350
4F
  3
B5
350
50
  3
B6
350
51
  3
B7
350
52
  3
B8
350
53
  3
B9
350
54
  3
C0
350
55
  3
C1
350
56
  3
C2
350
57
  3
C3
350
58
  3
C4
350
59
  3
C5
350
5A
  3
C6
350
5B
  3
C7
350
5C
  3
C8
350
5D
  3
C9
350
5E
  3
D0
350
5F
  3
D1
350
60
  3
D2
350
61
  0
DICTIONARY
  5
B6
102
{ACAD_REACTORS
330
C
102
}
330
C
100
AcDbDictionary
281
     1
  0
DICTIONARY
  5
3B
102
{ACAD_REACTORS
330
C
102
}
330
C
100
AcDbDictionary
281
     1
  3
Standard
350
3C
  0
DICTIONARY
  5
C57
102
{ACAD_REACTORS
330
C
102
}
330
C
100
AcDbDictionary
281
     1
  3
2dWireframe
350
C5C
  3
Basic
350
C5F
  3
Brighten
350
C63
  3
ColorChange
350
C67
  3
Conceptual
350
C61
  3
Dim
350
C62
  3
EdgeColorOff
350
C6A
  3
Facepattern
350
C66
  3
Flat
350
C58
  3
FlatWithEdges
350
C59
  3
Gouraud
350
C5A
  3
GouraudWithEdges
350
C5B
  3
Hidden
350
C5E
  3
JitterOff
350
C68
  3
Linepattern
350
C65
  3
OverhangOff
350
C69
  3
Realistic
350
C60
  3
Shaded
350
C6F
  3
Shaded with edges
350
C6E
  3
Shades of Gray
350
C6B
  3
Sketchy
350
C6C
  3
Thicken
350
C64
  3
Wireframe
350
C5D
  3
X-Ray
350
C6D
  0
XRECORD
  5
C72
102
{ACAD_REACTORS
330
C
102
}
330
C
100
AcDbXrecord
280
     1
 90
        1
330
3C
  0
DICTIONARY
  5
3D
102
{ACAD_REACTORS
330
C
102
}
330
C
100
AcDbDictionary
281
     1
  3
CANNOSCALE
350
62
  3
CMLEADERSTYLE
350
BB
  3
CTABLESTYLE
350
3E
  3
LIGHTSINBLOCKS
350
6F
  3
MSLTSCALE
350
C73
  3
XCLIPFRAME
350
70
  0
DICTIONARY
  5
71
102
{ACAD_REACTORS
330
C
102
}
330
C
100
AcDbDictionary
281
     1
  0
LAYOUT
  5
22
102
{ACAD_REACTORS
330
1A
102
}
330
1A
100
AcDbPlotSettings
  1

  2
none_device
  4
ISO_A3_(420.00_x_297.00_MM)
  6

 40
7.5
 41
20.0
 42
7.5
 43
20.0
 44
420.0
 45
297.0
 46
20.78282828282826
 47
0.0
 48
0.0
 49
0.0
140
0.0
141
0.0
142
1.0
143
1.155642023346303
 70
  1204
 72
     1
 73
     0
 74
     1
  7
monochrome.ctb
 75
     0
 76
     0
 77
     2
 78
   300
147
0.8653198653198654
148
-134.1869158878504
149
0.0
100
AcDbLayout
  1
Model
 70
     1
 71
     0
 10
0.0
 20
0.0
 11
420.0
 21
297.0
 12
0.0
 22
0.0
 32
0.0
 14
-2.399075622817151
 24
-0.6017937677517295
 34
0.0
 15
2.649161053267193
 25
0.4401730570405959
 35
0.0
146
0.0
 13
0.0
 23
0.0
 33
0.0
 16
1.0
 26
0.0
 36
0.0
 17
0.0
 27
1.0
 37
0.0
 76
     0
330
1F
331
29
  0
LAYOUT
  5
1E
102
{ACAD_REACTORS
330
1A
102
}
330
1A
100
AcDbPlotSettings
  1

  2
none_device
  4

  6

 40
0.0
 41
0.0
 42
0.0
 43
0.0
 44
0.0
 45
0.0
 46
0.0
 47
0.0
 48
0.0
 49
0.0
140
0.0
141
0.0
142
1.0
143
1.0
 70
   688
 72
     0
 73
     0
 74
     5
  7

 75
    16
 76
     0
 77
     2
 78
   300
147
1.0
148
0.0
149
0.0
100
AcDbLayout
  1
Sheet1
 70
     1
 71
     1
 10
0.0
 20
0.0
 11
420.0
 21
297.0
 12
0.0
 22
0.0
 32
0.0
 14
1.000000000000000E+20
 24
1.000000000000000E+20
 34
1.000000000000000E+20
 15
-1.000000000000000E+20
 25
-1.000000000000000E+20
 35
-1.000000000000000E+20
146
0.0
 13
0.0
 23
0.0
 33
0.0
 16
1.0
 26
0.0
 36
0.0
 17
0.0
 27
1.0
 37
0.0
 76
     0
330
1B
  0
LAYOUT
  5
26
102
{ACAD_REACTORS
330
1A
102
}
330
1A
100
AcDbPlotSettings
  1

  2
none_device
  4

  6

 40
0.0
 41
0.0
 42
0.0
 43
0.0
 44
0.0
 45
0.0
 46
0.0
 47
0.0
 48
0.0
 49
0.0
140
0.0
141
0.0
142
1.0
143
1.0
 70
   688
 72
     0
 73
     0
 74
     5
  7

 75
    16
 76
     0
 77
     2
 78
   300
147
1.0
148
0.0
149
0.0
100
AcDbLayout
  1
Sheet2
 70
     1
 71
     2
 10
0.0
 20
0.0
 11
0.0
 21
0.0
 12
0.0
 22
0.0
 32
0.0
 14
0.0
 24
0.0
 34
0.0
 15
0.0
 25
0.0
 35
0.0
146
0.0
 13
0.0
 23
0.0
 33
0.0
 16
1.0
 26
0.0
 36
0.0
 17
0.0
 27
1.0
 37
0.0
 76
     0
330
23
  0
MATERIAL
  5
74
102
{ACAD_REACTORS
330
72
102
}
330
72
100
AcDbMaterial
  1
ByBlock
 72
     1
 94
      127
  0
MATERIAL
  5
73
102
{ACAD_REACTORS
330
72
102
}
330
72
100
AcDbMaterial
  1
ByLayer
 72
     1
 94
      127
  0
MATERIAL
  5
75
102
{ACAD_REACTORS
330
72
102
}
330
72
100
AcDbMaterial
  1
Global
 72
     1
 94
      127
  0
MLEADERSTYLE
  5
B7
102
{ACAD_REACTORS
330
3F
102
}
330
3F
100
AcDbMLeaderStyle
179
     2
170
     2
171
     1
172
     0
 90
        2
 40
0.0
 41
0.0
173
     1
 91
-1056964608
340
14
 92
       -2
290
     1
 42
2.0
291
     1
 43
8.0
  3
Standard
341
0
 44
4.0
300

342
11
174
     1
178
     6
175
     1
176
     0
 93
-1056964608
 45
4.0
292
     0
297
     0
 46
4.0
343
0
 94
-1056964608
 47
1.0
 49
1.0
140
1.0
293
     1
141
0.0
294
     1
177
     0
142
1.0
295
     0
296
     0
143
3.75
271
     0
272
     9
273
     9
  0
MLINESTYLE
  5
18
102
{ACAD_REACTORS
330
17
102
}
330
17
100
AcDbMlineStyle
  2
Standard
 70
     0
  3

 62
   256
 51
90.0
 52
90.0
 71
     2
 49
0.5
 62
   256
  6
BYLAYER
 49
-0.5
 62
   256
  6
BYLAYER
  0
ACDBPLACEHOLDER
  5
F
102
{ACAD_REACTORS
330
E
102
}
330
E
  0
SCALE
  5
41
102
{ACAD_REACTORS
330
40
102
}
330
40
100
AcDbScale
 70
     0
300
1:1
140
1.0
141
1.0
290
     1
  0
SCALE
  5
42
102
{ACAD_REACTORS
330
40
102
}
330
40
100
AcDbScale
 70
     0
300
1:2
140
1.0
141
2.0
290
     0
  0
SCALE
  5
43
102
{ACAD_REACTORS
330
40
102
}
330
40
100
AcDbScale
 70
     0
300
1:4
140
1.0
141
4.0
290
     0
  0
SCALE
  5
44
102
{ACAD_REACTORS
330
40
102
}
330
40
100
AcDbScale
 70
     0
300
1:5
140
1.0
141
5.0
290
     0
  0
SCALE
  5
45
102
{ACAD_REACTORS
330
40
102
}
330
40
100
AcDbScale
 70
     0
300
1:8
140
1.0
141
8.0
290
     0
  0
SCALE
  5
46
102
{ACAD_REACTORS
330
40
102
}
330
40
100
AcDbScale
 70
     0
300
1:10
140
1.0
141
10.0
290
     0
  0
SCALE
  5
47
102
{ACAD_REACTORS
330
40
102
}
330
40
100
AcDbScale
 70
     0
300
1:16
140
1.0
141
16.0
290
     0
  0
SCALE
  5
48
102
{ACAD_REACTORS
330
40
102
}
330
40
100
AcDbScale
 70
     0
300
1:20
140
1.0
141
20.0
290
     0
  0
SCALE
  5
49
102
{ACAD_REACTORS
330
40
102
}
330
40
100
AcDbScale
 70
     0
300
1:30
140
1.0
141
30.0
290
     0
  0
SCALE
  5
4A
102
{ACAD_REACTORS
330
40
102
}
330
40
100
AcDbScale
 70
     0
300
1:40
140
1.0
141
40.0
290
     0
  0
SCALE
  5
4B
102
{ACAD_REACTORS
330
40
102
}
330
40
100
AcDbScale
 70
     0
300
1:50
140
1.0
141
50.0
290
     0
  0
SCALE
  5
4C
102
{ACAD_REACTORS
330
40
102
}
330
40
100
AcDbScale
 70
     0
300
1:100
140
1.0
141
100.0
290
     0
  0
SCALE
  5
4D
102
{ACAD_REACTORS
330
40
102
}
330
40
100
AcDbScale
 70
     0
300
2:1
140
2.0
141
1.0
290
     0
  0
SCALE
  5
4E
102
{ACAD_REACTORS
330
40
102
}
330
40
100
AcDbScale
 70
     0
300
4:1
140
4.0
141
1.0
290
     0
  0
SCALE
  5
4F
102
{ACAD_REACTORS
330
40
102
}
330
40
100
AcDbScale
 70
     0
300
8:1
140
8.0
141
1.0
290
     0
  0
SCALE
  5
50
102
{ACAD_REACTORS
330
40
102
}
330
40
100
AcDbScale
 70
     0
300
10:1
140
10.0
141
1.0
290
     0
  0
SCALE
  5
51
102
{ACAD_REACTORS
330
40
102
}
330
40
100
AcDbScale
 70
     0
300
100:1
140
100.0
141
1.0
290
     0
  0
SCALE
  5
52
102
{ACAD_REACTORS
330
40
102
}
330
40
100
AcDbScale
 70
     0
300
1/128" = 1'-0"
140
0.0078125
141
12.0
290
     0
  0
SCALE
  5
53
102
{ACAD_REACTORS
330
40
102
}
330
40
100
AcDbScale
 70
     0
300
1/64" = 1'-0"
140
0.015625
141
12.0
290
     0
  0
SCALE
  5
54
102
{ACAD_REACTORS
330
40
102
}
330
40
100
AcDbScale
 70
     0
300
1/32" = 1'-0"
140
0.03125
141
12.0
290
     0
  0
SCALE
  5
55
102
{ACAD_REACTORS
330
40
102
}
330
40
100
AcDbScale
 70
     0
300
1/16" = 1'-0"
140
0.0625
141
12.0
290
     0
  0
SCALE
  5
56
102
{ACAD_REACTORS
330
40
102
}
330
40
100
AcDbScale
 70
     0
300
3/32" = 1'-0"
140
0.09375
141
12.0
290
     0
  0
SCALE
  5
57
102
{ACAD_REACTORS
330
40
102
}
330
40
100
AcDbScale
 70
     0
300
1/8" = 1'-0"
140
0.125
141
12.0
290
     0
  0
SCALE
  5
58
102
{ACAD_REACTORS
330
40
102
}
330
40
100
AcDbScale
 70
     0
300
3/16" = 1'-0"
140
0.1875
141
12.0
290
     0
  0
SCALE
  5
59
102
{ACAD_REACTORS
330
40
102
}
330
40
100
AcDbScale
 70
     0
300
1/4" = 1'-0"
140
0.25
141
12.0
290
     0
  0
SCALE
  5
5A
102
{ACAD_REACTORS
330
40
102
}
330
40
100
AcDbScale
 70
     0
300
3/8" = 1'-0"
140
0.375
141
12.0
290
     0
  0
SCALE
  5
5B
102
{ACAD_REACTORS
330
40
102
}
330
40
100
AcDbScale
 70
     0
300
1/2" = 1'-0"
140
0.5
141
12.0
290
     0
  0
SCALE
  5
5C
102
{ACAD_REACTORS
330
40
102
}
330
40
100
AcDbScale
 70
     0
300
3/4" = 1'-0"
140
0.75
141
12.0
290
     0
  0
SCALE
  5
5D
102
{ACAD_REACTORS
330
40
102
}
330
40
100
AcDbScale
 70
     0
300
1" = 1'-0"
140
1.0
141
12.0
290
     0
  0
SCALE
  5
5E
102
{ACAD_REACTORS
330
40
102
}
330
40
100
AcDbScale
 70
     0
300
1-1/2" = 1'-0"
140
1.5
141
12.0
290
     0
  0
SCALE
  5
5F
102
{ACAD_REACTORS
330
40
102
}
330
40
100
AcDbScale
 70
     0
300
3" = 1'-0"
140
3.0
141
12.0
290
     0
  0
SCALE
  5
60
102
{ACAD_REACTORS
330
40
102
}
330
40
100
AcDbScale
 70
     0
300
6" = 1'-0"
140
6.0
141
12.0
290
     0
  0
SCALE
  5
61
102
{ACAD_REACTORS
330
40
102
}
330
40
100
AcDbScale
 70
     0
300
1'-0" = 1'-0"
140
12.0
141
12.0
290
     0
  0
TABLESTYLE
  5
3C
102
{ACAD_REACTORS
330
3B
102
}
102
{ACAD_XDICTIONARY
360
C70
102
}
330
3B
100
AcDbTableStyle
  3
Standard
 70
     0
 71
     0
 40
1.5
 41
1.5
280
     0
281
     0
  7
Standard
140
4.5
170
     2
 62
     0
 63
   257
283
     0
 90
      512
 91
        0
  1

274
    -2
284
     1
 64
     0
275
    -2
285
     1
 65
     0
276
    -2
286
     1
 66
     0
277
    -2
287
     1
 67
     0
278
    -2
288
     1
 68
     0
279
    -2
289
     1
 69
     0
  7
Standard
140
6.0
170
     5
 62
     0
 63
   257
283
     0
 90
      512
 91
        0
  1

274
    -2
284
     1
 64
     0
275
    -2
285
     1
 65
     0
276
    -2
286
     1
 66
     0
277
    -2
287
     1
 67
     0
278
    -2
288
     1
 68
     0
279
    -2
289
     1
 69
     0
  7
Standard
140
4.5
170
     5
 62
     0
 63
   257
283
     0
 90
      512
 91
        0
  1

274
    -2
284
     1
 64
     0
275
    -2
285
     1
 65
     0
276
    -2
286
     1
 66
     0
277
    -2
287
     1
 67
     0
278
    -2
288
     1
 68
     0
279
    -2
289
     1
 69
     0
  0
VISUALSTYLE
  5
C5C
102
{ACAD_REACTORS
330
C57
102
}
330
C57
100
AcDbVisualStyle
  2
2dWireframe
 70
     4
177
     2
291
     0
 71
     0
176
     1
 72
     2
176
     1
 73
     0
176
     1
 90
        0
176
     1
 40
0.6
176
     1
 41
30.0
176
     1
 62
     5
 63
     7
421
 16777215
176
     1
 74
     1
176
     1
 91
        4
176
     1
 64
     7
176
     1
 65
   257
176
     1
 75
     1
176
     1
175
     1
176
     1
 42
1.0
176
     1
 92
        0
176
     1
 66
   257
176
     1
 43
1.0
176
     1
 76
     1
176
     1
 77
     6
176
     1
 78
     2
176
     1
 67
     7
176
     1
 79
     5
176
     1
170
     0
176
     1
171
     0
176
     1
290
     0
176
     1
 93
        1
176
     1
 44
0.0
176
     1
173
     0
176
     1
  0
VISUALSTYLE
  5
C5F
102
{ACAD_REACTORS
330
C57
102
}
330
C57
100
AcDbVisualStyle
  2
Basic
 70
     7
177
     2
291
     1
 71
     1
176
     1
 72
     0
176
     1
 73
     1
176
     1
 90
        0
176
     1
 40
0.6
176
     1
 41
30.0
176
     1
 62
     5
 63
     7
421
 16777215
176
     1
 74
     0
176
     1
 91
        4
176
     1
 64
     7
176
     1
 65
   257
176
     1
 75
     1
176
     1
175
     1
176
     1
 42
1.0
176
     1
 92
        8
176
     1
 66
     7
176
     1
 43
1.0
176
     1
 76
     1
176
     1
 77
     6
176
     1
 78
     2
176
     1
 67
     7
176
     1
 79
     5
176
     1
170
     0
176
     1
171
     0
176
     1
290
     0
176
     1
 93
        1
176
     1
 44
0.0
176
     1
173
     0
176
     1
  0
VISUALSTYLE
  5
C63
102
{ACAD_REACTORS
330
C57
102
}
330
C57
100
AcDbVisualStyle
  2
Brighten
 70
    12
177
     2
291
     1
 71
     2
176
     1
 72
     2
176
     1
 73
     0
176
     1
 90
        0
176
     1
 40
0.6
176
     1
 41
30.0
176
     1
 62
     5
 63
     7
421
 16777215
176
     1
 74
     1
176
     1
 91
        4
176
     1
 64
     7
176
     1
 65
   257
176
     1
 75
     1
176
     1
175
     1
176
     1
 42
1.0
176
     1
 92
        8
176
     1
 66
     7
176
     1
 43
1.0
176
     1
 76
     1
176
     1
 77
     6
176
     1
 78
     2
176
     1
 67
     7
176
     1
 79
     5
176
     1
170
     0
176
     1
171
     0
176
     1
290
     0
176
     1
 93
        1
176
     1
 44
50.0
176
     1
173
     0
176
     1
  0
VISUALSTYLE
  5
C67
102
{ACAD_REACTORS
330
C57
102
}
330
C57
100
AcDbVisualStyle
  2
ColorChange
 70
    16
177
     2
291
     1
 71
     2
176
     1
 72
     2
176
     1
 73
     3
176
     1
 90
        0
176
     1
 40
0.6
176
     1
 41
30.0
176
     1
 62
     5
 63
     8
421
  8421504
176
     1
 74
     1
176
     1
 91
        4
176
     1
 64
     7
176
     1
 65
   257
176
     1
 75
     1
176
     1
175
     1
176
     1
 42
1.0
176
     1
 92
        8
176
     1
 66
     8
424
  8421504
176
     1
 43
1.0
176
     1
 76
     1
176
     1
 77
     6
176
     1
 78
     2
176
     1
 67
     7
176
     1
 79
     5
176
     1
170
     0
176
     1
171
     0
176
     1
290
     0
176
     1
 93
        1
176
     1
 44
0.0
176
     1
173
     0
176
     1
  0
VISUALSTYLE
  5
C61
102
{ACAD_REACTORS
330
C57
102
}
330
C57
100
AcDbVisualStyle
  2
Conceptual
 70
     9
177
     2
291
     0
 71
     3
176
     1
 72
     2
176
     1
 73
     0
176
     1
 90
        0
176
     1
 40
0.6
176
     1
 41
30.0
176
     1
 62
     5
 63
     7
421
 16777215
176
     1
 74
     2
176
     1
 91
        2
176
     1
 64
     7
176
     1
 65
   257
176
     1
 75
     1
176
     1
175
     1
176
     1
 42
179.0
176
     1
 92
        8
176
     1
 66
     7
176
     1
 43
1.0
176
     1
 76
     1
176
     1
 77
     6
176
     1
 78
     2
176
     1
 67
     7
176
     1
 79
     3
176
     1
170
     0
176
     1
171
     0
176
     1
290
     0
176
     1
 93
        1
176
     1
 44
0.0
176
     1
173
     0
176
     1
  0
VISUALSTYLE
  5
C62
102
{ACAD_REACTORS
330
C57
102
}
330
C57
100
AcDbVisualStyle
  2
Dim
 70
    11
177
     2
291
     1
 71
     2
176
     1
 72
     2
176
     1
 73
     0
176
     1
 90
        0
176
     1
 40
0.6
176
     1
 41
30.0
176
     1
 62
     5
 63
     7
421
 16777215
176
     1
 74
     1
176
     1
 91
        4
176
     1
 64
     7
176
     1
 65
   257
176
     1
 75
     1
176
     1
175
     1
176
     1
 42
1.0
176
     1
 92
        8
176
     1
 66
     7
176
     1
 43
1.0
176
     1
 76
     1
176
     1
 77
     6
176
     1
 78
     2
176
     1
 67
     7
176
     1
 79
     5
176
     1
170
     0
176
     1
171
     0
176
     1
290
     0
176
     1
 93
        1
176
     1
 44
-50.0
176
     1
173
     0
176
     1
  0
VISUALSTYLE
  5
C6A
102
{ACAD_REACTORS
330
C57
102
}
330
C57
100
AcDbVisualStyle
  2
EdgeColorOff
 70
    22
177
     2
291
     1
 71
     2
176
     0
 72
     2
176
     0
 73
     0
176
     0
 90
        0
176
     0
 40
0.6
176
     0
 41
30.0
176
     0
 62
     5
 63
     7
421
 16777215
176
     0
 74
     1
176
     0
 91
        4
176
     0
 64
     7
176
     0
 65
   257
176
     0
 75
     1
176
     0
175
     1
176
     0
 42
1.0
176
     0
 92
        8
176
     2
 66
     7
176
     0
 43
1.0
176
     0
 76
     1
176
     0
 77
     6
176
     0
 78
     2
176
     0
 67
     7
176
     0
 79
     5
176
     0
170
     0
176
     0
171
     0
176
     0
290
     0
176
     0
 93
        1
176
     0
 44
0.0
176
     0
173
     0
176
     0
  0
VISUALSTYLE
  5
C66
102
{ACAD_REACTORS
330
C57
102
}
330
C57
100
AcDbVisualStyle
  2
Facepattern
 70
    15
177
     2
291
     1
 71
     2
176
     1
 72
     2
176
     1
 73
     0
176
     1
 90
        0
176
     1
 40
0.6
176
     1
 41
30.0
176
     1
 62
     5
 63
     7
421
 16777215
176
     1
 74
     1
176
     1
 91
        4
176
     1
 64
     7
176
     1
 65
   257
176
     1
 75
     1
176
     1
175
     1
176
     1
 42
1.0
176
     1
 92
        8
176
     1
 66
     7
176
     1
 43
1.0
176
     1
 76
     1
176
     1
 77
     6
176
     1
 78
     2
176
     1
 67
     7
176
     1
 79
     5
176
     1
170
     0
176
     1
171
     0
176
     1
290
     0
176
     1
 93
        1
176
     1
 44
0.0
176
     1
173
     0
176
     1
  0
VISUALSTYLE
  5
C58
102
{ACAD_REACTORS
330
C57
102
}
330
C57
100
AcDbVisualStyle
  2
Flat
 70
     0
177
     2
291
     1
 71
     2
176
     1
 72
     1
176
     1
 73
     1
176
     1
 90
        2
176
     1
 40
0.6
176
     1
 41
30.0
176
     1
 62
     5
 63
     7
421
 16777215
176
     1
 74
     0
176
     1
 91
        0
176
     1
 64
     7
176
     1
 65
   257
176
     1
 75
     1
176
     1
175
     1
176
     1
 42
1.0
176
     1
 92
        8
176
     1
 66
     7
176
     1
 43
1.0
176
     1
 76
     1
176
     1
 77
     6
176
     1
 78
     2
176
     1
 67
     7
176
     1
 79
     5
176
     1
170
     0
176
     1
171
     0
176
     1
290
     0
176
     1
 93
       13
176
     1
 44
0.0
176
     1
173
     0
176
     1
  0
VISUALSTYLE
  5
C59
102
{ACAD_REACTORS
330
C57
102
}
330
C57
100
AcDbVisualStyle
  2
FlatWithEdges
 70
     1
177
     2
291
     1
 71
     2
176
     1
 72
     1
176
     1
 73
     1
176
     1
 90
        2
176
     1
 40
0.6
176
     1
 41
30.0
176
     1
 62
     5
 63
     7
421
 16777215
176
     1
 74
     1
176
     1
 91
        0
176
     1
 64
     7
176
     1
 65
   257
176
     1
 75
     1
176
     1
175
     1
176
     1
 42
1.0
176
     1
 92
        0
176
     1
 66
   257
176
     1
 43
1.0
176
     1
 76
     1
176
     1
 77
     6
176
     1
 78
     2
176
     1
 67
     7
176
     1
 79
     5
176
     1
170
     0
176
     1
171
     0
176
     1
290
     0
176
     1
 93
       13
176
     1
 44
0.0
176
     1
173
     0
176
     1
  0
VISUALSTYLE
  5
C5A
102
{ACAD_REACTORS
330
C57
102
}
330
C57
100
AcDbVisualStyle
  2
Gouraud
 70
     2
177
     2
291
     1
 71
     2
176
     1
 72
     2
176
     1
 73
     1
176
     1
 90
        2
176
     1
 40
0.6
176
     1
 41
30.0
176
     1
 62
     5
 63
     7
421
 16777215
176
     1
 74
     0
176
     1
 91
        0
176
     1
 64
     7
176
     1
 65
   257
176
     1
 75
     1
176
     1
175
     1
176
     1
 42
1.0
176
     1
 92
        0
176
     1
 66
     7
176
     1
 43
1.0
176
     1
 76
     1
176
     1
 77
     6
176
     1
 78
     2
176
     1
 67
     7
176
     1
 79
     5
176
     1
170
     0
176
     1
171
     0
176
     1
290
     0
176
     1
 93
       13
176
     1
 44
0.0
176
     1
173
     0
176
     1
  0
VISUALSTYLE
  5
C5B
102
{ACAD_REACTORS
330
C57
102
}
330
C57
100
AcDbVisualStyle
  2
GouraudWithEdges
 70
     3
177
     2
291
     1
 71
     2
176
     1
 72
     2
176
     1
 73
     1
176
     1
 90
        2
176
     1
 40
0.6
176
     1
 41
30.0
176
     1
 62
     5
 63
     7
421
 16777215
176
     1
 74
     1
176
     1
 91
        0
176
     1
 64
     7
176
     1
 65
   257
176
     1
 75
     1
176
     1
175
     1
176
     1
 42
1.0
176
     1
 92
        0
176
     1
 66
   257
176
     1
 43
1.0
176
     1
 76
     1
176
     1
 77
     6
176
     1
 78
     2
176
     1
 67
     7
176
     1
 79
     5
176
     1
170
     0
176
     1
171
     0
176
     1
290
     0
176
     1
 93
       13
176
     1
 44
0.0
176
     1
173
     0
176
     1
  0
VISUALSTYLE
  5
C5E
102
{ACAD_REACTORS
330
C57
102
}
330
C57
100
AcDbVisualStyle
  2
Hidden
 70
     6
177
     2
291
     0
 71
     1
176
     1
 72
     2
176
     1
 73
     2
176
     1
 90
        0
176
     1
 40
0.6
176
     1
 41
30.0
176
     1
 62
     5
 63
     7
421
 16777215
176
     1
 74
     2
176
     1
 91
        2
176
     1
 64
     7
176
     1
 65
   257
176
     1
 75
     2
176
     1
175
     1
176
     1
 42
40.0
176
     1
 92
        0
176
     1
 66
   257
176
     1
 43
1.0
176
     1
 76
     1
176
     1
 77
     6
176
     1
 78
     2
176
     1
 67
     7
176
     1
 79
     3
176
     1
170
     0
176
     1
171
     0
176
     1
290
     0
176
     1
 93
        1
176
     1
 44
0.0
176
     1
173
     0
176
     1
  0
VISUALSTYLE
  5
C68
102
{ACAD_REACTORS
330
C57
102
}
330
C57
100
AcDbVisualStyle
  2
JitterOff
 70
    20
177
     2
291
     1
 71
     2
176
     0
 72
     2
176
     0
 73
     0
176
     0
 90
        0
176
     0
 40
0.6
176
     0
 41
30.0
176
     0
 62
     5
 63
     7
421
 16777215
176
     0
 74
     1
176
     0
 91
        4
176
     0
 64
     7
176
     0
 65
   257
176
     0
 75
     1
176
     0
175
     1
176
     0
 42
1.0
176
     0
 92
       10
176
     2
 66
     7
176
     0
 43
1.0
176
     0
 76
     1
176
     0
 77
     6
176
     0
 78
     2
176
     0
 67
     7
176
     0
 79
     5
176
     0
170
     0
176
     0
171
     0
176
     0
290
     0
176
     0
 93
        1
176
     0
 44
0.0
176
     0
173
     0
176
     0
  0
VISUALSTYLE
  5
C65
102
{ACAD_REACTORS
330
C57
102
}
330
C57
100
AcDbVisualStyle
  2
Linepattern
 70
    14
177
     2
291
     1
 71
     2
176
     1
 72
     2
176
     1
 73
     0
176
     1
 90
        0
176
     1
 40
0.6
176
     1
 41
30.0
176
     1
 62
     5
 63
     7
421
 16777215
176
     1
 74
     1
176
     1
 91
        4
176
     1
 64
     7
176
     1
 65
   257
176
     1
 75
     7
176
     1
175
     7
176
     1
 42
1.0
176
     1
 92
        8
176
     1
 66
     7
176
     1
 43
1.0
176
     1
 76
     1
176
     1
 77
     6
176
     1
 78
     2
176
     1
 67
     7
176
     1
 79
     5
176
     1
170
     0
176
     1
171
     0
176
     1
290
     0
176
     1
 93
        1
176
     1
 44
0.0
176
     1
173
     0
176
     1
  0
VISUALSTYLE
  5
C69
102
{ACAD_REACTORS
330
C57
102
}
330
C57
100
AcDbVisualStyle
  2
OverhangOff
 70
    21
177
     2
291
     1
 71
     2
176
     0
 72
     2
176
     0
 73
     0
176
     0
 90
        0
176
     0
 40
0.6
176
     0
 41
30.0
176
     0
 62
     5
 63
     7
421
 16777215
176
     0
 74
     1
176
     0
 91
        4
176
     0
 64
     7
176
     0
 65
   257
176
     0
 75
     1
176
     0
175
     1
176
     0
 42
1.0
176
     0
 92
        9
176
     2
 66
     7
176
     0
 43
1.0
176
     0
 76
     1
176
     0
 77
     6
176
     0
 78
     2
176
     0
 67
     7
176
     0
 79
     5
176
     0
170
     0
176
     0
171
     0
176
     0
290
     0
176
     0
 93
        1
176
     0
 44
0.0
176
     0
173
     0
176
     0
  0
VISUALSTYLE
  5
C60
102
{ACAD_REACTORS
330
C57
102
}
330
C57
100
AcDbVisualStyle
  2
Realistic
 70
     8
177
     2
291
     0
 71
     2
176
     1
 72
     3
176
     1
 73
     0
176
     1
 90
        2
176
     1
 40
0.6
176
     1
 41
30.0
176
     1
 62
     5
 63
     7
421
 16777215
176
     1
 74
     0
176
     1
 91
        0
176
     1
 64
     7
176
     1
 65
   257
176
     1
 75
     1
176
     1
175
     1
176
     1
 42
1.0
176
     1
 92
        8
176
     1
 66
   257
176
     1
 43
1.0
176
     1
 76
     1
176
     1
 77
     6
176
     1
 78
     2
176
     1
 67
     7
176
     1
 79
     3
176
     1
170
     0
176
     1
171
     0
176
     1
290
     0
176
     1
 93
       13
176
     1
 44
0.0
176
     1
173
     0
176
     1
  0
VISUALSTYLE
  5
C6F
102
{ACAD_REACTORS
330
C57
102
}
330
C57
100
AcDbVisualStyle
  2
Shaded
 70
    27
177
     2
291
     0
 71
     2
176
     1
 72
     2
176
     1
 73
     1
176
     1
 90
        2
176
     1
 40
0.6
176
     1
 41
30.0
176
     1
 62
     5
 63
     7
421
 16777215
176
     1
 74
     0
176
     1
 91
        4
176
     1
 64
     7
176
     1
 65
   257
176
     1
 75
     1
176
     1
175
     1
176
     1
 42
1.0
176
     1
 92
        8
176
     1
 66
   257
176
     1
 43
1.0
176
     1
 76
     1
176
     1
 77
     6
176
     1
 78
     2
176
     1
 67
     8
425
  7895160
176
     1
 79
     3
176
     1
170
     0
176
     1
171
     0
176
     1
290
     0
176
     1
 93
        5
176
     1
 44
0.0
176
     1
173
     0
176
     1
  0
VISUALSTYLE
  5
C6E
102
{ACAD_REACTORS
330
C57
102
}
330
C57
100
AcDbVisualStyle
  2
Shaded with edges
 70
    26
177
     2
291
     0
 71
     2
176
     1
 72
     2
176
     1
 73
     1
176
     1
 90
        2
176
     1
 40
0.6
176
     1
 41
30.0
176
     1
 62
     5
 63
     7
421
 16777215
176
     1
 74
     1
176
     1
 91
       10
176
     1
 64
     7
176
     1
 65
   257
176
     1
 75
     2
176
     1
175
     1
176
     1
 42
1.0
176
     1
 92
        8
176
     1
 66
   257
176
     1
 43
1.0
176
     1
 76
     1
176
     1
 77
     6
176
     1
 78
     2
176
     1
 67
     7
176
     1
 79
     3
176
     1
170
     0
176
     1
171
     0
176
     1
290
     0
176
     1
 93
        5
176
     1
 44
0.0
176
     1
173
     0
176
     1
  0
VISUALSTYLE
  5
C6B
102
{ACAD_REACTORS
330
C57
102
}
330
C57
100
AcDbVisualStyle
  2
Shades of Gray
 70
    23
177
     2
291
     0
 71
     2
176
     1
 72
     2
176
     1
 73
     3
176
     1
 90
        0
176
     1
 40
0.6
176
     1
 41
30.0
176
     1
 62
     5
 63
     7
421
 16777215
176
     1
 74
     2
176
     1
 91
        2
176
     1
 64
     7
176
     1
 65
     7
176
     1
 75
     1
176
     1
175
     1
176
     1
 42
40.0
176
     1
 92
        8
176
     1
 66
     7
176
     1
 43
1.0
176
     1
 76
     1
176
     1
 77
     6
176
     1
 78
     2
176
     1
 67
     7
176
     1
 79
     3
176
     1
170
     0
176
     1
171
     0
176
     1
290
     0
176
     1
 93
        1
176
     1
 44
0.0
176
     1
173
     0
176
     1
  0
VISUALSTYLE
  5
C6C
102
{ACAD_REACTORS
330
C57
102
}
330
C57
100
AcDbVisualStyle
  2
Sketchy
 70
    24
177
     2
291
     0
 71
     1
176
     1
 72
     2
176
     1
 73
     2
176
     1
 90
        0
176
     1
 40
0.6
176
     1
 41
30.0
176
     1
 62
     5
 63
     7
421
 16777215
176
     1
 74
     2
176
     1
 91
        2
176
     1
 64
     7
176
     1
 65
     7
176
     1
 75
     1
176
     1
175
     1
176
     1
 42
40.0
176
     1
 92
       11
176
     1
 66
     7
176
     1
 43
1.0
176
     1
 76
     1
176
     1
 77
     6
176
     1
 78
     2
176
     1
 67
     7
176
     1
 79
     6
176
     1
170
     0
176
     1
171
     0
176
     1
290
     0
176
     1
 93
        1
176
     1
 44
0.0
176
     1
173
     0
176
     1
  0
VISUALSTYLE
  5
C64
102
{ACAD_REACTORS
330
C57
102
}
330
C57
100
AcDbVisualStyle
  2
Thicken
 70
    13
177
     2
291
     1
 71
     2
176
     1
 72
     2
176
     1
 73
     0
176
     1
 90
        0
176
     1
 40
0.6
176
     1
 41
30.0
176
     1
 62
     5
 63
     7
421
 16777215
176
     1
 74
     1
176
     1
 91
        4
176
     1
 64
     7
176
     1
 65
   257
176
     1
 75
     1
176
     1
175
     1
176
     1
 42
1.0
176
     1
 92
       12
176
     1
 66
     7
176
     1
 43
1.0
176
     1
 76
     1
176
     1
 77
     6
176
     1
 78
     2
176
     1
 67
     7
176
     1
 79
     5
176
     1
170
     0
176
     1
171
     0
176
     1
290
     0
176
     1
 93
        1
176
     1
 44
0.0
176
     1
173
     0
176
     1
  0
VISUALSTYLE
  5
C5D
102
{ACAD_REACTORS
330
C57
102
}
330
C57
100
AcDbVisualStyle
  2
Wireframe
 70
     5
177
     2
291
     0
 71
     0
176
     1
 72
     2
176
     1
 73
     0
176
     1
 90
        0
176
     1
 40
0.6
176
     1
 41
30.0
176
     1
 62
     5
 63
     7
421
 16777215
176
     1
 74
     1
176
     1
 91
        4
176
     1
 64
     7
176
     1
 65
   257
176
     1
 75
     1
176
     1
175
     1
176
     1
 42
1.0
176
     1
 92
        0
176
     1
 66
   257
176
     1
 43
1.0
176
     1
 76
     1
176
     1
 77
     6
176
     1
 78
     2
176
     1
 67
     7
176
     1
 79
     3
176
     1
170
     0
176
     1
171
     0
176
     1
290
     0
176
     1
 93
        1
176
     1
 44
0.0
176
     1
173
     0
176
     1
  0
VISUALSTYLE
  5
C6D
102
{ACAD_REACTORS
330
C57
102
}
330
C57
100
AcDbVisualStyle
  2
X-Ray
 70
    25
177
     2
291
     0
 71
     2
176
     1
 72
     2
176
     1
 73
     1
176
     1
 90
        1
176
     1
 40
0.5
176
     1
 41
30.0
176
     1
 62
     5
 63
     7
421
 16777215
176
     1
 74
     1
176
     1
 91
        0
176
     1
 64
     7
176
     1
 65
   257
176
     1
 75
     1
176
     1
175
     1
176
     1
 42
1.0
176
     1
 92
        8
176
     1
 66
     7
176
     1
 43
1.0
176
     1
 76
     1
176
     1
 77
     6
176
     1
 78
     2
176
     1
 67
     7
176
     1
 79
     3
176
     1
170
     0
176
     1
171
     0
176
     1
290
     0
176
     1
 93
       13
176
     1
 44
0.0
176
     1
173
     0
176
     1
  0
DICTIONARYVAR
  5
62
102
{ACAD_REACTORS
330
3D
102
}
330
3D
100
DictionaryVariables
280
     0
  1
1:1
  0
DICTIONARYVAR
  5
BB
102
{ACAD_REACTORS
330
3D
102
}
330
3D
100
DictionaryVariables
280
     0
  1
Standard
  0
DICTIONARYVAR
  5
3E
102
{ACAD_REACTORS
330
3D
102
}
330
3D
100
DictionaryVariables
280
     0
  1
Standard
  0
DICTIONARYVAR
  5
6F
102
{ACAD_REACTORS
330
3D
102
}
330
3D
100
DictionaryVariables
280
     0
  1
0
  0
DICTIONARYVAR
  5
C73
102
{ACAD_REACTORS
330
3D
102
}
330
3D
100
DictionaryVariables
280
     0
  1
0
  0
DICTIONARYVAR
  5
70
102
{ACAD_REACTORS
330
3D
102
}
330
3D
100
DictionaryVariables
280
     0
  1
0
  0
DICTIONARY
  5
C70
330
3C
100
AcDbDictionary
280
     1
281
     1
  3
ACAD_ROUNDTRIP_2008_TABLESTYLE_CELLSTYLEMAP
360
C71
  0
CELLSTYLEMAP
  5
C71
102
{ACAD_REACTORS
330
C70
102
}
330
C70
100
AcDbCellStyleMap
 90
        3
300
CELLSTYLE
  1
TABLEFORMAT_BEGIN
 90
        5
170
     1
 91
        0
 92
    32768
 62
   257
 93
        1
300
CONTENTFORMAT
  1
CONTENTFORMAT_BEGIN
 90
        0
 91
        0
 92
      512
 93
        0
300

 40
0.0
140
1.0
 94
        5
 62
     0
340
11
144
6.0
309
CONTENTFORMAT_END
171
     1
301
MARGIN
  1
CELLMARGIN_BEGIN
 40
1.5
 40
1.5
 40
1.5
 40
1.5
 40
0.18
 40
0.18
309
CELLMARGIN_END
 94
        6
 95
        1
302
GRIDFORMAT
  1
GRIDFORMAT_BEGIN
 90
        0
 91
        1
 62
     0
 92
       -2
340
0
 93
        0
 40
0.045
309
GRIDFORMAT_END
 95
        2
302
GRIDFORMAT
  1
GRIDFORMAT_BEGIN
 90
        0
 91
        1
 62
     0
 92
       -2
340
0
 93
        0
 40
0.045
309
GRIDFORMAT_END
 95
        4
302
GRIDFORMAT
  1
GRIDFORMAT_BEGIN
 90
        0
 91
        1
 62
     0
 92
       -2
340
0
 93
        0
 40
0.045
309
GRIDFORMAT_END
 95
        8
302
GRIDFORMAT
  1
GRIDFORMAT_BEGIN
 90
        0
 91
        1
 62
     0
 92
       -2
340
0
 93
        0
 40
0.045
309
GRIDFORMAT_END
 95
       16
302
GRIDFORMAT
  1
GRIDFORMAT_BEGIN
 90
        0
 91
        1
 62
     0
 92
       -2
340
0
 93
        0
 40
0.045
309
GRIDFORMAT_END
 95
       32
302
GRIDFORMAT
  1
GRIDFORMAT_BEGIN
 90
        0
 91
        1
 62
     0
 92
       -2
340
0
 93
        0
 40
0.045
309
GRIDFORMAT_END
309
TABLEFORMAT_END
  1
CELLSTYLE_BEGIN
 90
        1
 91
        1
300
_TITLE
309
CELLSTYLE_END
300
CELLSTYLE
  1
TABLEFORMAT_BEGIN
 90
        5
170
     1
 91
        0
 92
        0
 62
   257
 93
        1
300
CONTENTFORMAT
  1
CONTENTFORMAT_BEGIN
 90
        0
 91
        0
 92
      512
 93
        0
300

 40
0.0
140
1.0
 94
        5
 62
     0
340
11
144
4.5
309
CONTENTFORMAT_END
171
     1
301
MARGIN
  1
CELLMARGIN_BEGIN
 40
1.5
 40
1.5
 40
1.5
 40
1.5
 40
0.18
 40
0.18
309
CELLMARGIN_END
 94
        6
 95
        1
302
GRIDFORMAT
  1
GRIDFORMAT_BEGIN
 90
        0
 91
        1
 62
     0
 92
       -2
340
0
 93
        0
 40
0.045
309
GRIDFORMAT_END
 95
        2
302
GRIDFORMAT
  1
GRIDFORMAT_BEGIN
 90
        0
 91
        1
 62
     0
 92
       -2
340
0
 93
        0
 40
0.045
309
GRIDFORMAT_END
 95
        4
302
GRIDFORMAT
  1
GRIDFORMAT_BEGIN
 90
        0
 91
        1
 62
     0
 92
       -2
340
0
 93
        0
 40
0.045
309
GRIDFORMAT_END
 95
        8
302
GRIDFORMAT
  1
GRIDFORMAT_BEGIN
 90
        0
 91
        1
 62
     0
 92
       -2
340
0
 93
        0
 40
0.045
309
GRIDFORMAT_END
 95
       16
302
GRIDFORMAT
  1
GRIDFORMAT_BEGIN
 90
        0
 91
        1
 62
     0
 92
       -2
340
0
 93
        0
 40
0.045
309
GRIDFORMAT_END
 95
       32
302
GRIDFORMAT
  1
GRIDFORMAT_BEGIN
 90
        0
 91
        1
 62
     0
 92
       -2
340
0
 93
        0
 40
0.045
309
GRIDFORMAT_END
309
TABLEFORMAT_END
  1
CELLSTYLE_BEGIN
 90
        2
 91
        1
300
_HEADER
309
CELLSTYLE_END
300
CELLSTYLE
  1
TABLEFORMAT_BEGIN
 90
        5
170
     1
 91
        0
 92
        0
 62
   257
 93
        1
300
CONTENTFORMAT
  1
CONTENTFORMAT_BEGIN
 90
        0
 91
        0
 92
      512
 93
        0
300

 40
0.0
140
1.0
 94
        2
 62
     0
340
11
144
4.5
309
CONTENTFORMAT_END
171
     1
301
MARGIN
  1
CELLMARGIN_BEGIN
 40
1.5
 40
1.5
 40
1.5
 40
1.5
 40
0.18
 40
0.18
309
CELLMARGIN_END
 94
        6
 95
        1
302
GRIDFORMAT
  1
GRIDFORMAT_BEGIN
 90
        0
 91
        1
 62
     0
 92
       -2
340
0
 93
        0
 40
0.045
309
GRIDFORMAT_END
 95
        2
302
GRIDFORMAT
  1
GRIDFORMAT_BEGIN
 90
        0
 91
        1
 62
     0
 92
       -2
340
0
 93
        0
 40
0.045
309
GRIDFORMAT_END
 95
        4
302
GRIDFORMAT
  1
GRIDFORMAT_BEGIN
 90
        0
 91
        1
 62
     0
 92
       -2
340
0
 93
        0
 40
0.045
309
GRIDFORMAT_END
 95
        8
302
GRIDFORMAT
  1
GRIDFORMAT_BEGIN
 90
        0
 91
        1
 62
     0
 92
       -2
340
0
 93
        0
 40
0.045
309
GRIDFORMAT_END
 95
       16
302
GRIDFORMAT
  1
GRIDFORMAT_BEGIN
 90
        0
 91
        1
 62
     0
 92
       -2
340
0
 93
        0
 40
0.045
309
GRIDFORMAT_END
 95
       32
302
GRIDFORMAT
  1
GRIDFORMAT_BEGIN
 90
        0
 91
        1
 62
     0
 92
       -2
340
0
 93
        0
 40
0.045
309
GRIDFORMAT_END
309
TABLEFORMAT_END
  1
CELLSTYLE_BEGIN
 90
        3
 91
        2
300
_DATA
309
CELLSTYLE_END
  0
ENDSEC
  0
EOF
